<?xml version="1.0" encoding="UTF-8" standalone="no"?>
<!-- Generator: Adobe Illustrator 16.0.0, SVG Export Plug-In . SVG Version: 6.00 Build 0)  -->

<svg
   xmlns:dc="http://purl.org/dc/elements/1.1/"
   xmlns:cc="http://creativecommons.org/ns#"
   xmlns:rdf="http://www.w3.org/1999/02/22-rdf-syntax-ns#"
   xmlns:svg="http://www.w3.org/2000/svg"
   xmlns="http://www.w3.org/2000/svg"
   xmlns:xlink="http://www.w3.org/1999/xlink"
   xmlns:sodipodi="http://sodipodi.sourceforge.net/DTD/sodipodi-0.dtd"
   xmlns:inkscape="http://www.inkscape.org/namespaces/inkscape"
   version="1.1"
   id="Layer_1"
   x="0px"
   y="0px"
   width="351px"
   height="249px"
   viewBox="0 0 351 249"
   enable-background="new 0 0 351 249"
   xml:space="preserve"
   inkscape:version="0.48.4 r9939"
   sodipodi:docname="gendRe_logo_square.svg"><metadata
   id="metadata3611"><rdf:RDF><cc:Work
       rdf:about=""><dc:format>image/svg+xml</dc:format><dc:type
         rdf:resource="http://purl.org/dc/dcmitype/StillImage" /><dc:title></dc:title></cc:Work></rdf:RDF></metadata><defs
   id="defs3609" /><sodipodi:namedview
   pagecolor="#ffffff"
   bordercolor="#666666"
   borderopacity="1"
   objecttolerance="10"
   gridtolerance="10"
   guidetolerance="10"
   inkscape:pageopacity="0"
   inkscape:pageshadow="2"
   inkscape:window-width="1360"
   inkscape:window-height="706"
   id="namedview3607"
   showgrid="false"
   inkscape:zoom="1"
   inkscape:cx="212.47336"
   inkscape:cy="124.5"
   inkscape:window-x="-8"
   inkscape:window-y="-8"
   inkscape:window-maximized="1"
   inkscape:current-layer="Layer_1" />
<text
   font-size="48"
   id="text3457"
   x="1648.9908"
   y="176.85542"
   style="font-size:48.81103516px;fill:#c1272d;font-family:Pacifico-Regular"
   transform="scale(1.0139932,0.98619989)">GendRe</text>

<text
   id="text3459"
   x="1307.2045"
   y="23.278206"
   transform="scale(1.0139932,0.98619989)"
   style="font-size:12.20275879px"><tspan
     x="1307.2045"
     y="23.278206"
     font-size="116.127"
     id="tspan3461"
     style="font-size:118.08914185px;fill:#be3a4a;font-family:WolfintheCity">Gend</tspan><tspan
     x="1460.7172"
     y="23.278206"
     font-size="116.127"
     id="tspan3463"
     style="font-size:118.08914185px;fill:#7c98ab;font-family:WolfintheCity">Re</tspan></text>


<circle
   cx="1299.87"
   cy="159.63"
   r="26.370001"
   id="circle3479"
   sodipodi:cx="1299.87"
   sodipodi:cy="159.63"
   sodipodi:rx="26.370001"
   sodipodi:ry="26.370001"
   transform="matrix(1.0311262,0,0,1.0028632,224.70774,22.647481)"
   style="fill:#be3a4a" />



<g
   id="g3487"
   transform="matrix(1.0311262,0,0,1.0028632,224.70774,22.647481)">
	<path
   d="m 1120.602,420.109 c 1.469,0 2.845,0.135 4.122,0.406 1.277,0.271 2.612,0.522 4.007,0.755 0.696,-1.472 1.807,-3.354 2.428,-5.134 0.619,-1.78 2.825,-7.231 3.521,-8.856 -0.464,0.542 -0.949,1.064 -1.451,1.567 -0.504,0.504 -1.027,1.027 -1.568,1.567 -1.16,1.161 -2.612,2.303 -4.354,3.426 -1.742,1.121 -3.699,1.916 -5.865,2.381 0,0 -0.613,0.231 -1.91,0.403 -1.297,0.172 -1.806,0.062 -1.806,0.062 -2.787,0 -5.091,-0.522 -6.909,-1.568 -1.82,-1.045 -3.252,-2.38 -4.297,-4.006 -1.045,-1.626 -1.782,-3.368 -2.207,-5.226 -0.426,-1.858 -0.639,-3.601 -0.639,-5.227 0,-4.645 0.947,-9.174 2.846,-13.586 1.896,-4.413 4.122,-8.361 6.678,-11.846 -2.556,0 -4.878,0.099 -6.969,0.291 -2.09,0.193 -3.91,0.484 -5.457,0.87 -0.389,0.156 -1.008,0.389 -1.858,0.697 -0.853,0.311 -1.762,0.658 -2.729,1.045 -0.969,0.389 -1.897,0.813 -2.787,1.277 -0.891,0.465 -1.567,0.891 -2.031,1.277 -0.389,-0.929 -0.697,-1.741 -0.93,-2.438 -0.232,-0.696 -0.426,-1.411 -0.58,-2.148 -0.156,-0.734 -0.232,-1.411 -0.232,-2.032 0,-0.387 0.25,-0.889 0.754,-1.51 0.504,-0.618 1.606,-1.237 3.311,-1.858 0,-0.076 0.444,-0.231 1.336,-0.464 0.889,-0.232 2.012,-0.482 3.367,-0.755 1.354,-0.271 2.845,-0.522 4.471,-0.755 1.626,-0.231 3.174,-0.349 4.645,-0.349 1.781,0 3.543,0.137 5.284,0.406 1.742,0.273 3.502,0.602 5.284,0.988 3.483,-3.174 6.967,-5.477 10.451,-6.91 3.484,-1.432 6.852,-2.148 10.104,-2.148 1.16,0 2.264,0.078 3.309,0.232 1.046,0.156 2.033,0.311 2.962,0.465 0.464,0.156 1.161,0.367 2.091,0.639 0.928,0.271 1.857,0.736 2.787,1.393 0.928,0.659 1.741,1.551 2.438,2.672 0.697,1.123 1.045,2.536 1.045,4.238 0,2.014 -0.484,3.678 -1.451,4.993 -0.969,1.317 -2.148,2.362 -3.541,3.136 -1.395,0.774 -2.846,1.317 -4.355,1.626 -1.51,0.31 -2.807,0.464 -3.891,0.464 -2.014,0 -3.871,-0.154 -5.574,-0.464 -1.703,-0.309 -3.329,-0.697 -4.877,-1.161 -1.549,-0.465 -3.02,-0.947 -4.412,-1.452 -1.395,-0.503 -2.711,-0.909 -3.949,-1.219 -3.483,3.175 -6.426,6.949 -8.825,11.322 -2.4,4.374 -3.601,8.961 -3.601,13.761 0,3.948 0.813,6.871 2.439,8.768 1.625,1.896 3.948,2.845 6.967,2.845 2.399,0 4.664,-0.542 6.794,-1.625 2.128,-1.084 4.064,-2.381 5.807,-3.891 1.741,-1.51 3.212,-3.058 4.413,-4.646 1.199,-1.586 2.07,-2.883 2.612,-3.89 0.772,-2.245 1.567,-4.471 2.381,-6.678 0.813,-2.206 1.548,-4.16 2.206,-5.864 0.657,-1.702 1.258,-3.077 1.801,-4.122 0.54,-1.046 0.967,-1.568 1.277,-1.568 1.547,0 2.863,0.543 3.947,1.626 1.084,1.085 1.627,2.168 1.627,3.252 0,0.464 -0.078,0.853 -0.232,1.161 -0.697,1.317 -1.473,2.711 -2.323,4.181 -0.853,1.472 -1.646,3.001 -2.38,4.587 -0.737,1.588 -1.336,3.155 -1.801,4.703 -0.465,1.55 -0.696,3.02 -0.696,4.413 0,0.853 0.116,1.529 0.349,2.032 0.232,0.504 0.772,0.754 1.625,0.754 1.316,0 2.961,-0.792 4.936,-2.38 1.975,-1.586 3.734,-4.161 5.284,-7.723 v -0.116 h 0.116 l 0.232,-0.116 c 0.232,0 0.464,0.116 0.696,0.349 0.076,0.078 0.116,0.156 0.116,0.232 -0.697,2.787 -1.51,4.993 -2.438,6.619 -0.928,1.626 -2.169,3.135 -3.716,4.528 -1.551,1.394 -3.562,2.091 -6.039,2.091 -0.697,0 -1.434,-0.135 -2.207,-0.406 -0.774,-0.271 -1.51,-0.793 -2.206,-1.568 -1.472,3.328 -5.983,10.43 -7.532,13.294 1.781,0.309 3.601,0.562 5.459,0.755 1.857,0.192 3.638,0.291 5.342,0.291 3.56,0 6.753,-0.446 9.58,-1.336 2.825,-0.891 5.052,-1.8 6.678,-2.729 0.232,-0.078 0.715,-0.368 1.451,-0.871 0.734,-0.505 1.527,-1.045 2.381,-1.626 0.851,-0.58 1.664,-1.181 2.438,-1.8 0.772,-0.619 1.315,-1.121 1.626,-1.51 0.076,0 0.27,0.232 0.58,0.697 0.309,0.464 0.619,1.045 0.93,1.741 0.309,0.697 0.58,1.452 0.812,2.265 0.232,0.813 0.348,1.528 0.348,2.148 0,1.548 -0.87,2.863 -2.612,3.948 -1.741,1.083 -3.794,1.975 -6.155,2.671 -2.361,0.697 -4.801,1.18 -7.315,1.451 -2.517,0.271 -4.549,0.407 -6.097,0.407 -3.252,-0.078 -6.311,-0.407 -9.174,-0.987 -2.865,-0.581 -5.652,-1.22 -8.361,-1.916 -1.161,2.322 -2.729,3.948 -4.703,4.877 -1.975,0.93 -3.736,1.394 -5.283,1.394 -0.156,0 -0.602,-0.02 -1.336,-0.058 -0.736,-0.04 -1.51,-0.232 -2.322,-0.581 -0.812,-0.349 -1.55,-0.891 -2.207,-1.626 -0.658,-0.736 -0.986,-1.8 -0.986,-3.193 0,-1.781 0.465,-3.193 1.393,-4.238 0.93,-1.045 1.898,-1.716 2.904,-2.032 -1.348,0.424 0.465,-0.154 1.184,-0.201 0.719,-0.047 1.204,-0.03 1.204,-0.03 z m -4.718,6.387 c 0,1.006 0.366,1.742 1.104,2.207 0.735,0.464 1.684,0.696 2.845,0.696 1.006,0 2.07,-0.349 3.193,-1.045 1.121,-0.697 2.225,-2.014 3.311,-3.948 -1.008,-0.389 -1.975,-0.736 -2.904,-1.045 -0.929,-0.311 -1.897,-0.465 -2.902,-0.465 -1.008,0 -2.033,0.25 -3.078,0.755 -1.047,0.503 -1.569,1.452 -1.569,2.845 z m 29.712,-55.564 c -2.014,-1.701 -4.452,-2.555 -7.315,-2.555 -1.937,0 -3.948,0.369 -6.038,1.104 -2.091,0.736 -4.143,1.762 -6.155,3.077 2.322,1.007 4.663,1.956 7.025,2.846 2.36,0.891 4.703,1.335 7.026,1.335 0.54,-0.076 1.16,-0.25 1.857,-0.522 0.697,-0.271 1.354,-0.599 1.975,-0.987 0.618,-0.386 1.141,-0.812 1.567,-1.277 0.425,-0.464 0.639,-0.929 0.639,-1.394 0,-0.465 -0.195,-1.006 -0.581,-1.627 z"
   id="path3489"
   inkscape:connector-curvature="0"
   style="fill:#b20f70" />
	<path
   d="m 1179.969,400.312 c 0.154,0.156 0.232,0.31 0.232,0.464 -1.16,2.169 -2.516,4.064 -4.064,5.69 -1.316,1.394 -3,2.671 -5.051,3.832 -2.053,1.161 -4.434,1.742 -7.143,1.742 -2.014,0 -3.715,-0.427 -5.109,-1.277 -1.393,-0.851 -2.517,-1.916 -3.367,-3.193 -0.854,-1.277 -1.451,-2.651 -1.801,-4.123 -0.348,-1.47 -0.521,-2.787 -0.521,-3.948 0,-2.631 0.426,-5.167 1.277,-7.606 0.851,-2.438 2.012,-4.625 3.483,-6.561 1.47,-1.935 3.136,-3.484 4.993,-4.646 1.858,-1.161 3.793,-1.741 5.807,-1.741 2.477,0 4.393,0.696 5.748,2.09 1.354,1.394 2.033,2.903 2.033,4.529 0,1.625 -0.35,3.175 -1.046,4.645 -0.696,1.472 -1.646,2.77 -2.845,3.891 -1.201,1.123 -2.613,2.014 -4.238,2.671 -1.627,0.658 -3.33,0.987 -5.11,0.987 -1.239,0 -2.284,-0.135 -3.136,-0.407 -0.853,-0.27 -1.471,-0.599 -1.857,-0.986 -0.465,1.394 -0.697,2.787 -0.697,4.181 0,2.168 0.678,4.122 2.033,5.864 1.354,1.741 3.152,2.612 5.399,2.612 1.702,0 3.425,-0.464 5.167,-1.394 1.742,-0.929 3.115,-1.741 4.123,-2.438 1.161,-0.851 2.07,-1.586 2.729,-2.206 0.657,-0.619 1.142,-1.142 1.452,-1.568 0.308,-0.424 0.522,-0.734 0.639,-0.929 0.116,-0.192 0.25,-0.29 0.406,-0.29 0.154,-10e-4 0.308,0.039 0.464,0.115 z m -18.348,-10.799 c -1.085,1.549 -2.052,3.251 -2.902,5.109 0.231,0.078 0.734,0.116 1.51,0.116 1.16,0 2.281,-0.271 3.367,-0.813 1.083,-0.54 2.032,-1.199 2.845,-1.974 0.813,-0.773 1.47,-1.605 1.974,-2.497 0.504,-0.889 0.756,-1.644 0.756,-2.265 0,-1.005 -0.543,-1.509 -1.626,-1.509 -0.774,0 -1.685,0.29 -2.729,0.87 -1.046,0.582 -2.111,1.569 -3.195,2.963 z"
   id="path3491"
   inkscape:connector-curvature="0"
   style="fill:#b20f70" />
	<path
   d="m 1194.369,406.815 c -1.086,-1.548 -1.626,-3.6 -1.626,-6.155 0,-2.09 0.232,-3.966 0.696,-5.632 0.465,-1.664 1.084,-3.542 1.858,-5.632 -0.696,1.317 -1.567,2.923 -2.612,4.819 -1.045,1.897 -2.072,3.832 -3.078,5.806 -1.007,1.975 -1.916,3.833 -2.729,5.574 -0.812,1.742 -1.336,3.04 -1.568,3.891 -0.388,1.007 -0.774,1.78 -1.16,2.322 -0.389,0.541 -0.834,1.045 -1.336,1.51 -0.504,0.465 -1.065,0.697 -1.684,0.697 -1.858,0 -3.096,-0.717 -3.717,-2.148 -0.618,-1.432 -0.929,-3.31 -0.929,-5.633 0,-2.555 0.311,-5.069 0.929,-7.548 0.621,-2.477 1.318,-4.722 2.091,-6.735 0.772,-2.013 1.509,-3.696 2.206,-5.052 0.697,-1.354 1.121,-2.187 1.277,-2.496 0.465,-0.93 0.93,-2.032 1.394,-3.311 0.465,-1.277 0.772,-2.186 0.929,-2.729 0.232,0 0.657,0.194 1.277,0.581 0.619,0.388 1.22,0.87 1.801,1.451 0.58,0.581 1.104,1.22 1.567,1.916 0.464,0.697 0.696,1.355 0.696,1.975 0,1.317 -0.464,2.787 -1.393,4.412 -0.93,1.626 -1.957,3.388 -3.078,5.284 -1.123,1.897 -2.148,3.891 -3.077,5.98 -0.929,2.089 -1.394,4.297 -1.394,6.619 0,0.621 0.038,1.085 0.116,1.394 2.555,-4.877 4.779,-8.922 6.677,-12.135 1.896,-3.212 3.543,-5.807 4.936,-7.781 1.395,-1.974 2.555,-3.521 3.484,-4.645 0.929,-1.122 1.684,-2.051 2.265,-2.787 0.581,-0.735 1.024,-1.394 1.335,-1.975 0.309,-0.58 0.581,-1.411 0.812,-2.496 0.076,0 0.407,0.174 0.988,0.522 0.58,0.348 1.179,0.812 1.799,1.394 0.619,0.58 1.2,1.201 1.742,1.857 0.541,0.659 0.812,1.336 0.812,2.032 0,0.232 -0.057,0.659 -0.174,1.277 -0.115,0.621 -0.33,1.085 -0.639,1.394 -0.62,1.317 -1.375,2.691 -2.264,4.123 -0.892,1.434 -1.742,2.923 -2.555,4.471 -0.813,1.55 -1.51,3.117 -2.091,4.703 -0.581,1.588 -0.871,3.155 -0.871,4.703 0,0.853 0.097,1.567 0.29,2.148 0.193,0.58 0.639,0.871 1.336,0.871 1.005,0 2.34,-0.793 4.006,-2.381 1.664,-1.586 3.27,-4.16 4.82,-7.723 l 0.231,-0.116 c 0.232,0 0.465,0.116 0.696,0.349 l 0.232,0.232 c 0,0.156 -0.252,0.911 -0.754,2.265 -0.505,1.355 -1.22,2.845 -2.148,4.471 -0.93,1.626 -2.072,3.098 -3.426,4.413 -1.355,1.317 -2.885,1.974 -4.588,1.974 -0.696,0 -1.434,-0.154 -2.206,-0.464 -0.769,-0.306 -1.504,-0.927 -2.201,-1.856 z"
   id="path3493"
   inkscape:connector-curvature="0"
   style="fill:#b20f70" />
	<path
   d="m 1237.799,405.538 c -0.311,0.465 -0.717,1.007 -1.219,1.626 -0.505,0.62 -1.123,1.219 -1.858,1.8 -0.737,0.58 -1.567,1.064 -2.497,1.451 -0.929,0.387 -1.975,0.581 -3.135,0.581 -0.854,0 -1.879,-0.251 -3.078,-0.755 -1.201,-0.503 -1.994,-1.49 -2.381,-2.961 -0.62,0.62 -1.665,1.433 -3.135,2.438 -1.472,1.007 -3.213,1.51 -5.226,1.51 -1.704,0 -3.136,-0.407 -4.297,-1.22 -1.161,-0.813 -2.091,-1.8 -2.787,-2.961 -0.696,-1.161 -1.199,-2.419 -1.51,-3.774 -0.308,-1.354 -0.464,-2.613 -0.464,-3.774 0,-1.857 0.388,-3.928 1.16,-6.213 0.773,-2.282 1.896,-4.431 3.368,-6.444 1.47,-2.013 3.252,-3.696 5.342,-5.052 2.091,-1.354 4.413,-2.032 6.968,-2.032 1.161,0 2.225,0.116 3.193,0.349 0.967,0.232 1.801,0.542 2.497,0.929 1.161,-2.941 2.187,-5.477 3.077,-7.606 0.889,-2.128 1.568,-3.733 2.032,-4.819 l 0.813,-2.438 c 0.232,-0.696 0.443,-1.394 0.639,-2.091 0.191,-0.696 0.29,-1.277 0.29,-1.741 0.153,0.077 0.581,0.252 1.277,0.522 0.696,0.271 1.432,0.639 2.206,1.104 0.773,0.465 1.47,1.027 2.09,1.684 0.619,0.658 0.93,1.414 0.93,2.264 0,0.389 -0.04,0.813 -0.116,1.278 -0.078,0.464 -0.232,1.007 -0.464,1.626 -0.543,1.239 -1.551,3.349 -3.02,6.328 -1.472,2.981 -3.002,6.213 -4.588,9.697 -1.587,3.483 -2.98,6.909 -4.18,10.277 -1.201,3.367 -1.801,6.021 -1.801,7.954 0,1.626 0.657,2.438 1.975,2.438 1.315,0 2.941,-0.793 4.877,-2.38 1.935,-1.586 3.677,-4.161 5.227,-7.723 l 0.232,-0.116 c 0.308,0 0.58,0.116 0.812,0.349 l 0.232,0.232 c 0,0.31 -0.252,1.201 -0.756,2.671 -0.501,1.47 -1.41,3.134 -2.725,4.992 z m -14.632,-0.349 c -0.078,-0.309 -0.116,-0.851 -0.116,-1.626 0,-2.166 0.309,-4.604 0.93,-7.315 0.618,-2.709 1.393,-5.418 2.322,-8.129 -1.24,-1.006 -2.672,-1.51 -4.297,-1.51 -1.55,0 -3.039,0.484 -4.471,1.451 -1.434,0.969 -2.691,2.207 -3.774,3.717 -1.085,1.509 -1.956,3.155 -2.612,4.935 -0.659,1.782 -0.988,3.524 -0.988,5.227 0,2.246 0.678,3.89 2.033,4.935 1.354,1.046 2.883,1.568 4.586,1.568 1.238,0 2.42,-0.271 3.543,-0.813 1.12,-0.541 2.07,-1.355 2.844,-2.44 z"
   id="path3495"
   inkscape:connector-curvature="0"
   style="fill:#b20f70" />
	<path
   d="m 1243.65,415.724 c 0,-1.501 2.16,-11.175 2.553,-12.641 0.393,-1.464 0.768,-3.018 1.127,-4.662 -1.646,-0.786 -2.985,-1.608 -4.021,-2.466 -1.036,-0.858 -1.858,-1.644 -2.465,-2.358 -0.607,-0.714 -1.162,-1.5 -1.661,-2.358 -0.072,0 -0.107,-0.035 -0.107,-0.107 v -0.214 c 0,-0.356 0.214,-0.536 0.644,-0.536 0.143,0 0.375,0.251 0.696,0.75 0.321,0.501 0.786,1.091 1.394,1.769 0.606,0.681 1.394,1.341 2.358,1.983 0.964,0.644 2.197,1.108 3.698,1.394 0.285,-1.356 0.625,-2.608 1.019,-3.752 0.392,-1.143 0.785,-2.214 1.179,-3.216 0.392,-0.999 0.785,-2.018 1.18,-3.055 0.391,-1.035 0.766,-2.197 1.125,-3.484 l 0.75,-2.251 c 0.215,-0.644 0.411,-1.286 0.59,-1.93 0.178,-0.643 0.269,-1.179 0.269,-1.607 -1.859,1.072 -3.396,2.108 -4.61,3.108 -1.215,1.002 -2.18,1.876 -2.894,2.627 -0.716,0.75 -1.251,1.34 -1.608,1.769 -0.358,0.428 -0.572,0.643 -0.643,0.643 -1.287,-1 -2.162,-1.999 -2.627,-3.001 -0.465,-1 -0.696,-1.893 -0.696,-2.68 0,-0.858 0.054,-1.519 0.161,-1.983 0.106,-0.464 0.321,-0.874 0.643,-1.233 0.322,-0.355 0.714,-0.713 1.18,-1.071 0.463,-0.356 1.088,-0.857 1.875,-1.501 h 0.107 c 1,-0.713 2.395,-1.555 4.181,-2.519 1.785,-0.965 3.841,-1.876 6.164,-2.733 2.32,-0.858 4.805,-1.571 7.45,-2.144 2.643,-0.571 5.359,-0.858 8.146,-0.858 0.928,0 2.465,0.09 4.609,0.269 2.144,0.179 4.305,0.643 6.485,1.393 2.179,0.751 4.09,1.841 5.735,3.27 1.643,1.431 2.465,3.432 2.465,6.003 0,1.002 -0.145,2.021 -0.429,3.055 -0.287,1.037 -0.607,1.948 -0.965,2.734 -1.357,3.216 -3.074,6.04 -5.146,8.469 -2.073,2.43 -4.359,4.466 -6.86,6.109 -2.502,1.646 -5.11,2.878 -7.825,3.698 -2.716,0.822 -5.359,1.232 -7.932,1.232 -0.287,0 -0.573,-0.017 -0.858,-0.053 -0.286,-0.035 -0.573,-0.054 -0.857,-0.054 1.571,1.93 3.484,3.717 5.734,5.359 2.252,1.645 4.626,3.056 7.129,4.234 2.5,1.179 5.073,2.091 7.718,2.733 2.644,0.644 5.146,0.964 7.504,0.964 1.857,0 3.465,-0.09 4.824,-0.268 1.356,-0.179 2.75,-0.804 4.181,-1.876 0.713,0.714 1.106,1.571 1.179,2.573 0.07,1 -0.18,1.965 -0.751,2.895 -0.572,0.928 -1.537,1.731 -2.894,2.411 -1.358,0.679 -3.146,1.054 -5.36,1.126 -4.145,0.143 -7.878,-0.358 -11.201,-1.501 -3.322,-1.144 -6.415,-2.698 -9.272,-4.663 -2.859,-1.966 -5.521,-4.25 -7.986,-6.86 -2.465,-2.607 -4.914,-5.27 -7.343,-7.985 -0.144,0.144 -0.285,0.412 -0.428,0.804 -0.145,0.394 -0.269,0.804 -0.376,1.232 -0.107,0.428 -0.214,0.822 -0.322,1.179 -0.105,0.359 -0.16,0.645 -0.16,0.858 -0.286,1.216 -2.482,10.408 -2.66,11.193 -0.18,0.787 -0.34,1.573 -0.482,2.358 -0.144,0.787 -0.214,1.394 -0.214,1.822 -0.145,0 -0.447,-0.072 -0.911,-0.214 -0.466,-0.143 -0.948,-0.375 -1.447,-0.697 -0.502,-0.321 -0.965,-0.75 -1.395,-1.286 -0.431,-0.537 -0.646,-1.27 -0.646,-2.199 z m 14.827,-28.773 c -0.5,1.001 -0.948,1.912 -1.339,2.732 -0.394,0.822 -0.788,1.646 -1.18,2.466 -0.394,0.822 -0.769,1.698 -1.125,2.626 -0.358,0.931 -0.787,2.037 -1.287,3.323 0.571,0.358 1.448,0.572 2.627,0.643 1.179,0.072 2.198,0.107 3.055,0.107 4.288,0 8.343,-1.16 12.167,-3.482 3.822,-2.322 6.948,-5.843 9.379,-10.56 0.786,-1.57 1.447,-3.071 1.983,-4.502 0.536,-1.429 0.804,-2.644 0.804,-3.645 0,-0.928 -0.358,-1.732 -1.072,-2.412 -0.715,-0.679 -1.606,-1.232 -2.68,-1.661 -1.071,-0.429 -2.233,-0.751 -3.483,-0.965 -1.251,-0.215 -2.449,-0.322 -3.591,-0.322 -1.93,0 -3.806,0.18 -5.628,0.536 -1.821,0.358 -3.537,0.822 -5.146,1.394 -1.607,0.573 -3.073,1.198 -4.395,1.876 -1.323,0.68 -2.484,1.305 -3.484,1.876 0.214,0 0.66,0.126 1.341,0.375 0.678,0.252 1.355,0.627 2.035,1.126 0.679,0.5 1.288,1.072 1.823,1.715 0.536,0.644 0.804,1.358 0.804,2.144 0,0.358 0,0.644 0,0.858 0,0.214 -0.054,0.465 -0.16,0.75 -0.107,0.286 -0.269,0.644 -0.483,1.071 -0.214,0.43 -0.536,1.073 -0.965,1.931 z"
   id="path3497"
   inkscape:connector-curvature="0"
   style="fill:#14a4db" />
	<path
   d="m 1311.75,406.516 c 0,0.781 -1.397,2.858 -1.397,2.858 -1.231,1.303 -2.806,2.497 -4.724,3.583 -1.92,1.087 -4.146,1.63 -6.681,1.63 -1.883,0 -3.475,-0.399 -4.778,-1.194 -1.303,-0.796 -2.354,-1.792 -3.149,-2.987 -0.798,-1.194 -1.357,-2.479 -1.685,-3.855 -0.324,-1.375 -0.487,-2.607 -0.487,-3.693 0,-2.46 0.398,-4.832 1.194,-7.113 0.796,-2.281 1.882,-4.326 3.258,-6.136 1.375,-1.81 2.934,-3.259 4.67,-4.345 1.738,-1.086 3.548,-1.629 5.431,-1.629 2.316,0 4.108,0.651 5.376,1.954 1.267,1.304 1.902,2.716 1.902,4.236 0,1.52 -0.327,2.97 -0.978,4.344 -0.652,1.377 -1.54,2.591 -2.661,3.639 -1.124,1.051 -2.444,1.884 -3.965,2.498 -1.521,0.616 -3.114,0.924 -4.779,0.924 -1.159,0 -2.136,-0.126 -2.933,-0.381 -0.797,-0.252 -1.375,-0.56 -1.737,-0.923 -0.435,1.304 -0.652,2.606 -0.652,3.91 0,2.027 0.635,3.855 1.902,5.484 1.266,1.629 2.948,2.443 5.05,2.443 1.592,0 3.203,-0.434 4.832,-1.303 1.63,-0.869 2.914,-1.629 3.856,-2.281 1.087,-0.795 1.937,-1.483 2.552,-2.063 m -14.391,-12.599 c -1.015,1.449 -1.919,3.041 -2.714,4.779 0.216,0.073 0.687,0.108 1.411,0.108 1.085,0 2.134,-0.253 3.149,-0.761 1.013,-0.505 1.9,-1.122 2.661,-1.846 0.761,-0.724 1.374,-1.502 1.846,-2.336 0.471,-0.831 0.707,-1.537 0.707,-2.118 0,-0.939 -0.508,-1.41 -1.521,-1.41 -0.724,0 -1.575,0.271 -2.553,0.813 -0.976,0.544 -1.972,1.468 -2.986,2.771 z"
   id="path3499"
   inkscape:connector-curvature="0"
   style="fill:#14a4db" />
</g>
<path
   d="m 1476.7425,341.18693 c 0,14.6047 -19.1305,26.4455 -34.1479,26.4455 -15.0162,0 -20.2337,-11.8408 -20.2337,-26.4455 0,-14.6047 5.4433,-26.4455 20.4606,-26.4455 15.0173,0 33.921,11.8398 33.921,26.4455 z"
   id="path3501"
   inkscape:connector-curvature="0"
   style="fill:#b20f70" />
<path
   d="m 1486.4649,314.93698 c 14.906,-1.77406 29.3119,15.25757 31.1349,29.75496 1.823,14.49739 -9.6276,20.97187 -24.5336,22.74494 -14.9059,1.77406 -27.6496,-2.04384 -29.4737,-16.54123 -1.8241,-14.49739 7.9665,-34.1856 22.8724,-35.95867 z"
   id="path3503"
   inkscape:connector-curvature="0"
   style="fill:#14a4db" />
<path
   d="m 1463.5925,350.89565 c 0.4083,3.24827 1.3693,5.95701 2.7758,8.19038 6.095,-4.70944 10.3742,-10.99439 10.3742,-17.8991 0,-5.50672 -2.6892,-10.61932 -6.8436,-14.85441 -4.8432,7.24167 -7.2994,16.66859 -6.3064,24.56313 z"
   id="path3505"
   inkscape:connector-curvature="0"
   style="fill:#ffffff" />
<path
   d="m 1380.1899,621.46615 c 1.5147,0 2.9335,0.13538 4.2503,0.40716 1.3167,0.27178 2.6933,0.52349 4.1317,0.75716 0.7176,-1.47621 1.8632,-3.3636 2.5036,-5.1487 0.6382,-1.7851 2.9129,-7.2517 3.6306,-8.88136 -0.4785,0.54356 -0.9786,1.06705 -1.4962,1.57149 -0.5197,0.50544 -1.059,1.02994 -1.6168,1.57149 -1.1961,1.16432 -2.6933,2.30959 -4.4895,3.43581 -1.7963,1.12421 -3.8142,1.92148 -6.0476,2.38781 0,0 -0.6321,0.23167 -1.9694,0.40416 -1.3374,0.17249 -1.8623,0.0622 -1.8623,0.0622 -2.8737,0 -5.2494,-0.5235 -7.124,-1.57249 -1.8767,-1.048 -3.3532,-2.38682 -4.4308,-4.01747 -1.0775,-1.63066 -1.8374,-3.37765 -2.2757,-5.24097 -0.4392,-1.86332 -0.6588,-3.61131 -0.6588,-5.24196 0,-4.6583 0.9764,-9.20027 2.9345,-13.6249 1.9551,-4.42564 4.2503,-8.38494 6.8859,-11.87992 -2.6356,0 -5.0298,0.0993 -7.1859,0.29183 -2.1551,0.19355 -4.0317,0.48539 -5.6269,0.87249 -0.4011,0.15645 -1.0393,0.39012 -1.9158,0.699 -0.8796,0.31189 -1.8168,0.65988 -2.8139,1.04799 -0.9992,0.39011 -1.9561,0.81533 -2.8738,1.28066 -0.9187,0.46633 -1.6158,0.89355 -2.0942,1.28065 -0.4011,-0.93166 -0.7187,-1.74598 -0.959,-2.44498 -0.2392,-0.69799 -0.4392,-1.41504 -0.598,-2.15415 -0.1609,-0.7361 -0.2392,-1.41504 -0.2392,-2.03782 0,-0.3881 0.2577,-0.89154 0.7774,-1.51432 0.5197,-0.61977 1.656,-1.24054 3.4141,-1.86332 0,-0.0762 0.4578,-0.23166 1.3776,-0.46533 0.9166,-0.23266 2.0746,-0.48338 3.4718,-0.75716 1.3961,-0.27178 2.9335,-0.52349 4.6101,-0.75716 1.6767,-0.23166 3.2728,-0.35 4.7896,-0.35 1.8365,0 3.6533,0.13739 5.4485,0.40716 1.7962,0.27378 3.611,0.60373 5.4485,0.99083 3.5914,-3.18309 7.1838,-5.49268 10.7763,-6.92978 3.5924,-1.4361 7.0652,-2.15415 10.4185,-2.15415 1.1961,0 2.3344,0.0782 3.412,0.23266 1.0785,0.15645 2.0962,0.31189 3.0542,0.46633 0.4784,0.15645 1.1971,0.36805 2.156,0.64083 0.9569,0.27178 1.9148,0.73811 2.8738,1.39699 0.9569,0.66089 1.7952,1.55544 2.5139,2.67965 0.7187,1.12622 1.0775,2.54326 1.0775,4.25013 0,2.01977 -0.4991,3.68854 -1.4962,5.0073 -0.9991,1.32077 -2.2148,2.36876 -3.6512,3.14498 -1.4384,0.77622 -2.9346,1.32077 -4.4905,1.63066 -1.557,0.31088 -2.8944,0.46532 -4.0121,0.46532 -2.0767,0 -3.9915,-0.15444 -5.7475,-0.46532 -1.756,-0.30989 -3.4327,-0.699 -5.0288,-1.16433 -1.5973,-0.46633 -3.114,-0.94971 -4.5494,-1.45616 -1.4384,-0.50444 -2.7954,-0.9116 -4.0719,-1.22249 -3.5914,3.18409 -6.626,6.9689 -9.0997,11.35442 -2.4747,4.38653 -3.7131,8.98666 -3.7131,13.8004 0,3.95931 0.8383,6.89068 2.515,8.79311 1.6755,1.90143 4.0708,2.85314 7.1838,2.85314 2.4737,0 4.8092,-0.54355 7.0055,-1.62965 2.1942,-1.0871 4.1905,-2.38782 5.9877,-3.90214 1.7952,-1.51432 3.312,-3.06676 4.5504,-4.6593 1.2363,-1.59054 2.1344,-2.89126 2.6933,-3.90114 0.796,-2.25143 1.6158,-4.4838 2.4551,-6.69712 0.8383,-2.21232 1.5962,-4.17191 2.2747,-5.88079 0.6774,-1.70687 1.2971,-3.08581 1.857,-4.1338 0.5568,-1.049 0.9971,-1.57249 1.3168,-1.57249 1.5951,0 2.9521,0.54455 4.0698,1.63065 1.1178,1.08811 1.6777,2.17421 1.6777,3.26131 0,0.46533 -0.081,0.85545 -0.2392,1.16433 -0.7187,1.32077 -1.5189,2.71876 -2.3954,4.19297 -0.8795,1.47621 -1.6972,3.00959 -2.454,4.60013 -0.76,1.59255 -1.3776,3.16404 -1.8571,4.71647 -0.4795,1.55444 -0.7177,3.02865 -0.7177,4.42563 0,0.85545 0.1197,1.53338 0.3599,2.03782 0.2392,0.50545 0.796,0.75616 1.6756,0.75616 1.3569,0 3.0531,-0.79427 5.0896,-2.38681 2.0365,-1.59054 3.8502,-4.17292 5.4485,-7.74512 v -0.11633 h 0.1196 l 0.2392,-0.11633 c 0.2392,0 0.4785,0.11633 0.7177,0.35 0.078,0.0782 0.1196,0.15645 0.1196,0.23266 -0.7187,2.79498 -1.557,5.0073 -2.5139,6.63795 -0.9569,1.63066 -2.2365,3.14398 -3.8316,4.54097 -1.5993,1.39799 -3.6729,2.09699 -6.227,2.09699 -0.7187,0 -1.4787,-0.13539 -2.2757,-0.40717 -0.7981,-0.27177 -1.557,-0.79527 -2.2747,-1.57249 -1.5178,3.33753 -6.1692,10.45987 -7.7664,13.33207 1.8364,0.30988 3.7131,0.56361 5.6289,0.75716 1.9148,0.19255 3.7512,0.29183 5.5083,0.29183 3.6708,0 6.9632,-0.44727 9.8782,-1.33982 2.9129,-0.89355 5.2092,-1.80516 6.8858,-2.73682 0.2392,-0.0782 0.7373,-0.36905 1.4962,-0.87349 0.7568,-0.50645 1.5745,-1.04799 2.4551,-1.63066 0.8775,-0.58166 1.7158,-1.18438 2.5139,-1.80515 0.796,-0.62077 1.3559,-1.12421 1.6766,-1.51432 0.078,0 0.2784,0.23266 0.598,0.69899 0.3187,0.46533 0.6383,1.048 0.959,1.74599 0.3186,0.69899 0.598,1.45616 0.8373,2.27148 0.2392,0.81533 0.3588,1.53238 0.3588,2.15415 0,1.55244 -0.8971,2.8712 -2.6933,3.95931 -1.7952,1.0861 -3.9121,1.98065 -6.3466,2.67865 -2.4345,0.69899 -4.9504,1.18337 -7.5427,1.45515 -2.5953,0.27178 -4.6906,0.40817 -6.2867,0.40817 -3.3533,-0.0782 -6.5075,-0.40817 -9.4596,-0.98983 -2.9542,-0.58266 -5.8279,-1.22349 -8.6212,-1.92149 -1.1972,2.32865 -2.814,3.95931 -4.8494,4.89097 -2.0365,0.93266 -3.8523,1.39799 -5.4475,1.39799 -0.1608,0 -0.6207,-0.0201 -1.3776,-0.0582 -0.7589,-0.0401 -1.557,-0.23266 -2.3942,-0.58266 -0.8373,-0.35 -1.5983,-0.89355 -2.2757,-1.63066 -0.6785,-0.7381 -1.0167,-1.80515 -1.0167,-3.20214 0,-1.7861 0.4795,-3.20214 1.4363,-4.25013 0.959,-1.048 1.9571,-1.72092 2.9944,-2.03782 -1.3899,0.42521 0.4795,-0.15444 1.2209,-0.20158 0.7414,-0.0471 1.2415,-0.0301 1.2415,-0.0301 z m -4.8649,6.40528 c 0,1.00889 0.3774,1.74699 1.1384,2.21332 0.7578,0.46533 1.7364,0.698 2.9335,0.698 1.0373,0 2.1345,-0.35 3.2924,-1.048 1.1559,-0.69899 2.2943,-2.01976 3.4141,-3.9593 -1.0394,-0.39011 -2.0365,-0.73811 -2.9944,-1.04799 -0.9579,-0.31189 -1.9561,-0.46633 -2.9923,-0.46633 -1.0394,0 -2.0963,0.25071 -3.1739,0.75716 -1.0795,0.50444 -1.6178,1.45616 -1.6178,2.85314 z m 30.6368,-55.72309 c -2.0767,-1.70587 -4.5905,-2.56231 -7.5427,-2.56231 -1.9973,0 -4.0708,0.37005 -6.2259,1.10716 -2.1561,0.7381 -4.272,1.76704 -6.3466,3.08581 2.3943,1.00988 4.8082,1.9616 7.2437,2.85415 2.4334,0.89355 4.8494,1.33882 7.2447,1.33882 0.5568,-0.0762 1.1961,-0.25072 1.9148,-0.5235 0.7187,-0.27177 1.3961,-0.60071 2.0364,-0.98982 0.6373,-0.38711 1.1766,-0.81433 1.6158,-1.28066 0.4383,-0.46533 0.6589,-0.93166 0.6589,-1.39799 0,-0.46633 -0.2011,-1.00888 -0.5991,-1.63166 z"
   id="path3507"
   inkscape:connector-curvature="0"
   style="fill:#c470a0" />
<path
   d="m 1441.4047,601.61246 c 0.1588,0.15645 0.2393,0.31089 0.2393,0.46533 -1.1962,2.17521 -2.5944,4.07564 -4.1905,5.70629 -1.357,1.398 -3.0934,2.67865 -5.2083,3.84298 -2.1169,1.16432 -4.572,1.74698 -7.3653,1.74698 -2.0767,0 -3.8306,-0.42822 -5.268,-1.28065 -1.4364,-0.85344 -2.5954,-1.92149 -3.4718,-3.20215 -0.8806,-1.28065 -1.4962,-2.65859 -1.8571,-4.1348 -0.3588,-1.47421 -0.5372,-2.79498 -0.5372,-3.9593 0,-2.63854 0.4393,-5.1818 1.3167,-7.62778 0.8775,-2.44498 2.0747,-4.63824 3.5915,-6.57979 1.5157,-1.94054 3.2336,-3.49397 5.1484,-4.6593 1.9158,-1.16432 3.911,-1.74599 5.9877,-1.74599 2.5541,0 4.5298,0.698 5.9269,2.09599 1.3962,1.39799 2.0963,2.91131 2.0963,4.54197 0,1.62965 -0.3609,3.18409 -1.0785,4.6583 -0.7177,1.47621 -1.6973,2.77793 -2.9336,3.90214 -1.2384,1.12621 -2.6943,2.01976 -4.3699,2.67864 -1.6776,0.65989 -3.4337,0.98983 -5.2691,0.98983 -1.2775,0 -2.3551,-0.13539 -3.2336,-0.40816 -0.8795,-0.27078 -1.5168,-0.60072 -1.9148,-0.98883 -0.4794,1.39799 -0.7187,2.79498 -0.7187,4.19297 0,2.17421 0.6991,4.13381 2.0963,5.88079 1.3962,1.74599 3.2501,2.61948 5.5671,2.61948 1.7549,0 3.5316,-0.46533 5.3278,-1.39799 1.7962,-0.93166 3.2119,-1.74598 4.2513,-2.44498 1.1972,-0.85344 2.1345,-1.59054 2.814,-2.21232 0.6774,-0.62077 1.1775,-1.14527 1.4972,-1.57249 0.3175,-0.42521 0.5382,-0.7361 0.6589,-0.93166 0.1196,-0.19255 0.2577,-0.29083 0.4186,-0.29083 0.1588,-10e-4 0.3176,0.0391 0.4784,0.11533 z m -18.9191,-10.82992 c -1.1187,1.55344 -2.1158,3.26031 -2.9923,5.12363 0.2382,0.0782 0.7568,0.11633 1.557,0.11633 1.1961,0 2.352,-0.27177 3.4718,-0.81532 1.1167,-0.54155 2.0952,-1.20244 2.9336,-1.97966 0.8383,-0.77521 1.5157,-1.60959 2.0354,-2.50415 0.5197,-0.89154 0.7795,-1.6487 0.7795,-2.27148 0,-1.00788 -0.5599,-1.51332 -1.6766,-1.51332 -0.7981,0 -1.7374,0.29083 -2.8139,0.87249 -1.0786,0.58367 -2.1767,1.57349 -3.2945,2.97148 z"
   id="path3509"
   inkscape:connector-curvature="0"
   style="fill:#c470a0" />
<path
   d="m 1456.2529,608.13408 c -1.1198,-1.55243 -1.6766,-3.6103 -1.6766,-6.17262 0,-2.09598 0.2393,-3.97736 0.7177,-5.64813 0.4795,-1.66876 1.1177,-3.55214 1.9158,-5.64812 -0.7176,1.32077 -1.6157,2.93137 -2.6933,4.8328 -1.0775,1.90243 -2.1365,3.84297 -3.1738,5.82262 -1.0383,1.98066 -1.9756,3.84398 -2.8139,5.58996 -0.8373,1.74699 -1.3776,3.0487 -1.6168,3.90214 -0.4001,1.00988 -0.7981,1.7851 -1.1961,2.32865 -0.4011,0.54255 -0.86,1.04799 -1.3776,1.51432 -0.5197,0.46633 -1.0982,0.699 -1.7364,0.699 -1.9159,0 -3.1924,-0.71905 -3.8327,-2.15415 -0.6373,-1.4361 -0.9579,-3.31948 -0.9579,-5.64913 0,-2.56232 0.3206,-5.08351 0.9579,-7.56961 0.6403,-2.48409 1.359,-4.73552 2.1561,-6.75429 0.796,-2.01876 1.5559,-3.70658 2.2746,-5.06646 0.7187,-1.35788 1.1559,-2.19326 1.3168,-2.50315 0.4794,-0.93266 0.9589,-2.03782 1.4374,-3.32048 0.4794,-1.28065 0.796,-2.19226 0.9579,-2.73681 0.2392,0 0.6774,0.19455 1.3167,0.58266 0.6383,0.38911 1.258,0.87249 1.8571,1.45516 0.598,0.58266 1.1383,1.22349 1.6158,1.92148 0.4784,0.699 0.7176,1.35888 0.7176,1.98066 0,1.32077 -0.4784,2.79498 -1.4363,4.42463 -0.959,1.63066 -2.018,3.3977 -3.1738,5.29913 -1.158,1.90243 -2.2149,3.90214 -3.1728,5.99712 -0.9579,2.09498 -1.4374,4.3093 -1.4374,6.63795 0,0.62278 0.039,1.08811 0.1196,1.39799 2.6345,-4.89096 4.9278,-8.94754 6.8848,-12.16974 1.955,-3.2212 3.6533,-5.82363 5.0897,-7.80328 1.4384,-1.97965 2.6345,-3.53108 3.5924,-4.6583 0.9579,-1.12521 1.7364,-2.05687 2.3355,-2.79498 0.5991,-0.7371 1.0559,-1.39799 1.3766,-1.98065 0.3186,-0.58167 0.5991,-1.41504 0.8372,-2.50315 0.078,0 0.4197,0.1745 1.0188,0.52349 0.598,0.349 1.2157,0.81433 1.855,1.39799 0.6383,0.58167 1.2373,1.20444 1.7962,1.86232 0.5579,0.66089 0.8373,1.33983 0.8373,2.03782 0,0.23266 -0.059,0.66089 -0.1794,1.28066 -0.1186,0.62277 -0.3403,1.0881 -0.6589,1.39799 -0.6393,1.32077 -1.4178,2.6987 -2.3345,4.1348 -0.9198,1.43811 -1.7962,2.93137 -2.6345,4.4838 -0.8383,1.55444 -1.557,3.12593 -2.1561,4.71647 -0.5991,1.59255 -0.8981,3.16403 -0.8981,4.71647 0,0.85544 0.1,1.57148 0.299,2.15415 0.199,0.58166 0.6589,0.87349 1.3776,0.87349 1.0363,0 2.4128,-0.79527 4.1307,-2.38782 1.7158,-1.59054 3.3718,-4.17191 4.97,-7.74511 l 0.2382,-0.11633 c 0.2392,0 0.4795,0.11633 0.7177,0.35 l 0.2392,0.23266 c 0,0.15645 -0.2598,0.91361 -0.7775,2.27149 -0.5207,1.35888 -1.2579,2.85314 -2.2148,4.4838 -0.959,1.63065 -2.1365,3.10687 -3.5327,4.42563 -1.3971,1.32077 -2.9748,1.97966 -4.7308,1.97966 -0.7176,0 -1.4786,-0.15445 -2.2746,-0.46533 -0.793,-0.30688 -1.5509,-0.92966 -2.2696,-1.86132 z"
   id="path3511"
   inkscape:connector-curvature="0"
   style="fill:#c470a0" />
<path
   d="m 1501.0348,606.85343 c -0.3207,0.46633 -0.7394,1.00988 -1.257,1.63065 -0.5207,0.62178 -1.1579,1.22249 -1.9158,1.80516 -0.76,0.58166 -1.6158,1.06704 -2.5747,1.45515 -0.958,0.38811 -2.0365,0.58266 -3.2326,0.58266 -0.8806,0 -1.9375,-0.25171 -3.1738,-0.75716 -1.2384,-0.50444 -2.0561,-1.49426 -2.4551,-2.96948 -0.6393,0.62178 -1.7169,1.43711 -3.2326,2.44499 -1.5178,1.00988 -3.313,1.51432 -5.3887,1.51432 -1.757,0 -3.2336,-0.40817 -4.4307,-1.22349 -1.1972,-0.81533 -2.1561,-1.80516 -2.8738,-2.96948 -0.7176,-1.16433 -1.2363,-2.42593 -1.557,-3.78481 -0.3176,-1.35788 -0.4784,-2.62048 -0.4784,-3.7848 0,-1.86232 0.4001,-3.93925 1.1961,-6.23079 0.797,-2.28854 1.955,-4.44369 3.4728,-6.46245 1.5158,-2.01877 3.3532,-3.70659 5.5083,-5.06647 2.1561,-1.35788 4.5504,-2.03782 7.1849,-2.03782 1.1971,0 2.2942,0.11633 3.2924,0.35 0.9971,0.23267 1.857,0.54355 2.5747,0.93166 1.1971,-2.94942 2.2551,-5.49268 3.1728,-7.62778 0.9166,-2.13409 1.6168,-3.74368 2.0952,-4.83279 l 0.8383,-2.44498 c 0.2392,-0.698 0.4568,-1.398 0.6589,-2.09699 0.1969,-0.69799 0.299,-1.28066 0.299,-1.74599 0.1578,0.0772 0.5991,0.25272 1.3168,0.5235 0.7176,0.27177 1.4766,0.64083 2.2746,1.10716 0.7971,0.46633 1.5158,1.02994 2.1551,1.68882 0.6383,0.65988 0.9589,1.41805 0.9589,2.27048 0,0.39012 -0.041,0.81533 -0.1196,1.28166 -0.08,0.46533 -0.2392,1.00989 -0.4784,1.63066 -0.5599,1.24255 -1.5993,3.35859 -3.114,6.34612 -1.5178,2.98953 -3.0955,6.23079 -4.7308,9.72476 -1.6364,3.49297 -3.0728,6.92878 -4.3101,10.30643 -1.2384,3.37664 -1.8571,6.03824 -1.8571,7.97677 0,1.63066 0.6775,2.44498 2.0365,2.44498 1.3559,0 3.0325,-0.79527 5.0288,-2.38681 1.9952,-1.59054 3.7914,-4.17292 5.3897,-7.74512 l 0.2392,-0.11633 c 0.3176,0 0.5981,0.11633 0.8373,0.35 l 0.2392,0.23267 c 0,0.31088 -0.2598,1.20443 -0.7795,2.67864 -0.5166,1.47421 -1.4539,3.14298 -2.8098,5.0063 z m -15.0875,-0.35 c -0.08,-0.30989 -0.1196,-0.85344 -0.1196,-1.63066 0,-2.1722 0.3186,-4.61718 0.959,-7.33594 0.6372,-2.71676 1.4363,-5.43352 2.3942,-8.15228 -1.2786,-1.00888 -2.7551,-1.51432 -4.4307,-1.51432 -1.5983,0 -3.1336,0.48538 -4.6102,1.45515 -1.4786,0.97178 -2.7747,2.21332 -3.8915,3.72765 -1.1187,1.51332 -2.0168,3.16403 -2.6933,4.94913 -0.6795,1.7871 -1.0187,3.53409 -1.0187,5.24196 0,2.25243 0.6991,3.90114 2.0963,4.94913 1.3961,1.049 2.9727,1.57249 4.7287,1.57249 1.2766,0 2.4953,-0.27177 3.6533,-0.81533 1.1549,-0.54255 2.1344,-1.35888 2.9325,-2.44698 z"
   id="path3513"
   inkscape:connector-curvature="0"
   style="fill:#c470a0" />
<path
   d="m 1507.0679,617.06859 c 0,-1.5053 2.2272,-11.207 2.6324,-12.67719 0.4053,-1.46819 0.7919,-3.02664 1.1621,-4.67535 -1.6972,-0.78825 -3.0779,-1.61261 -4.1461,-2.47306 -1.0683,-0.86046 -1.9159,-1.64871 -2.5418,-2.36475 -0.6259,-0.71605 -1.1981,-1.5043 -1.7127,-2.36475 -0.074,0 -0.1103,-0.0351 -0.1103,-0.10731 v -0.21461 c 0,-0.35702 0.2207,-0.53754 0.6641,-0.53754 0.1474,0 0.3866,0.25172 0.7176,0.75215 0.331,0.50243 0.8105,1.09412 1.4374,1.77406 0.6249,0.68295 1.4374,1.34484 2.4314,1.98868 0.994,0.64585 2.2654,1.11117 3.8131,1.39799 0.2939,-1.35988 0.6445,-2.61546 1.0507,-3.76274 0.4042,-1.14627 0.8095,-2.22034 1.2157,-3.22521 0.4042,-1.00186 0.8095,-2.02378 1.2167,-3.06375 0.4032,-1.03796 0.7899,-2.20329 1.1601,-3.49397 l 0.7733,-2.25745 c 0.2217,-0.64584 0.4238,-1.28968 0.6084,-1.93552 0.1835,-0.64484 0.2773,-1.18238 0.2773,-1.6116 -1.9168,1.07507 -3.5017,2.11403 -4.7534,3.1169 -1.2529,1.00486 -2.2479,1.88137 -2.9841,2.63452 -0.7383,0.75214 -1.29,1.34383 -1.6581,1.77406 -0.3691,0.42923 -0.5898,0.64484 -0.663,0.64484 -1.327,-1.00286 -2.2293,-2.00472 -2.7088,-3.00959 -0.4794,-1.00286 -0.7176,-1.89842 -0.7176,-2.68767 0,-0.86046 0.056,-1.52335 0.166,-1.98868 0.1093,-0.46533 0.331,-0.8765 0.663,-1.23653 0.332,-0.35602 0.7362,-0.71504 1.2167,-1.07407 0.4774,-0.35702 1.1219,-0.85945 1.9334,-1.50529 h 0.1103 c 1.0312,-0.71505 2.4696,-1.55946 4.3112,-2.52622 1.8405,-0.96776 3.9605,-1.88137 6.3558,-2.74082 2.3922,-0.86046 4.9546,-1.5755 7.6819,-2.15014 2.7253,-0.57264 5.5258,-0.86046 8.3996,-0.86046 0.9569,0 2.5417,0.0903 4.7524,0.26977 2.2108,0.17951 4.439,0.64484 6.6869,1.39699 2.2468,0.75315 4.2173,1.84627 5.9135,3.27936 1.6941,1.4351 2.5417,3.44183 2.5417,6.02019 0,1.00487 -0.1495,2.02679 -0.4423,3.06375 -0.296,1.03997 -0.6259,1.95358 -0.9951,2.74183 -1.3992,3.2252 -3.1697,6.05729 -5.3061,8.49325 -2.1376,2.43695 -4.4947,4.47878 -7.0736,6.12649 -2.5798,1.65071 -5.269,2.88624 -8.0685,3.70859 -2.8006,0.82435 -5.5258,1.23552 -8.1789,1.23552 -0.296,0 -0.5909,-0.0171 -0.8847,-0.0531 -0.2949,-0.0351 -0.5909,-0.0542 -0.8837,-0.0542 1.6199,1.93552 3.5924,3.72764 5.9125,5.37434 2.3221,1.64971 4.77,3.06475 7.3509,4.24612 2.5778,1.18238 5.2309,2.09699 7.9582,2.74083 2.7263,0.64584 5.3062,0.96676 7.7376,0.96676 1.9148,0 3.5728,-0.0903 4.9741,-0.26877 1.3982,-0.17951 2.8356,-0.8063 4.3112,-1.88137 0.7352,0.71604 1.1404,1.5755 1.2157,2.58037 0.072,1.00286 -0.1856,1.97062 -0.7744,2.90329 -0.5898,0.93065 -1.5849,1.73595 -2.9841,2.4179 -1.4003,0.68094 -3.2439,1.05702 -5.5268,1.12922 -4.274,0.14341 -8.1232,-0.35902 -11.5497,-1.50529 -3.4254,-1.14728 -6.6147,-2.70573 -9.5606,-4.67636 -2.948,-1.97162 -5.6928,-4.26216 -8.2346,-6.87964 -2.5417,-2.61446 -5.0669,-5.28509 -7.5715,-8.00786 -0.1485,0.14441 -0.2939,0.41318 -0.4413,0.8063 -0.1495,0.39513 -0.2774,0.8063 -0.3877,1.23553 -0.1104,0.42922 -0.2207,0.82435 -0.3321,1.18238 -0.1082,0.36002 -0.1649,0.64684 -0.1649,0.86045 -0.2949,1.21948 -2.5593,10.4378 -2.7428,11.22505 -0.1856,0.78925 -0.3506,1.5775 -0.497,2.36475 -0.1485,0.78926 -0.2207,1.39799 -0.2207,1.82722 -0.1495,0 -0.4609,-0.0722 -0.9394,-0.21461 -0.4805,-0.14341 -0.9775,-0.37608 -1.492,-0.699 -0.5176,-0.32192 -0.995,-0.75215 -1.4384,-1.28968 -0.4444,-0.53854 -0.6661,-1.27364 -0.6661,-2.2053 z m 15.2885,-28.85538 c -0.5156,1.00386 -0.9775,1.91747 -1.3807,2.73982 -0.4063,0.82435 -0.8125,1.65071 -1.2167,2.47306 -0.4063,0.82435 -0.793,1.70286 -1.16,2.63352 -0.3692,0.93367 -0.8115,2.04283 -1.3271,3.33251 0.5888,0.35903 1.4931,0.57364 2.7088,0.64485 1.2157,0.0722 2.2664,0.1073 3.1501,0.1073 4.4214,0 8.6026,-1.16332 12.5457,-3.49197 3.9409,-2.32865 7.1642,-5.85973 9.6709,-10.59023 0.8105,-1.5745 1.492,-3.0798 2.0447,-4.51489 0.5527,-1.4331 0.8291,-2.65157 0.8291,-3.65544 0,-0.93066 -0.3692,-1.73696 -1.1054,-2.41891 -0.7373,-0.68094 -1.656,-1.23552 -2.7634,-1.66575 -1.1044,-0.43023 -2.3025,-0.75315 -3.5914,-0.96777 -1.29,-0.21561 -2.5253,-0.32292 -3.7028,-0.32292 -1.9901,0 -3.9245,0.18052 -5.8032,0.53754 -1.8777,0.35902 -3.6471,0.82435 -5.3062,1.39799 -1.657,0.57464 -3.1686,1.20143 -4.5318,1.88137 -1.3642,0.68195 -2.5613,1.30874 -3.5924,1.88137 0.2206,0 0.6805,0.12636 1.3827,0.37607 0.6991,0.25273 1.3972,0.6288 2.0984,1.12923 0.7001,0.50143 1.3281,1.07507 1.8797,1.71991 0.5527,0.64584 0.829,1.36189 0.829,2.15014 0,0.35902 0,0.64584 0,0.86045 0,0.21462 -0.056,0.46634 -0.1649,0.75215 -0.1104,0.28682 -0.2774,0.64585 -0.4981,1.07407 -0.2206,0.43123 -0.5527,1.07607 -0.995,1.93653 z"
   id="path3515"
   inkscape:connector-curvature="0"
   style="fill:#73afbf" />
<path
   d="m 1577.2876,607.83423 c 0,0.78323 -1.4405,2.86618 -1.4405,2.86618 -1.2693,1.30673 -2.8934,2.50415 -4.8711,3.59326 -1.9797,1.09011 -4.275,1.63467 -6.8889,1.63467 -1.9416,0 -3.5832,-0.40015 -4.9267,-1.19742 -1.3436,-0.79828 -2.4273,-1.79713 -3.247,-2.99555 -0.8229,-1.19742 -1.3993,-2.4861 -1.7375,-3.86604 -0.3341,-1.37894 -0.5022,-2.61447 -0.5022,-3.70358 0,-2.46704 0.4104,-4.84583 1.2312,-7.13336 0.8208,-2.28753 1.9406,-4.33839 3.3594,-6.15357 1.4178,-1.81518 3.0253,-3.26833 4.8154,-4.35744 1.7921,-1.08911 3.6584,-1.63367 5.6,-1.63367 2.3881,0 4.2359,0.65287 5.5434,1.9596 1.3064,1.30773 1.9612,2.72377 1.9612,4.24813 0,1.52435 -0.3372,2.9785 -1.0085,4.35643 -0.6723,1.38095 -1.5879,2.59842 -2.7438,3.64942 -1.159,1.05401 -2.5201,1.8894 -4.0884,2.50516 -1.5684,0.61776 -3.2109,0.92664 -4.9278,0.92664 -1.195,0 -2.2025,-0.12636 -3.0243,-0.38209 -0.8218,-0.25272 -1.4178,-0.5616 -1.791,-0.92564 -0.4486,1.30773 -0.6723,2.61346 -0.6723,3.92119 0,2.03281 0.6547,3.86604 1.9612,5.49971 1.3054,1.63366 3.0397,2.44999 5.2072,2.44999 1.6415,0 3.3027,-0.43524 4.9824,-1.30673 1.6807,-0.87149 3.0047,-1.63366 3.976,-2.28753 1.1208,-0.79728 1.9973,-1.48725 2.6314,-2.06891 m -14.8389,-12.63507 c -1.0466,1.45315 -1.9787,3.0497 -2.7985,4.79268 0.2227,0.0732 0.7084,0.10831 1.4549,0.10831 1.1188,0 2.2005,-0.25372 3.247,-0.76318 1.0446,-0.50644 1.9592,-1.12521 2.7439,-1.85128 0.7847,-0.72608 1.4167,-1.5063 1.9034,-2.34269 0.4857,-0.83338 0.729,-1.5414 0.729,-2.12407 0,-0.94169 -0.5238,-1.41403 -1.5683,-1.41403 -0.7465,0 -1.624,0.27177 -2.6325,0.81532 -1.0063,0.54556 -2.0334,1.47221 -3.0789,2.77894 z"
   id="path3517"
   inkscape:connector-curvature="0"
   style="fill:#73afbf" />
<path
   d="m 1476.7425,518.69372 c 0,14.6047 -19.1305,26.44551 -34.1479,26.44551 -15.0162,0 -20.2337,-11.84081 -20.2337,-26.44551 0,-14.60469 5.4433,-26.4455 20.4606,-26.4455 15.0173,0 33.921,11.8398 33.921,26.4455 z"
   id="path3519"
   inkscape:connector-curvature="0"
   style="fill:#c470a0" />
<path
   d="m 1486.4649,492.44378 c 14.906,-1.77407 29.3119,15.25756 31.1349,29.75495 1.823,14.49739 -9.6276,20.97188 -24.5336,22.74494 -14.9059,1.77407 -27.6496,-2.04384 -29.4737,-16.54123 -1.8241,-14.49739 7.9665,-34.1856 22.8724,-35.95866 z"
   id="path3521"
   inkscape:connector-curvature="0"
   style="fill:#73afbf" />
<path
   d="m 1463.5925,528.40244 c 0.4083,3.24828 1.3693,5.95701 2.7758,8.19039 6.095,-4.70945 10.3742,-10.99439 10.3742,-17.89911 0,-5.50672 -2.6892,-10.61931 -6.8436,-14.85441 -4.8432,7.24168 -7.2994,16.66859 -6.3064,24.56313 z"
   id="path3523"
   inkscape:connector-curvature="0"
   style="fill:#ffffff" />
<path
   d="m 1649.9717,50.356592 c 0,14.604698 -19.1305,26.445504 -34.1479,26.445504 -15.0162,0 -20.2337,-11.840806 -20.2337,-26.445504 0,-14.604697 5.4433,-26.445503 20.4606,-26.445503 15.0173,0 33.921,11.839803 33.921,26.445503 z"
   id="path3525"
   inkscape:connector-curvature="0"
   style="fill:#be3a4a" />
<path
   d="m 1659.6941,24.106647 c 14.906,-1.774065 29.3119,15.257561 31.1349,29.754953 1.823,14.497391 -9.6276,20.971876 -24.5336,22.744938 -14.9059,1.774065 -27.6496,-2.043835 -29.4737,-16.541226 -1.8241,-14.497392 7.9665,-34.185603 22.8724,-35.958665 z"
   id="path3527"
   inkscape:connector-curvature="0"
   style="fill:#288dc1" />
<g
   id="g3529"
   transform="matrix(1.0311262,0,0,1.0028632,224.70774,22.647481)">
	<defs
   id="defs3531">
		<path
   id="SVGID_1_"
   d="m 1369.487,37.311 c 0.396,3.239 1.328,5.94 2.692,8.167 5.911,-4.696 10.061,-10.963 10.061,-17.848 0,-5.491 -2.608,-10.589 -6.637,-14.812 -4.697,7.221 -7.079,16.621 -6.116,24.493 z"
   inkscape:connector-curvature="0" />
	</defs>
	<clipPath
   id="SVGID_2_">
		<use
   xlink:href="#SVGID_1_"
   overflow="visible"
   id="use3535"
   style="overflow:visible"
   x="0"
   y="0"
   width="351"
   height="249" />
	</clipPath>
	<g
   clip-path="url(#SVGID_2_)"
   id="g3537">
		<rect
   x="1367"
   y="12"
   width="19"
   height="2"
   id="rect3539"
   style="fill:#288dc1" />
		<rect
   x="1367"
   y="14"
   width="19"
   height="2"
   id="rect3541"
   style="fill:#be3a4a" />
		<rect
   x="1367"
   y="16"
   width="19"
   height="2"
   id="rect3543"
   style="fill:#288dc1" />
		<rect
   x="1367"
   y="18"
   width="19"
   height="2"
   id="rect3545"
   style="fill:#be3a4a" />
		<rect
   x="1367"
   y="20"
   width="19"
   height="2"
   id="rect3547"
   style="fill:#288dc1" />
		<rect
   x="1367"
   y="22"
   width="19"
   height="2"
   id="rect3549"
   style="fill:#be3a4a" />
		<rect
   x="1367"
   y="24"
   width="19"
   height="2"
   id="rect3551"
   style="fill:#288dc1" />
		<rect
   x="1367"
   y="26"
   width="19"
   height="2"
   id="rect3553"
   style="fill:#be3a4a" />
		<rect
   x="1367"
   y="28"
   width="19"
   height="2"
   id="rect3555"
   style="fill:#288dc1" />
		<rect
   x="1367"
   y="30"
   width="19"
   height="2"
   id="rect3557"
   style="fill:#be3a4a" />
		<rect
   x="1367"
   y="32"
   width="19"
   height="2"
   id="rect3559"
   style="fill:#288dc1" />
		<rect
   x="1367"
   y="34"
   width="19"
   height="2"
   id="rect3561"
   style="fill:#be3a4a" />
		<rect
   x="1367"
   y="36"
   width="19"
   height="2"
   id="rect3563"
   style="fill:#288dc1" />
		<rect
   x="1367"
   y="38"
   width="19"
   height="2"
   id="rect3565"
   style="fill:#be3a4a" />
		<rect
   x="1367"
   y="40"
   width="19"
   height="2"
   id="rect3567"
   style="fill:#288dc1" />
		<rect
   x="1367"
   y="44"
   width="19"
   height="2"
   id="rect3569"
   style="fill:#288dc1" />
		<rect
   x="1367"
   y="42"
   width="19"
   height="2"
   id="rect3571"
   style="fill:#be3a4a" />
	</g>
</g>
<g
   id="g3573"
   transform="matrix(1.0311262,0,0,1.0028632,224.70774,22.647481)">
	<circle
   stroke-miterlimit="10"
   cx="1299.5129"
   cy="159.57001"
   r="10.623"
   id="circle3575"
   d="m 1310.1359,159.57001 c 0,5.86692 -4.756,10.623 -10.623,10.623 -5.8669,0 -10.623,-4.75608 -10.623,-10.623 0,-5.86692 4.7561,-10.623 10.623,-10.623 5.867,0 10.623,4.75608 10.623,10.623 z"
   sodipodi:cx="1299.5129"
   sodipodi:cy="159.57001"
   sodipodi:rx="10.623"
   sodipodi:ry="10.623"
   style="fill:none;stroke:#ffffff;stroke-width:4;stroke-miterlimit:10" />
	<path
   stroke-miterlimit="10"
   d="m 1310.945,141.271 c -2.426,3.624 -6.555,6.009 -11.242,6.009 -4.666,0 -8.78,-2.364 -11.21,-5.96"
   id="path3577"
   inkscape:connector-curvature="0"
   style="fill:none;stroke:#ffffff;stroke-width:4;stroke-miterlimit:10" />
	<line
   stroke-miterlimit="10"
   x1="1300"
   y1="170"
   x2="1300"
   y2="182"
   id="line3579"
   style="fill:none;stroke:#ffffff;stroke-width:4;stroke-miterlimit:10" />
	<line
   stroke-miterlimit="10"
   x1="1295"
   y1="177"
   x2="1305"
   y2="177"
   id="line3581"
   style="fill:none;stroke:#ffffff;stroke-width:4;stroke-miterlimit:10" />
</g>
<text
   font-size="44.0219"
   id="text3583"
   x="1521.277"
   y="332.68088"
   style="font-size:44.76571655px;fill:#7c98ab;font-family:Montserrat-Regular"
   transform="scale(1.0139932,0.98619989)">Re</text>

<path
   d="m 1704.0089,496.46927 c 1.5147,0 2.9335,0.13539 4.2503,0.40716 1.3167,0.27178 2.6933,0.5235 4.1317,0.75717 0.7176,-1.47622 1.8632,-3.36361 2.5036,-5.1487 0.6382,-1.7851 2.9129,-7.25171 3.6305,-8.88136 -0.4784,0.54355 -0.9785,1.06705 -1.4961,1.57149 -0.5197,0.50544 -1.059,1.02994 -1.6168,1.57148 -1.1961,1.16433 -2.6933,2.3096 -4.4895,3.43581 -1.7963,1.12421 -3.8142,1.92149 -6.0476,2.38782 0,0 -0.6321,0.23166 -1.9694,0.40415 -1.3374,0.1725 -1.8623,0.0622 -1.8623,0.0622 -2.8737,0 -5.2494,-0.52349 -7.124,-1.57249 -1.8767,-1.04799 -3.3532,-2.38681 -4.4308,-4.01747 -1.0775,-1.63065 -1.8374,-3.37764 -2.2757,-5.24096 -0.4392,-1.86332 -0.6588,-3.61131 -0.6588,-5.24197 0,-4.6583 0.9764,-9.20027 2.9345,-13.6249 1.9551,-4.42563 4.2503,-8.38494 6.8859,-11.87992 -2.6356,0 -5.0298,0.0993 -7.1859,0.29184 -2.1551,0.19355 -4.0317,0.48538 -5.6269,0.87249 -0.4011,0.15644 -1.0394,0.39011 -1.9158,0.69899 -0.8796,0.31189 -1.8169,0.65989 -2.814,1.048 -0.9991,0.39011 -1.956,0.81532 -2.8737,1.28065 -0.9187,0.46633 -1.6158,0.89355 -2.0942,1.28066 -0.4011,-0.93166 -0.7187,-1.74599 -0.959,-2.44498 -0.2392,-0.69799 -0.4392,-1.41504 -0.598,-2.15415 -0.1609,-0.7361 -0.2392,-1.41504 -0.2392,-2.03782 0,-0.38811 0.2577,-0.89155 0.7774,-1.51432 0.5197,-0.61977 1.656,-1.24055 3.4141,-1.86332 0,-0.0762 0.4578,-0.23167 1.3776,-0.46533 0.9166,-0.23267 2.0746,-0.48338 3.4718,-0.75716 1.3961,-0.27178 2.9335,-0.5235 4.6101,-0.75717 1.6767,-0.23166 3.2728,-0.35 4.7896,-0.35 1.8365,0 3.6533,0.1374 5.4485,0.40717 1.7962,0.27378 3.611,0.60372 5.4485,0.99083 3.5914,-3.18309 7.1838,-5.49269 10.7763,-6.92979 3.5924,-1.4361 7.0652,-2.15415 10.4185,-2.15415 1.1961,0 2.3344,0.0782 3.412,0.23267 1.0785,0.15644 2.0962,0.31189 3.0542,0.46633 0.4784,0.15644 1.1971,0.36805 2.156,0.64083 0.9569,0.27177 1.9148,0.7381 2.8738,1.39698 0.9569,0.66089 1.7952,1.55545 2.5139,2.67966 0.7187,1.12621 1.0775,2.54326 1.0775,4.25013 0,2.01977 -0.4991,3.68853 -1.4962,5.0073 -0.9991,1.32077 -2.2148,2.36876 -3.6512,3.14498 -1.4384,0.77621 -2.9346,1.32077 -4.4905,1.63065 -1.557,0.31089 -2.8944,0.46533 -4.0121,0.46533 -2.0767,0 -3.9915,-0.15444 -5.7475,-0.46533 -1.7561,-0.30988 -3.4327,-0.69899 -5.0288,-1.16432 -1.5973,-0.46633 -3.1141,-0.94971 -4.5494,-1.45616 -1.4384,-0.50444 -2.7954,-0.9116 -4.0719,-1.22249 -3.5914,3.18409 -6.626,6.9689 -9.0997,11.35442 -2.4747,4.38652 -3.7131,8.98665 -3.7131,13.8004 0,3.9593 0.8383,6.89067 2.5149,8.7931 1.6756,1.90143 4.0709,2.85315 7.1839,2.85315 2.4737,0 4.8092,-0.54355 7.0055,-1.62965 2.1942,-1.08711 4.1905,-2.38782 5.9877,-3.90215 1.7952,-1.51432 3.312,-3.06675 4.5504,-4.6593 1.2363,-1.59054 2.1344,-2.89125 2.6933,-3.90114 0.796,-2.25142 1.6158,-4.4838 2.4551,-6.69712 0.8383,-2.21231 1.5962,-4.17191 2.2747,-5.88079 0.6774,-1.70687 1.2971,-3.08581 1.857,-4.1338 0.5568,-1.04899 0.9971,-1.57249 1.3168,-1.57249 1.5951,0 2.9521,0.54456 4.0698,1.63066 1.1178,1.0881 1.6777,2.1742 1.6777,3.26131 0,0.46533 -0.081,0.85544 -0.2393,1.16432 -0.7187,1.32077 -1.5188,2.71876 -2.3953,4.19297 -0.8795,1.47622 -1.6972,3.0096 -2.454,4.60014 -0.76,1.59254 -1.3776,3.16403 -1.8571,4.71646 -0.4795,1.55444 -0.7177,3.02865 -0.7177,4.42564 0,0.85544 0.1196,1.53338 0.3599,2.03782 0.2392,0.50544 0.796,0.75616 1.6756,0.75616 1.3569,0 3.0531,-0.79427 5.0896,-2.38682 2.0365,-1.59054 3.8502,-4.17291 5.4485,-7.74511 v -0.11633 h 0.1196 l 0.2392,-0.11634 c 0.2392,0 0.4785,0.11634 0.7177,0.35 0.078,0.0782 0.1196,0.15645 0.1196,0.23267 -0.7187,2.79498 -1.557,5.00729 -2.5139,6.63795 -0.9569,1.63066 -2.2365,3.14398 -3.8317,4.54096 -1.5992,1.398 -3.6728,2.09699 -6.2269,2.09699 -0.7187,0 -1.4787,-0.13539 -2.2757,-0.40716 -0.7981,-0.27178 -1.557,-0.79527 -2.2747,-1.57249 -1.5178,3.33753 -6.1692,10.45986 -7.7664,13.33206 1.8364,0.30989 3.7131,0.56361 5.6289,0.75717 1.9148,0.19254 3.7512,0.29183 5.5083,0.29183 3.6708,0 6.9632,-0.44728 9.8782,-1.33983 2.9129,-0.89355 5.2092,-1.80515 6.8858,-2.73681 0.2392,-0.0782 0.7373,-0.36905 1.4962,-0.87349 0.7568,-0.50645 1.5745,-1.048 2.4551,-1.63066 0.8775,-0.58166 1.7158,-1.18438 2.5139,-1.80515 0.796,-0.62078 1.3559,-1.12421 1.6766,-1.51433 0.078,0 0.2784,0.23267 0.598,0.699 0.3187,0.46533 0.6383,1.04799 0.959,1.74598 0.3186,0.699 0.598,1.45616 0.8373,2.27149 0.2392,0.81533 0.3588,1.53237 0.3588,2.15415 0,1.55243 -0.8971,2.8712 -2.6933,3.9593 -1.7952,1.0861 -3.9121,1.98066 -6.3466,2.67865 -2.4345,0.699 -4.9504,1.18338 -7.5427,1.45515 -2.5953,0.27178 -4.6906,0.40817 -6.2868,0.40817 -3.3532,-0.0782 -6.5074,-0.40817 -9.4595,-0.98983 -2.9542,-0.58266 -5.8279,-1.22349 -8.6213,-1.92148 -1.1971,2.32865 -2.8139,3.9593 -4.8493,4.89096 -2.0365,0.93267 -3.8523,1.39799 -5.4475,1.39799 -0.1608,0 -0.6207,-0.0201 -1.3776,-0.0582 -0.7589,-0.0401 -1.557,-0.23267 -2.3942,-0.58267 -0.8373,-0.35 -1.5983,-0.89355 -2.2757,-1.63065 -0.6785,-0.73811 -1.0167,-1.80516 -1.0167,-3.20214 0,-1.7861 0.4795,-3.20215 1.4363,-4.25014 0.959,-1.04799 1.9571,-1.72091 2.9944,-2.03782 -1.3899,0.42522 0.4795,-0.15444 1.2209,-0.20157 0.7414,-0.0471 1.2415,-0.0301 1.2415,-0.0301 z m -4.8649,6.40429 c 0,1.00888 0.3774,1.74698 1.1384,2.21332 0.7578,0.46532 1.7364,0.69799 2.9335,0.69799 1.0373,0 2.1345,-0.35 3.2924,-1.04799 1.1559,-0.699 2.2943,-2.01977 3.4141,-3.95931 -1.0394,-0.39011 -2.0365,-0.7381 -2.9944,-1.04799 -0.9579,-0.31189 -1.9561,-0.46633 -2.9924,-0.46633 -1.0393,0 -2.0962,0.25071 -3.1738,0.75716 -1.0796,0.50544 -1.6178,1.45616 -1.6178,2.85315 z m 30.6368,-55.7231 c -2.0767,-1.70587 -4.5906,-2.56231 -7.5427,-2.56231 -1.9973,0 -4.0709,0.37005 -6.2259,1.10716 -2.1561,0.73811 -4.272,1.76704 -6.3466,3.08581 2.3943,1.00988 4.8082,1.9616 7.2437,2.85415 2.4334,0.89355 4.8494,1.33882 7.2447,1.33882 0.5568,-0.0762 1.1961,-0.25072 1.9148,-0.52349 0.7187,-0.27178 1.3961,-0.60072 2.0364,-0.98983 0.6373,-0.38711 1.1766,-0.81433 1.6158,-1.28066 0.4382,-0.46533 0.6589,-0.93166 0.6589,-1.39799 0,-0.46633 -0.2011,-1.00888 -0.5991,-1.63166 z"
   id="path3585"
   inkscape:connector-curvature="0"
   style="fill:#be3a4a" />
<path
   d="m 1765.2237,476.61559 c 0.1588,0.15645 0.2392,0.31089 0.2392,0.46533 -1.1961,2.17521 -2.5943,4.07563 -4.1905,5.70629 -1.3569,1.39799 -3.0933,2.67865 -5.2082,3.84297 -2.1169,1.16433 -4.572,1.74699 -7.3653,1.74699 -2.0767,0 -3.8306,-0.42822 -5.268,-1.28066 -1.4364,-0.85343 -2.5954,-1.92148 -3.4718,-3.20214 -0.8806,-1.28066 -1.4962,-2.65859 -1.8571,-4.13481 -0.3588,-1.4742 -0.5372,-2.79498 -0.5372,-3.9593 0,-2.63853 0.4393,-5.18179 1.3167,-7.62778 0.8775,-2.44498 2.0747,-4.63824 3.5915,-6.57978 1.5157,-1.94054 3.2336,-3.49398 5.1484,-4.65931 1.9158,-1.16432 3.911,-1.74598 5.9877,-1.74598 2.5541,0 4.5298,0.69799 5.9269,2.09598 1.3962,1.39799 2.0963,2.91132 2.0963,4.54197 0,1.62965 -0.3609,3.18409 -1.0785,4.6583 -0.7177,1.47622 -1.6973,2.77793 -2.9336,3.90214 -1.2384,1.12622 -2.6943,2.01977 -4.3699,2.67865 -1.6777,0.65988 -3.4337,0.98983 -5.2691,0.98983 -1.2775,0 -2.3551,-0.13539 -3.2336,-0.40817 -0.8795,-0.27077 -1.5168,-0.60071 -1.9148,-0.98882 -0.4795,1.39799 -0.7187,2.79498 -0.7187,4.19297 0,2.17421 0.6991,4.1338 2.0963,5.88079 1.3961,1.74598 3.2501,2.61948 5.5671,2.61948 1.7549,0 3.5316,-0.46533 5.3278,-1.39799 1.7962,-0.93166 3.2119,-1.74599 4.2513,-2.44498 1.1972,-0.85344 2.1344,-1.59055 2.814,-2.21232 0.6774,-0.62077 1.1775,-1.14527 1.4972,-1.57249 0.3175,-0.42521 0.5382,-0.7361 0.6588,-0.93166 0.1197,-0.19255 0.2578,-0.29083 0.4187,-0.29083 0.1588,-0.001 0.3176,0.0391 0.4784,0.11533 z m -18.9191,-10.83092 c -1.1188,1.55343 -2.1159,3.2603 -2.9923,5.12362 0.2382,0.0782 0.7568,0.11634 1.557,0.11634 1.1961,0 2.352,-0.27178 3.4718,-0.81533 1.1167,-0.54155 2.0952,-1.20244 2.9335,-1.97965 0.8384,-0.77522 1.5158,-1.6096 2.0355,-2.50415 0.5197,-0.89155 0.7795,-1.64871 0.7795,-2.27149 0,-1.00788 -0.5599,-1.51332 -1.6766,-1.51332 -0.7981,0 -1.7374,0.29083 -2.8139,0.87249 -1.0796,0.58367 -2.1767,1.5745 -3.2945,2.97149 z"
   id="path3587"
   inkscape:connector-curvature="0"
   style="fill:#be3a4a" />
<path
   d="m 1780.0719,483.13721 c -1.1198,-1.55243 -1.6766,-3.61031 -1.6766,-6.17263 0,-2.09598 0.2393,-3.97735 0.7177,-5.64812 0.4795,-1.66877 1.1177,-3.55214 1.9158,-5.64813 -0.7176,1.32077 -1.6157,2.93137 -2.6933,4.8328 -1.0775,1.90243 -2.1365,3.84297 -3.1738,5.82263 -1.0383,1.98065 -1.9756,3.84397 -2.8139,5.58995 -0.8373,1.74699 -1.3776,3.04871 -1.6168,3.90215 -0.4001,1.00988 -0.7981,1.78509 -1.1961,2.32864 -0.4011,0.54255 -0.86,1.048 -1.3776,1.51433 -0.5197,0.46633 -1.0982,0.69899 -1.7364,0.69899 -1.9159,0 -3.1924,-0.71905 -3.8327,-2.15415 -0.6373,-1.4361 -0.958,-3.31947 -0.958,-5.64913 0,-2.56231 0.3207,-5.08351 0.958,-7.56961 0.6403,-2.48409 1.359,-4.73552 2.1561,-6.75428 0.796,-2.01876 1.5559,-3.70658 2.2746,-5.06647 0.7187,-1.35787 1.1559,-2.19326 1.3168,-2.50314 0.4794,-0.93267 0.9589,-2.03782 1.4374,-3.32048 0.4794,-1.28066 0.796,-2.19226 0.9579,-2.73682 0.2392,0 0.6774,0.19456 1.3167,0.58267 0.6383,0.38911 1.258,0.87249 1.8571,1.45515 0.598,0.58266 1.1383,1.22349 1.6158,1.92149 0.4784,0.69899 0.7176,1.35888 0.7176,1.98065 0,1.32077 -0.4784,2.79498 -1.4363,4.42463 -0.959,1.63066 -2.018,3.39771 -3.1739,5.29913 -1.1579,1.90244 -2.2148,3.90214 -3.1727,5.99713 -0.9579,2.09498 -1.4374,4.3093 -1.4374,6.63795 0,0.62278 0.039,1.0881 0.1196,1.39799 2.6345,-4.89096 4.9277,-8.94755 6.8848,-12.16975 1.955,-3.22119 3.6533,-5.82362 5.0897,-7.80327 1.4384,-1.97966 2.6345,-3.53109 3.5924,-4.6583 0.9579,-1.12522 1.7364,-2.05688 2.3355,-2.79498 0.5991,-0.73711 1.0559,-1.398 1.3766,-1.98066 0.3186,-0.58166 0.599,-1.41504 0.8372,-2.50315 0.078,0 0.4197,0.1745 1.0188,0.5235 0.598,0.34899 1.2157,0.81432 1.855,1.39799 0.6383,0.58166 1.2373,1.20444 1.7962,1.86232 0.5578,0.66088 0.8373,1.33982 0.8373,2.03781 0,0.23267 -0.059,0.66089 -0.1794,1.28066 -0.1186,0.62278 -0.3403,1.08811 -0.6589,1.39799 -0.6393,1.32077 -1.4178,2.69871 -2.3345,4.13481 -0.9198,1.4381 -1.7962,2.93137 -2.6345,4.4838 -0.8383,1.55444 -1.557,3.12592 -2.1561,4.71647 -0.5991,1.59254 -0.8981,3.16403 -0.8981,4.71646 0,0.85544 0.1,1.57149 0.299,2.15415 0.199,0.58166 0.6589,0.8735 1.3776,0.8735 1.0363,0 2.4128,-0.79528 4.1307,-2.38782 1.7158,-1.59054 3.3718,-4.17191 4.97,-7.74511 l 0.2382,-0.11634 c 0.2392,0 0.4795,0.11634 0.7177,0.35 l 0.2392,0.23267 c 0,0.15644 -0.2599,0.9136 -0.7775,2.27148 -0.5207,1.35888 -1.258,2.85315 -2.2148,4.4838 -0.959,1.63066 -2.1365,3.10687 -3.5327,4.42564 -1.3972,1.32077 -2.9748,1.97965 -4.7308,1.97965 -0.7176,0 -1.4786,-0.15444 -2.2747,-0.46533 -0.7929,-0.30687 -1.5508,-0.92965 -2.2695,-1.86131 z"
   id="path3589"
   inkscape:connector-curvature="0"
   style="fill:#be3a4a" />
<path
   d="m 1824.8538,481.85555 c -0.3207,0.46633 -0.7394,1.00988 -1.257,1.63065 -0.5207,0.62178 -1.1579,1.22249 -1.9158,1.80516 -0.76,0.58166 -1.6158,1.06704 -2.5747,1.45515 -0.958,0.38811 -2.0365,0.58267 -3.2326,0.58267 -0.8806,0 -1.9375,-0.25172 -3.1738,-0.75717 -1.2384,-0.50444 -2.0561,-1.49426 -2.4551,-2.96947 -0.6393,0.62177 -1.7169,1.4371 -3.2326,2.44498 -1.5178,1.00988 -3.313,1.51432 -5.3887,1.51432 -1.757,0 -3.2336,-0.40816 -4.4307,-1.22349 -1.1972,-0.81533 -2.1561,-1.80516 -2.8738,-2.96948 -0.7177,-1.16432 -1.2363,-2.42593 -1.557,-3.78481 -0.3176,-1.35787 -0.4784,-2.62048 -0.4784,-3.7848 0,-1.86232 0.4,-3.93925 1.1961,-6.23079 0.797,-2.28854 1.955,-4.44369 3.4728,-6.46245 1.5158,-2.01877 3.3532,-3.70658 5.5083,-5.06647 2.1561,-1.35787 4.5503,-2.03782 7.1849,-2.03782 1.1971,0 2.2942,0.11634 3.2924,0.35 0.9971,0.23267 1.857,0.54356 2.5747,0.93166 1.1971,-2.94942 2.2551,-5.49268 3.1728,-7.62777 0.9166,-2.1341 1.6168,-3.74369 2.0952,-4.8328 l 0.8383,-2.44498 c 0.2392,-0.698 0.4568,-1.39799 0.6589,-2.09699 0.1969,-0.69799 0.299,-1.28066 0.299,-1.74598 0.1578,0.0772 0.5991,0.25272 1.3168,0.52349 0.7176,0.27178 1.4765,0.64083 2.2746,1.10716 0.7971,0.46633 1.5158,1.02994 2.1551,1.68882 0.6383,0.65989 0.9589,1.41805 0.9589,2.27048 0,0.39012 -0.041,0.81533 -0.1196,1.28166 -0.08,0.46533 -0.2392,1.00989 -0.4784,1.63066 -0.5599,1.24255 -1.5993,3.35859 -3.114,6.34612 -1.5178,2.98953 -3.0955,6.23079 -4.7308,9.72476 -1.6364,3.49298 -3.0728,6.92879 -4.3101,10.30643 -1.2384,3.37664 -1.8571,6.03824 -1.8571,7.97677 0,1.63066 0.6775,2.44498 2.0365,2.44498 1.3559,0 3.0325,-0.79527 5.0288,-2.38681 1.9952,-1.59054 3.7914,-4.17291 5.3897,-7.74511 l 0.2392,-0.11634 c 0.3176,0 0.5981,0.11634 0.8373,0.35 l 0.2392,0.23267 c 0,0.31089 -0.2598,1.20444 -0.7795,2.67865 -0.5166,1.4742 -1.4539,3.14297 -2.8098,5.00629 z m -15.0875,-0.349 c -0.08,-0.30988 -0.1196,-0.85343 -0.1196,-1.63065 0,-2.1722 0.3186,-4.61719 0.9589,-7.33595 0.6373,-2.71675 1.4364,-5.43351 2.3943,-8.15227 -1.2786,-1.00888 -2.7551,-1.51433 -4.4307,-1.51433 -1.5983,0 -3.1336,0.48539 -4.6102,1.45516 -1.4786,0.97177 -2.7748,2.21332 -3.8915,3.72764 -1.1187,1.51332 -2.0168,3.16403 -2.6933,4.94913 -0.6795,1.7871 -1.0187,3.53409 -1.0187,5.24197 0,2.25243 0.6991,3.90113 2.0963,4.94913 1.3961,1.04899 2.9727,1.57249 4.7287,1.57249 1.2765,0 2.4953,-0.27178 3.6533,-0.81533 1.1549,-0.54355 2.1344,-1.35888 2.9325,-2.44699 z"
   id="path3591"
   inkscape:connector-curvature="0"
   style="fill:#be3a4a" />
<path
   d="m 1704.0089,496.46927 c 1.5147,0 2.9335,0.13539 4.2503,0.40716 1.3167,0.27178 2.6933,0.5235 4.1317,0.75717 0.7176,-1.47622 1.8632,-3.36361 2.5036,-5.1487 0.6382,-1.7851 2.9129,-7.25171 3.6305,-8.88136 -0.4784,0.54355 -0.9785,1.06705 -1.4961,1.57149 -0.5197,0.50544 -1.059,1.02994 -1.6168,1.57148 -1.1961,1.16433 -2.6933,2.3096 -4.4895,3.43581 -1.7963,1.12421 -3.8142,1.92149 -6.0476,2.38782 0,0 -0.6321,0.23166 -1.9694,0.40415 -1.3374,0.1725 -1.8623,0.0622 -1.8623,0.0622 -2.8737,0 -5.2494,-0.52349 -7.124,-1.57249 -1.8767,-1.04799 -3.3532,-2.38681 -4.4308,-4.01747 -1.0775,-1.63065 -1.8374,-3.37764 -2.2757,-5.24096 -0.4392,-1.86332 -0.6588,-3.61131 -0.6588,-5.24197 0,-4.6583 0.9764,-9.20027 2.9345,-13.6249 1.9551,-4.42563 4.2503,-8.38494 6.8859,-11.87992 -2.6356,0 -5.0298,0.0993 -7.1859,0.29184 -2.1551,0.19355 -4.0317,0.48538 -5.6269,0.87249 -0.4011,0.15644 -1.0394,0.39011 -1.9158,0.69899 -0.8796,0.31189 -1.8169,0.65989 -2.814,1.048 -0.9991,0.39011 -1.956,0.81532 -2.8737,1.28065 -0.9187,0.46633 -1.6158,0.89355 -2.0942,1.28066 -0.4011,-0.93166 -0.7187,-1.74599 -0.959,-2.44498 -0.2392,-0.69799 -0.4392,-1.41504 -0.598,-2.15415 -0.1609,-0.7361 -0.2392,-1.41504 -0.2392,-2.03782 0,-0.38811 0.2577,-0.89155 0.7774,-1.51432 0.5197,-0.61977 1.656,-1.24055 3.4141,-1.86332 0,-0.0762 0.4578,-0.23167 1.3776,-0.46533 0.9166,-0.23267 2.0746,-0.48338 3.4718,-0.75716 1.3961,-0.27178 2.9335,-0.5235 4.6101,-0.75717 1.6767,-0.23166 3.2728,-0.35 4.7896,-0.35 1.8365,0 3.6533,0.1374 5.4485,0.40717 1.7962,0.27378 3.611,0.60372 5.4485,0.99083 3.5914,-3.18309 7.1838,-5.49269 10.7763,-6.92979 3.5924,-1.4361 7.0652,-2.15415 10.4185,-2.15415 1.1961,0 2.3344,0.0782 3.412,0.23267 1.0785,0.15644 2.0962,0.31189 3.0542,0.46633 0.4784,0.15644 1.1971,0.36805 2.156,0.64083 0.9569,0.27177 1.9148,0.7381 2.8738,1.39698 0.9569,0.66089 1.7952,1.55545 2.5139,2.67966 0.7187,1.12621 1.0775,2.54326 1.0775,4.25013 0,2.01977 -0.4991,3.68853 -1.4962,5.0073 -0.9991,1.32077 -2.2148,2.36876 -3.6512,3.14498 -1.4384,0.77621 -2.9346,1.32077 -4.4905,1.63065 -1.557,0.31089 -2.8944,0.46533 -4.0121,0.46533 -2.0767,0 -3.9915,-0.15444 -5.7475,-0.46533 -1.7561,-0.30988 -3.4327,-0.69899 -5.0288,-1.16432 -1.5973,-0.46633 -3.1141,-0.94971 -4.5494,-1.45616 -1.4384,-0.50444 -2.7954,-0.9116 -4.0719,-1.22249 -3.5914,3.18409 -6.626,6.9689 -9.0997,11.35442 -2.4747,4.38652 -3.7131,8.98665 -3.7131,13.8004 0,3.9593 0.8383,6.89067 2.5149,8.7931 1.6756,1.90143 4.0709,2.85315 7.1839,2.85315 2.4737,0 4.8092,-0.54355 7.0055,-1.62965 2.1942,-1.08711 4.1905,-2.38782 5.9877,-3.90215 1.7952,-1.51432 3.312,-3.06675 4.5504,-4.6593 1.2363,-1.59054 2.1344,-2.89125 2.6933,-3.90114 0.796,-2.25142 1.6158,-4.4838 2.4551,-6.69712 0.8383,-2.21231 1.5962,-4.17191 2.2747,-5.88079 0.6774,-1.70687 1.2971,-3.08581 1.857,-4.1338 0.5568,-1.04899 0.9971,-1.57249 1.3168,-1.57249 1.5951,0 2.9521,0.54456 4.0698,1.63066 1.1178,1.0881 1.6777,2.1742 1.6777,3.26131 0,0.46533 -0.081,0.85544 -0.2393,1.16432 -0.7187,1.32077 -1.5188,2.71876 -2.3953,4.19297 -0.8795,1.47622 -1.6972,3.0096 -2.454,4.60014 -0.76,1.59254 -1.3776,3.16403 -1.8571,4.71646 -0.4795,1.55444 -0.7177,3.02865 -0.7177,4.42564 0,0.85544 0.1196,1.53338 0.3599,2.03782 0.2392,0.50544 0.796,0.75616 1.6756,0.75616 1.3569,0 3.0531,-0.79427 5.0896,-2.38682 2.0365,-1.59054 3.8502,-4.17291 5.4485,-7.74511 v -0.11633 h 0.1196 l 0.2392,-0.11634 c 0.2392,0 0.4785,0.11634 0.7177,0.35 0.078,0.0782 0.1196,0.15645 0.1196,0.23267 -0.7187,2.79498 -1.557,5.00729 -2.5139,6.63795 -0.9569,1.63066 -2.2365,3.14398 -3.8317,4.54096 -1.5992,1.398 -3.6728,2.09699 -6.2269,2.09699 -0.7187,0 -1.4787,-0.13539 -2.2757,-0.40716 -0.7981,-0.27178 -1.557,-0.79527 -2.2747,-1.57249 -1.5178,3.33753 -6.1692,10.45986 -7.7664,13.33206 1.8364,0.30989 3.7131,0.56361 5.6289,0.75717 1.9148,0.19254 3.7512,0.29183 5.5083,0.29183 3.6708,0 6.9632,-0.44728 9.8782,-1.33983 2.9129,-0.89355 5.2092,-1.80515 6.8858,-2.73681 0.2392,-0.0782 0.7373,-0.36905 1.4962,-0.87349 0.7568,-0.50645 1.5745,-1.048 2.4551,-1.63066 0.8775,-0.58166 1.7158,-1.18438 2.5139,-1.80515 0.796,-0.62078 1.3559,-1.12421 1.6766,-1.51433 0.078,0 0.2784,0.23267 0.598,0.699 0.3187,0.46533 0.6383,1.04799 0.959,1.74598 0.3186,0.699 0.598,1.45616 0.8373,2.27149 0.2392,0.81533 0.3588,1.53237 0.3588,2.15415 0,1.55243 -0.8971,2.8712 -2.6933,3.9593 -1.7952,1.0861 -3.9121,1.98066 -6.3466,2.67865 -2.4345,0.699 -4.9504,1.18338 -7.5427,1.45515 -2.5953,0.27178 -4.6906,0.40817 -6.2868,0.40817 -3.3532,-0.0782 -6.5074,-0.40817 -9.4595,-0.98983 -2.9542,-0.58266 -5.8279,-1.22349 -8.6213,-1.92148 -1.1971,2.32865 -2.8139,3.9593 -4.8493,4.89096 -2.0365,0.93267 -3.8523,1.39799 -5.4475,1.39799 -0.1608,0 -0.6207,-0.0201 -1.3776,-0.0582 -0.7589,-0.0401 -1.557,-0.23267 -2.3942,-0.58267 -0.8373,-0.35 -1.5983,-0.89355 -2.2757,-1.63065 -0.6785,-0.73811 -1.0167,-1.80516 -1.0167,-3.20214 0,-1.7861 0.4795,-3.20215 1.4363,-4.25014 0.959,-1.04799 1.9571,-1.72091 2.9944,-2.03782 -1.3899,0.42522 0.4795,-0.15444 1.2209,-0.20157 0.7414,-0.0471 1.2415,-0.0301 1.2415,-0.0301 z m -4.8649,6.40429 c 0,1.00888 0.3774,1.74698 1.1384,2.21332 0.7578,0.46532 1.7364,0.69799 2.9335,0.69799 1.0373,0 2.1345,-0.35 3.2924,-1.04799 1.1559,-0.699 2.2943,-2.01977 3.4141,-3.95931 -1.0394,-0.39011 -2.0365,-0.7381 -2.9944,-1.04799 -0.9579,-0.31189 -1.9561,-0.46633 -2.9924,-0.46633 -1.0393,0 -2.0962,0.25071 -3.1738,0.75716 -1.0796,0.50544 -1.6178,1.45616 -1.6178,2.85315 z m 30.6368,-55.7231 c -2.0767,-1.70587 -4.5906,-2.56231 -7.5427,-2.56231 -1.9973,0 -4.0709,0.37005 -6.2259,1.10716 -2.1561,0.73811 -4.272,1.76704 -6.3466,3.08581 2.3943,1.00988 4.8082,1.9616 7.2437,2.85415 2.4334,0.89355 4.8494,1.33882 7.2447,1.33882 0.5568,-0.0762 1.1961,-0.25072 1.9148,-0.52349 0.7187,-0.27178 1.3961,-0.60072 2.0364,-0.98983 0.6373,-0.38711 1.1766,-0.81433 1.6158,-1.28066 0.4382,-0.46533 0.6589,-0.93166 0.6589,-1.39799 0,-0.46633 -0.2011,-1.00888 -0.5991,-1.63166 z"
   id="path3593"
   inkscape:connector-curvature="0"
   style="fill:#be3a4a" />
<path
   d="m 1765.2237,476.61559 c 0.1588,0.15645 0.2392,0.31089 0.2392,0.46533 -1.1961,2.17521 -2.5943,4.07563 -4.1905,5.70629 -1.3569,1.39799 -3.0933,2.67865 -5.2082,3.84297 -2.1169,1.16433 -4.572,1.74699 -7.3653,1.74699 -2.0767,0 -3.8306,-0.42822 -5.268,-1.28066 -1.4364,-0.85343 -2.5954,-1.92148 -3.4718,-3.20214 -0.8806,-1.28066 -1.4962,-2.65859 -1.8571,-4.13481 -0.3588,-1.4742 -0.5372,-2.79498 -0.5372,-3.9593 0,-2.63853 0.4393,-5.18179 1.3167,-7.62778 0.8775,-2.44498 2.0747,-4.63824 3.5915,-6.57978 1.5157,-1.94054 3.2336,-3.49398 5.1484,-4.65931 1.9158,-1.16432 3.911,-1.74598 5.9877,-1.74598 2.5541,0 4.5298,0.69799 5.9269,2.09598 1.3962,1.39799 2.0963,2.91132 2.0963,4.54197 0,1.62965 -0.3609,3.18409 -1.0785,4.6583 -0.7177,1.47622 -1.6973,2.77793 -2.9336,3.90214 -1.2384,1.12622 -2.6943,2.01977 -4.3699,2.67865 -1.6777,0.65988 -3.4337,0.98983 -5.2691,0.98983 -1.2775,0 -2.3551,-0.13539 -3.2336,-0.40817 -0.8795,-0.27077 -1.5168,-0.60071 -1.9148,-0.98882 -0.4795,1.39799 -0.7187,2.79498 -0.7187,4.19297 0,2.17421 0.6991,4.1338 2.0963,5.88079 1.3961,1.74598 3.2501,2.61948 5.5671,2.61948 1.7549,0 3.5316,-0.46533 5.3278,-1.39799 1.7962,-0.93166 3.2119,-1.74599 4.2513,-2.44498 1.1972,-0.85344 2.1344,-1.59055 2.814,-2.21232 0.6774,-0.62077 1.1775,-1.14527 1.4972,-1.57249 0.3175,-0.42521 0.5382,-0.7361 0.6588,-0.93166 0.1197,-0.19255 0.2578,-0.29083 0.4187,-0.29083 0.1588,-0.001 0.3176,0.0391 0.4784,0.11533 z m -18.9191,-10.83092 c -1.1188,1.55343 -2.1159,3.2603 -2.9923,5.12362 0.2382,0.0782 0.7568,0.11634 1.557,0.11634 1.1961,0 2.352,-0.27178 3.4718,-0.81533 1.1167,-0.54155 2.0952,-1.20244 2.9335,-1.97965 0.8384,-0.77522 1.5158,-1.6096 2.0355,-2.50415 0.5197,-0.89155 0.7795,-1.64871 0.7795,-2.27149 0,-1.00788 -0.5599,-1.51332 -1.6766,-1.51332 -0.7981,0 -1.7374,0.29083 -2.8139,0.87249 -1.0796,0.58367 -2.1767,1.5745 -3.2945,2.97149 z"
   id="path3595"
   inkscape:connector-curvature="0"
   style="fill:#be3a4a" />
<path
   d="m 1780.0719,483.13721 c -1.1198,-1.55243 -1.6766,-3.61031 -1.6766,-6.17263 0,-2.09598 0.2393,-3.97735 0.7177,-5.64812 0.4795,-1.66877 1.1177,-3.55214 1.9158,-5.64813 -0.7176,1.32077 -1.6157,2.93137 -2.6933,4.8328 -1.0775,1.90243 -2.1365,3.84297 -3.1738,5.82263 -1.0383,1.98065 -1.9756,3.84397 -2.8139,5.58995 -0.8373,1.74699 -1.3776,3.04871 -1.6168,3.90215 -0.4001,1.00988 -0.7981,1.78509 -1.1961,2.32864 -0.4011,0.54255 -0.86,1.048 -1.3776,1.51433 -0.5197,0.46633 -1.0982,0.69899 -1.7364,0.69899 -1.9159,0 -3.1924,-0.71905 -3.8327,-2.15415 -0.6373,-1.4361 -0.958,-3.31947 -0.958,-5.64913 0,-2.56231 0.3207,-5.08351 0.958,-7.56961 0.6403,-2.48409 1.359,-4.73552 2.1561,-6.75428 0.796,-2.01876 1.5559,-3.70658 2.2746,-5.06647 0.7187,-1.35787 1.1559,-2.19326 1.3168,-2.50314 0.4794,-0.93267 0.9589,-2.03782 1.4374,-3.32048 0.4794,-1.28066 0.796,-2.19226 0.9579,-2.73682 0.2392,0 0.6774,0.19456 1.3167,0.58267 0.6383,0.38911 1.258,0.87249 1.8571,1.45515 0.598,0.58266 1.1383,1.22349 1.6158,1.92149 0.4784,0.69899 0.7176,1.35888 0.7176,1.98065 0,1.32077 -0.4784,2.79498 -1.4363,4.42463 -0.959,1.63066 -2.018,3.39771 -3.1739,5.29913 -1.1579,1.90244 -2.2148,3.90214 -3.1727,5.99713 -0.9579,2.09498 -1.4374,4.3093 -1.4374,6.63795 0,0.62278 0.039,1.0881 0.1196,1.39799 2.6345,-4.89096 4.9277,-8.94755 6.8848,-12.16975 1.955,-3.22119 3.6533,-5.82362 5.0897,-7.80327 1.4384,-1.97966 2.6345,-3.53109 3.5924,-4.6583 0.9579,-1.12522 1.7364,-2.05688 2.3355,-2.79498 0.5991,-0.73711 1.0559,-1.398 1.3766,-1.98066 0.3186,-0.58166 0.599,-1.41504 0.8372,-2.50315 0.078,0 0.4197,0.1745 1.0188,0.5235 0.598,0.34899 1.2157,0.81432 1.855,1.39799 0.6383,0.58166 1.2373,1.20444 1.7962,1.86232 0.5578,0.66088 0.8373,1.33982 0.8373,2.03781 0,0.23267 -0.059,0.66089 -0.1794,1.28066 -0.1186,0.62278 -0.3403,1.08811 -0.6589,1.39799 -0.6393,1.32077 -1.4178,2.69871 -2.3345,4.13481 -0.9198,1.4381 -1.7962,2.93137 -2.6345,4.4838 -0.8383,1.55444 -1.557,3.12592 -2.1561,4.71647 -0.5991,1.59254 -0.8981,3.16403 -0.8981,4.71646 0,0.85544 0.1,1.57149 0.299,2.15415 0.199,0.58166 0.6589,0.8735 1.3776,0.8735 1.0363,0 2.4128,-0.79528 4.1307,-2.38782 1.7158,-1.59054 3.3718,-4.17191 4.97,-7.74511 l 0.2382,-0.11634 c 0.2392,0 0.4795,0.11634 0.7177,0.35 l 0.2392,0.23267 c 0,0.15644 -0.2599,0.9136 -0.7775,2.27148 -0.5207,1.35888 -1.258,2.85315 -2.2148,4.4838 -0.959,1.63066 -2.1365,3.10687 -3.5327,4.42564 -1.3972,1.32077 -2.9748,1.97965 -4.7308,1.97965 -0.7176,0 -1.4786,-0.15444 -2.2747,-0.46533 -0.7929,-0.30687 -1.5508,-0.92965 -2.2695,-1.86131 z"
   id="path3597"
   inkscape:connector-curvature="0"
   style="fill:#be3a4a" />
<path
   d="m 1824.8538,481.85555 c -0.3207,0.46633 -0.7394,1.00988 -1.257,1.63065 -0.5207,0.62178 -1.1579,1.22249 -1.9158,1.80516 -0.76,0.58166 -1.6158,1.06704 -2.5747,1.45515 -0.958,0.38811 -2.0365,0.58267 -3.2326,0.58267 -0.8806,0 -1.9375,-0.25172 -3.1738,-0.75717 -1.2384,-0.50444 -2.0561,-1.49426 -2.4551,-2.96947 -0.6393,0.62177 -1.7169,1.4371 -3.2326,2.44498 -1.5178,1.00988 -3.313,1.51432 -5.3887,1.51432 -1.757,0 -3.2336,-0.40816 -4.4307,-1.22349 -1.1972,-0.81533 -2.1561,-1.80516 -2.8738,-2.96948 -0.7177,-1.16432 -1.2363,-2.42593 -1.557,-3.78481 -0.3176,-1.35787 -0.4784,-2.62048 -0.4784,-3.7848 0,-1.86232 0.4,-3.93925 1.1961,-6.23079 0.797,-2.28854 1.955,-4.44369 3.4728,-6.46245 1.5158,-2.01877 3.3532,-3.70658 5.5083,-5.06647 2.1561,-1.35787 4.5503,-2.03782 7.1849,-2.03782 1.1971,0 2.2942,0.11634 3.2924,0.35 0.9971,0.23267 1.857,0.54356 2.5747,0.93166 1.1971,-2.94942 2.2551,-5.49268 3.1728,-7.62777 0.9166,-2.1341 1.6168,-3.74369 2.0952,-4.8328 l 0.8383,-2.44498 c 0.2392,-0.698 0.4568,-1.39799 0.6589,-2.09699 0.1969,-0.69799 0.299,-1.28066 0.299,-1.74598 0.1578,0.0772 0.5991,0.25272 1.3168,0.52349 0.7176,0.27178 1.4765,0.64083 2.2746,1.10716 0.7971,0.46633 1.5158,1.02994 2.1551,1.68882 0.6383,0.65989 0.9589,1.41805 0.9589,2.27048 0,0.39012 -0.041,0.81533 -0.1196,1.28166 -0.08,0.46533 -0.2392,1.00989 -0.4784,1.63066 -0.5599,1.24255 -1.5993,3.35859 -3.114,6.34612 -1.5178,2.98953 -3.0955,6.23079 -4.7308,9.72476 -1.6364,3.49298 -3.0728,6.92879 -4.3101,10.30643 -1.2384,3.37664 -1.8571,6.03824 -1.8571,7.97677 0,1.63066 0.6775,2.44498 2.0365,2.44498 1.3559,0 3.0325,-0.79527 5.0288,-2.38681 1.9952,-1.59054 3.7914,-4.17291 5.3897,-7.74511 l 0.2392,-0.11634 c 0.3176,0 0.5981,0.11634 0.8373,0.35 l 0.2392,0.23267 c 0,0.31089 -0.2598,1.20444 -0.7795,2.67865 -0.5166,1.4742 -1.4539,3.14297 -2.8098,5.00629 z m -15.0875,-0.349 c -0.08,-0.30988 -0.1196,-0.85343 -0.1196,-1.63065 0,-2.1722 0.3186,-4.61719 0.9589,-7.33595 0.6373,-2.71675 1.4364,-5.43351 2.3943,-8.15227 -1.2786,-1.00888 -2.7551,-1.51433 -4.4307,-1.51433 -1.5983,0 -3.1336,0.48539 -4.6102,1.45516 -1.4786,0.97177 -2.7748,2.21332 -3.8915,3.72764 -1.1187,1.51332 -2.0168,3.16403 -2.6933,4.94913 -0.6795,1.7871 -1.0187,3.53409 -1.0187,5.24197 0,2.25243 0.6991,3.90113 2.0963,4.94913 1.3961,1.04899 2.9727,1.57249 4.7287,1.57249 1.2765,0 2.4953,-0.27178 3.6533,-0.81533 1.1549,-0.54355 2.1344,-1.35888 2.9325,-2.44699 z"
   id="path3599"
   inkscape:connector-curvature="0"
   style="fill:#be3a4a" />
<text
   id="text3601"
   x="1538.4878"
   y="139.90749"
   transform="scale(1.0139932,0.98619989)"
   style="font-size:12.20275879px"><tspan
     x="1538.4878"
     y="139.90749"
     font-size="48"
     id="tspan3603"
     style="font-size:48.81103516px;fill:#be3a4a;font-family:Pacifico-Regular">Gend</tspan><tspan
     x="1641.4963"
     y="139.90749"
     font-size="48"
     id="tspan3605"
     style="font-size:48.81103516px;fill:#288dc1;font-family:Pacifico-Regular">Re</tspan></text>

<rect
   style="fill:#ffffff;fill-opacity:0.98941806;fill-rule:evenodd;stroke:#ffffff;stroke-width:1.06195199;stroke-opacity:1"
   id="rect4443"
   width="248.93805"
   height="248.93805"
   x="59.594574"
   y="0.58358383"
   inkscape:export-filename="C:\Users\ELC201203\Documents\GitHub\gendreapp_logo_withName_v1024.png"
   inkscape:export-xdpi="368.64001"
   inkscape:export-ydpi="368.64001" /><g
   transform="matrix(1.0311262,0,0,1.0028632,2.696192,2.5186024)"
   id="g3465"
   inkscape:export-filename="C:\Users\ELC201203\Documents\GitHub\gendreapp_logo_withName_v1024.png"
   inkscape:export-xdpi="368.64001"
   inkscape:export-ydpi="368.64001"><path
     style="fill:#be3a4a"
     inkscape:connector-curvature="0"
     d="m 95.601,181.109 c 1.47,0 2.845,0.135 4.123,0.406 1.277,0.271 2.613,0.522 4.006,0.755 0.697,-1.472 1.808,-3.354 2.428,-5.134 0.619,-1.78 2.825,-7.231 3.522,-8.856 -0.464,0.542 -0.949,1.064 -1.452,1.567 -0.504,0.504 -1.027,1.027 -1.568,1.567 -1.161,1.161 -2.613,2.303 -4.354,3.426 -1.742,1.121 -3.698,1.916 -5.865,2.381 0,0 -0.613,0.231 -1.91,0.403 -1.297,0.172 -1.806,0.062 -1.806,0.062 -2.787,0 -5.091,-0.522 -6.91,-1.568 -1.82,-1.045 -3.251,-2.38 -4.296,-4.006 -1.045,-1.626 -1.782,-3.368 -2.207,-5.226 -0.426,-1.858 -0.639,-3.601 -0.639,-5.227 0,-4.645 0.947,-9.174 2.845,-13.586 1.896,-4.413 4.122,-8.361 6.677,-11.846 -2.555,0 -4.877,0.099 -6.968,0.291 -2.09,0.193 -3.91,0.484 -5.458,0.87 -0.388,0.156 -1.007,0.389 -1.858,0.697 -0.853,0.311 -1.762,0.658 -2.729,1.045 -0.969,0.389 -1.898,0.813 -2.787,1.277 -0.891,0.465 -1.568,0.891 -2.032,1.277 -0.388,-0.929 -0.697,-1.741 -0.929,-2.438 -0.232,-0.696 -0.426,-1.411 -0.581,-2.148 -0.156,-0.734 -0.232,-1.411 -0.232,-2.032 0,-0.387 0.25,-0.889 0.754,-1.51 0.503,-0.618 1.606,-1.237 3.31,-1.858 0,-0.076 0.444,-0.231 1.335,-0.464 0.889,-0.232 2.012,-0.482 3.368,-0.755 1.354,-0.271 2.845,-0.522 4.471,-0.755 1.626,-0.231 3.173,-0.349 4.645,-0.349 1.78,0 3.542,0.137 5.284,0.406 1.742,0.273 3.502,0.602 5.284,0.988 3.484,-3.174 6.968,-5.477 10.452,-6.91 3.484,-1.432 6.852,-2.148 10.103,-2.148 1.161,0 2.265,0.078 3.31,0.232 1.045,0.156 2.032,0.311 2.961,0.465 0.464,0.156 1.161,0.367 2.09,0.639 0.929,0.271 1.858,0.736 2.787,1.393 0.929,0.659 1.742,1.551 2.438,2.672 0.697,1.123 1.045,2.536 1.045,4.238 0,2.014 -0.484,3.678 -1.451,4.993 -0.969,1.317 -2.148,2.362 -3.542,3.136 -1.394,0.774 -2.845,1.317 -4.355,1.626 -1.51,0.31 -2.807,0.464 -3.89,0.464 -2.014,0 -3.872,-0.154 -5.574,-0.464 -1.704,-0.309 -3.33,-0.697 -4.877,-1.161 -1.549,-0.465 -3.019,-0.947 -4.413,-1.452 -1.394,-0.503 -2.711,-0.909 -3.948,-1.219 -3.484,3.175 -6.427,6.949 -8.826,11.322 -2.4,4.374 -3.6,8.961 -3.6,13.761 0,3.948 0.813,6.871 2.439,8.768 1.625,1.896 3.948,2.845 6.967,2.845 2.399,0 4.664,-0.542 6.793,-1.625 2.128,-1.084 4.064,-2.381 5.807,-3.891 1.742,-1.51 3.211,-3.058 4.413,-4.646 1.199,-1.586 2.07,-2.883 2.613,-3.89 0.773,-2.245 1.568,-4.471 2.381,-6.678 0.813,-2.206 1.548,-4.16 2.206,-5.864 0.657,-1.702 1.258,-3.077 1.8,-4.122 0.541,-1.046 0.967,-1.568 1.277,-1.568 1.548,0 2.863,0.543 3.948,1.626 1.083,1.085 1.626,2.168 1.626,3.252 0,0.464 -0.078,0.853 -0.232,1.161 -0.697,1.317 -1.472,2.711 -2.323,4.181 -0.853,1.472 -1.646,3.001 -2.38,4.587 -0.737,1.588 -1.335,3.155 -1.8,4.703 -0.465,1.55 -0.697,3.02 -0.697,4.413 0,0.853 0.116,1.529 0.348,2.032 0.232,0.504 0.773,0.754 1.626,0.754 1.315,0 2.961,-0.792 4.935,-2.38 1.975,-1.586 3.734,-4.161 5.284,-7.723 v -0.116 h 0.116 l 0.232,-0.116 c 0.232,0 0.464,0.116 0.697,0.349 0.076,0.078 0.116,0.156 0.116,0.232 -0.697,2.787 -1.51,4.993 -2.438,6.619 -0.929,1.626 -2.168,3.135 -3.716,4.528 -1.55,1.394 -3.562,2.091 -6.039,2.091 -0.697,0 -1.434,-0.135 -2.207,-0.406 -0.775,-0.271 -1.51,-0.793 -2.207,-1.568 -1.471,3.328 -5.984,10.43 -7.532,13.294 1.78,0.309 3.6,0.562 5.458,0.755 1.858,0.192 3.638,0.291 5.342,0.291 3.56,0 6.753,-0.446 9.581,-1.336 2.825,-0.891 5.052,-1.8 6.677,-2.729 0.232,-0.078 0.715,-0.368 1.452,-0.871 0.735,-0.505 1.528,-1.045 2.38,-1.626 0.851,-0.58 1.664,-1.181 2.439,-1.8 0.773,-0.619 1.315,-1.121 1.625,-1.51 0.077,0 0.271,0.232 0.581,0.697 0.308,0.464 0.619,1.045 0.929,1.741 0.309,0.697 0.581,1.452 0.813,2.265 0.232,0.813 0.348,1.528 0.348,2.148 0,1.548 -0.871,2.863 -2.613,3.948 -1.742,1.083 -3.794,1.975 -6.155,2.671 -2.362,0.697 -4.801,1.18 -7.316,1.451 -2.517,0.271 -4.549,0.407 -6.097,0.407 -3.251,-0.078 -6.311,-0.407 -9.174,-0.987 -2.865,-0.581 -5.652,-1.22 -8.361,-1.916 -1.161,2.322 -2.729,3.948 -4.703,4.877 -1.974,0.93 -3.736,1.394 -5.284,1.394 -0.156,0 -0.601,-0.02 -1.335,-0.058 -0.737,-0.04 -1.51,-0.232 -2.323,-0.581 -0.812,-0.349 -1.549,-0.891 -2.206,-1.626 -0.659,-0.736 -0.987,-1.8 -0.987,-3.193 0,-1.781 0.465,-3.193 1.394,-4.238 0.929,-1.045 1.898,-1.716 2.903,-2.032 -1.347,0.424 0.465,-0.154 1.184,-0.201 0.719,-0.047 1.214,-0.03 1.214,-0.03 z m -4.717,6.387 c 0,1.006 0.367,1.742 1.104,2.207 0.735,0.464 1.684,0.696 2.845,0.696 1.005,0 2.07,-0.349 3.194,-1.045 1.121,-0.697 2.225,-2.014 3.31,-3.948 -1.007,-0.389 -1.974,-0.736 -2.903,-1.045 -0.929,-0.311 -1.898,-0.465 -2.903,-0.465 -1.007,0 -2.032,0.25 -3.077,0.755 -1.047,0.503 -1.57,1.452 -1.57,2.845 z m 29.712,-55.564 c -2.014,-1.701 -4.453,-2.555 -7.316,-2.555 -1.936,0 -3.949,0.369 -6.039,1.104 -2.09,0.736 -4.143,1.762 -6.155,3.077 2.322,1.007 4.663,1.956 7.025,2.846 2.361,0.891 4.703,1.335 7.026,1.335 0.541,-0.076 1.161,-0.25 1.858,-0.522 0.697,-0.271 1.354,-0.599 1.974,-0.987 0.619,-0.386 1.142,-0.812 1.568,-1.277 0.424,-0.464 0.639,-0.929 0.639,-1.394 0.001,-0.465 -0.194,-1.006 -0.58,-1.627 z"
     id="path3467" /><path
     style="fill:#be3a4a"
     inkscape:connector-curvature="0"
     d="m 154.969,161.312 c 0.154,0.156 0.232,0.31 0.232,0.464 -1.161,2.169 -2.517,4.064 -4.064,5.69 -1.317,1.394 -3.001,2.671 -5.051,3.832 -2.052,1.161 -4.433,1.742 -7.142,1.742 -2.014,0 -3.716,-0.427 -5.109,-1.277 -1.393,-0.85 -2.517,-1.916 -3.368,-3.193 -0.853,-1.277 -1.452,-2.651 -1.8,-4.123 -0.348,-1.47 -0.522,-2.787 -0.522,-3.948 0,-2.631 0.426,-5.167 1.277,-7.606 0.851,-2.438 2.012,-4.625 3.484,-6.561 1.47,-1.935 3.135,-3.484 4.994,-4.646 1.858,-1.161 3.792,-1.741 5.806,-1.741 2.477,0 4.393,0.696 5.749,2.09 1.354,1.394 2.032,2.903 2.032,4.529 0,1.625 -0.349,3.175 -1.045,4.645 -0.697,1.472 -1.646,2.77 -2.845,3.891 -1.201,1.123 -2.613,2.014 -4.238,2.671 -1.626,0.658 -3.33,0.987 -5.11,0.987 -1.239,0 -2.284,-0.135 -3.135,-0.407 -0.853,-0.27 -1.472,-0.599 -1.858,-0.986 -0.464,1.394 -0.696,2.787 -0.696,4.181 0,2.168 0.677,4.122 2.032,5.864 1.354,1.741 3.153,2.612 5.4,2.612 1.702,0 3.425,-0.464 5.167,-1.394 1.742,-0.929 3.115,-1.741 4.123,-2.438 1.161,-0.851 2.07,-1.586 2.729,-2.206 0.657,-0.619 1.141,-1.142 1.452,-1.568 0.308,-0.424 0.522,-0.734 0.639,-0.929 0.116,-0.192 0.25,-0.29 0.406,-0.29 0.151,-0.001 0.305,0.039 0.461,0.115 z m -18.347,-10.799 c -1.085,1.549 -2.052,3.251 -2.903,5.109 0.232,0.078 0.735,0.116 1.51,0.116 1.161,0 2.282,-0.271 3.368,-0.813 1.083,-0.54 2.032,-1.199 2.845,-1.974 0.813,-0.773 1.47,-1.605 1.974,-2.497 0.503,-0.889 0.755,-1.644 0.755,-2.265 0,-1.005 -0.542,-1.509 -1.625,-1.509 -0.775,0 -1.684,0.29 -2.729,0.87 -1.047,0.582 -2.112,1.569 -3.195,2.963 z"
     id="path3469" /><path
     style="fill:#be3a4a"
     inkscape:connector-curvature="0"
     d="m 169.369,167.815 c -1.085,-1.548 -1.626,-3.6 -1.626,-6.155 0,-2.09 0.232,-3.966 0.697,-5.632 0.464,-1.664 1.083,-3.542 1.858,-5.632 -0.697,1.317 -1.567,2.923 -2.613,4.819 -1.045,1.897 -2.072,3.832 -3.077,5.806 -1.007,1.975 -1.916,3.833 -2.729,5.574 -0.813,1.742 -1.335,3.04 -1.568,3.891 -0.388,1.007 -0.775,1.78 -1.161,2.322 -0.388,0.541 -0.833,1.045 -1.335,1.51 -0.504,0.465 -1.065,0.697 -1.684,0.697 -1.858,0 -3.095,-0.717 -3.716,-2.148 -0.619,-1.432 -0.929,-3.31 -0.929,-5.633 0,-2.555 0.311,-5.069 0.929,-7.548 0.621,-2.477 1.317,-4.722 2.09,-6.735 0.773,-2.013 1.509,-3.696 2.206,-5.052 0.697,-1.354 1.122,-2.187 1.277,-2.496 0.465,-0.93 0.929,-2.032 1.394,-3.311 0.465,-1.277 0.773,-2.186 0.929,-2.729 0.232,0 0.657,0.194 1.277,0.581 0.619,0.388 1.219,0.87 1.8,1.451 0.581,0.581 1.103,1.22 1.567,1.916 0.464,0.697 0.697,1.355 0.697,1.975 0,1.317 -0.464,2.787 -1.394,4.412 -0.929,1.626 -1.956,3.388 -3.077,5.284 -1.123,1.897 -2.148,3.891 -3.078,5.98 -0.929,2.09 -1.394,4.297 -1.394,6.619 0,0.621 0.038,1.085 0.116,1.394 2.555,-4.877 4.779,-8.922 6.677,-12.135 1.896,-3.212 3.542,-5.807 4.936,-7.781 1.394,-1.974 2.555,-3.521 3.484,-4.645 0.929,-1.122 1.684,-2.051 2.265,-2.787 0.581,-0.735 1.025,-1.394 1.335,-1.975 0.308,-0.58 0.581,-1.411 0.812,-2.496 0.076,0 0.407,0.174 0.987,0.522 0.581,0.348 1.179,0.812 1.8,1.394 0.619,0.58 1.2,1.201 1.742,1.857 0.541,0.659 0.812,1.336 0.812,2.032 0,0.232 -0.058,0.659 -0.174,1.277 -0.116,0.621 -0.331,1.085 -0.639,1.394 -0.621,1.317 -1.375,2.691 -2.265,4.123 -0.891,1.434 -1.742,2.923 -2.555,4.471 -0.813,1.55 -1.51,3.117 -2.09,4.703 -0.581,1.588 -0.871,3.155 -0.871,4.703 0,0.853 0.096,1.567 0.291,2.148 0.192,0.58 0.639,0.871 1.335,0.871 1.005,0 2.34,-0.793 4.006,-2.381 1.664,-1.586 3.27,-4.16 4.819,-7.723 l 0.232,-0.116 c 0.232,0 0.465,0.116 0.697,0.349 l 0.232,0.232 c 0,0.156 -0.252,0.911 -0.755,2.265 -0.504,1.355 -1.219,2.845 -2.148,4.471 -0.929,1.626 -2.072,3.098 -3.426,4.413 -1.355,1.317 -2.885,1.974 -4.587,1.974 -0.697,0 -1.434,-0.154 -2.207,-0.464 -0.769,-0.306 -1.504,-0.927 -2.201,-1.856 z"
     id="path3471" /><path
     style="fill:#be3a4a"
     inkscape:connector-curvature="0"
     d="m 212.799,166.538 c -0.31,0.465 -0.717,1.007 -1.219,1.626 -0.504,0.62 -1.123,1.219 -1.858,1.8 -0.737,0.58 -1.568,1.064 -2.497,1.451 -0.929,0.387 -1.975,0.581 -3.136,0.581 -0.853,0 -1.878,-0.251 -3.077,-0.755 -1.201,-0.503 -1.994,-1.49 -2.381,-2.961 -0.621,0.62 -1.666,1.433 -3.135,2.438 -1.472,1.007 -3.213,1.51 -5.226,1.51 -1.704,0 -3.136,-0.407 -4.297,-1.22 -1.161,-0.813 -2.09,-1.8 -2.787,-2.961 -0.697,-1.161 -1.199,-2.419 -1.51,-3.774 -0.308,-1.354 -0.464,-2.613 -0.464,-3.774 0,-1.857 0.388,-3.928 1.161,-6.213 0.773,-2.282 1.896,-4.431 3.368,-6.444 1.47,-2.013 3.252,-3.696 5.342,-5.052 2.09,-1.354 4.413,-2.032 6.968,-2.032 1.161,0 2.225,0.116 3.193,0.349 0.967,0.232 1.8,0.542 2.497,0.929 1.161,-2.941 2.187,-5.477 3.077,-7.606 0.889,-2.128 1.568,-3.733 2.032,-4.819 l 0.813,-2.438 c 0.232,-0.696 0.444,-1.394 0.639,-2.091 0.192,-0.696 0.291,-1.277 0.291,-1.741 0.154,0.077 0.581,0.252 1.277,0.522 0.697,0.271 1.432,0.639 2.206,1.104 0.773,0.465 1.47,1.027 2.09,1.684 0.619,0.658 0.929,1.414 0.929,2.264 0,0.389 -0.04,0.813 -0.116,1.278 -0.078,0.464 -0.232,1.007 -0.464,1.626 -0.542,1.239 -1.55,3.349 -3.02,6.328 -1.471,2.981 -3.001,6.213 -4.587,9.697 -1.587,3.483 -2.981,6.909 -4.181,10.277 -1.201,3.367 -1.8,6.021 -1.8,7.954 0,1.626 0.657,2.438 1.974,2.438 1.315,0 2.941,-0.793 4.877,-2.38 1.934,-1.586 3.676,-4.161 5.226,-7.723 l 0.232,-0.116 c 0.308,0 0.581,0.116 0.812,0.349 l 0.232,0.232 c 0,0.31 -0.252,1.201 -0.755,2.671 -0.502,1.47 -1.411,3.134 -2.726,4.992 z m -14.632,-0.349 c -0.078,-0.309 -0.116,-0.851 -0.116,-1.626 0,-2.166 0.309,-4.604 0.929,-7.315 0.619,-2.709 1.394,-5.418 2.322,-8.129 -1.239,-1.006 -2.671,-1.51 -4.296,-1.51 -1.55,0 -3.04,0.484 -4.471,1.451 -1.433,0.969 -2.691,2.207 -3.774,3.717 -1.085,1.509 -1.956,3.155 -2.613,4.935 -0.659,1.782 -0.987,3.524 -0.987,5.227 0,2.246 0.677,3.89 2.032,4.935 1.354,1.046 2.883,1.568 4.587,1.568 1.238,0 2.419,-0.271 3.542,-0.813 1.121,-0.541 2.07,-1.355 2.845,-2.44 z"
     id="path3473" /><path
     style="fill:#288dc1"
     inkscape:connector-curvature="0"
     d="m 218.65,176.724 c 0,-1.501 2.16,-11.175 2.553,-12.641 0.393,-1.464 0.768,-3.018 1.127,-4.662 -1.646,-0.786 -2.985,-1.608 -4.021,-2.466 -1.037,-0.858 -1.859,-1.644 -2.465,-2.358 -0.608,-0.714 -1.162,-1.5 -1.661,-2.358 -0.072,0 -0.107,-0.035 -0.107,-0.107 v -0.214 c 0,-0.356 0.214,-0.536 0.643,-0.536 0.143,0 0.375,0.251 0.697,0.75 0.321,0.501 0.786,1.091 1.394,1.769 0.606,0.681 1.394,1.341 2.358,1.983 0.964,0.644 2.197,1.108 3.698,1.394 0.285,-1.356 0.625,-2.608 1.019,-3.752 0.392,-1.143 0.785,-2.214 1.179,-3.216 0.392,-0.999 0.785,-2.018 1.18,-3.055 0.391,-1.035 0.766,-2.197 1.125,-3.484 l 0.75,-2.251 c 0.215,-0.644 0.411,-1.286 0.59,-1.93 0.178,-0.643 0.269,-1.179 0.269,-1.607 -1.859,1.072 -3.396,2.108 -4.61,3.108 -1.215,1.002 -2.18,1.876 -2.894,2.627 -0.716,0.75 -1.251,1.34 -1.608,1.769 -0.359,0.428 -0.573,0.643 -0.643,0.643 -1.287,-1 -2.163,-1.999 -2.626,-3.001 -0.465,-1 -0.697,-1.893 -0.697,-2.68 0,-0.858 0.054,-1.519 0.161,-1.983 0.106,-0.464 0.321,-0.874 0.643,-1.233 0.321,-0.355 0.713,-0.713 1.179,-1.071 0.463,-0.356 1.088,-0.857 1.875,-1.501 h 0.107 c 1,-0.713 2.394,-1.555 4.18,-2.519 1.785,-0.965 3.841,-1.876 6.164,-2.733 2.32,-0.858 4.805,-1.571 7.45,-2.144 2.643,-0.571 5.359,-0.858 8.146,-0.858 0.928,0 2.465,0.09 4.609,0.269 2.144,0.179 4.305,0.643 6.485,1.393 2.179,0.751 4.09,1.841 5.735,3.27 1.643,1.431 2.465,3.432 2.465,6.003 0,1.002 -0.145,2.021 -0.429,3.055 -0.287,1.037 -0.607,1.948 -0.965,2.734 -1.357,3.216 -3.074,6.04 -5.146,8.469 -2.073,2.43 -4.359,4.466 -6.86,6.109 -2.502,1.646 -5.11,2.878 -7.825,3.698 -2.716,0.822 -5.359,1.232 -7.932,1.232 -0.287,0 -0.573,-0.017 -0.858,-0.053 -0.286,-0.035 -0.573,-0.054 -0.857,-0.054 1.571,1.93 3.484,3.717 5.734,5.359 2.252,1.645 4.626,3.056 7.129,4.234 2.5,1.179 5.073,2.091 7.718,2.733 2.644,0.644 5.146,0.964 7.504,0.964 1.857,0 3.465,-0.09 4.824,-0.268 1.356,-0.179 2.75,-0.804 4.181,-1.876 0.713,0.714 1.106,1.571 1.179,2.573 0.07,1 -0.18,1.965 -0.751,2.895 -0.572,0.928 -1.537,1.731 -2.894,2.411 -1.358,0.679 -3.146,1.054 -5.36,1.126 -4.145,0.143 -7.878,-0.358 -11.201,-1.501 -3.322,-1.144 -6.415,-2.698 -9.272,-4.663 -2.859,-1.966 -5.521,-4.25 -7.986,-6.86 -2.465,-2.607 -4.914,-5.27 -7.343,-7.985 -0.144,0.144 -0.285,0.412 -0.428,0.804 -0.145,0.394 -0.269,0.804 -0.376,1.232 -0.107,0.428 -0.214,0.822 -0.322,1.179 -0.105,0.359 -0.16,0.645 -0.16,0.858 -0.286,1.216 -2.482,10.408 -2.66,11.193 -0.18,0.787 -0.34,1.573 -0.482,2.358 -0.144,0.787 -0.214,1.394 -0.214,1.822 -0.145,0 -0.447,-0.072 -0.911,-0.214 -0.466,-0.143 -0.948,-0.375 -1.447,-0.697 -0.501,-0.321 -0.965,-0.75 -1.394,-1.286 -0.43,-0.537 -0.645,-1.27 -0.645,-2.199 z m 14.827,-28.773 c -0.5,1.001 -0.948,1.912 -1.339,2.732 -0.394,0.822 -0.788,1.646 -1.18,2.466 -0.394,0.822 -0.769,1.698 -1.125,2.626 -0.358,0.931 -0.787,2.037 -1.287,3.323 0.571,0.358 1.448,0.572 2.627,0.643 1.179,0.072 2.198,0.107 3.055,0.107 4.288,0 8.343,-1.16 12.167,-3.482 3.822,-2.322 6.948,-5.843 9.379,-10.56 0.786,-1.57 1.447,-3.071 1.983,-4.502 0.536,-1.429 0.804,-2.644 0.804,-3.645 0,-0.928 -0.358,-1.732 -1.072,-2.412 -0.715,-0.679 -1.606,-1.232 -2.68,-1.661 -1.071,-0.429 -2.233,-0.751 -3.483,-0.965 -1.251,-0.215 -2.449,-0.322 -3.591,-0.322 -1.93,0 -3.806,0.18 -5.628,0.536 -1.821,0.358 -3.537,0.822 -5.146,1.394 -1.607,0.573 -3.073,1.198 -4.395,1.876 -1.323,0.68 -2.484,1.305 -3.484,1.876 0.214,0 0.66,0.126 1.341,0.375 0.678,0.252 1.355,0.627 2.035,1.126 0.679,0.5 1.288,1.072 1.823,1.715 0.536,0.644 0.804,1.358 0.804,2.144 0,0.358 0,0.644 0,0.858 0,0.214 -0.054,0.465 -0.16,0.75 -0.107,0.286 -0.269,0.644 -0.483,1.071 -0.214,0.43 -0.536,1.073 -0.965,1.931 z"
     id="path3475" /><path
     style="fill:#288dc1"
     inkscape:connector-curvature="0"
     d="m 286.75,167.516 c 0,0.781 -1.397,2.858 -1.397,2.858 -1.231,1.303 -2.806,2.497 -4.724,3.583 -1.92,1.087 -4.146,1.63 -6.681,1.63 -1.883,0 -3.475,-0.399 -4.778,-1.194 -1.303,-0.796 -2.354,-1.792 -3.149,-2.987 -0.798,-1.194 -1.357,-2.479 -1.685,-3.855 -0.324,-1.375 -0.487,-2.607 -0.487,-3.693 0,-2.46 0.398,-4.832 1.194,-7.113 0.796,-2.281 1.882,-4.326 3.258,-6.136 1.375,-1.81 2.934,-3.259 4.67,-4.345 1.738,-1.086 3.548,-1.629 5.431,-1.629 2.316,0 4.108,0.651 5.376,1.954 1.267,1.304 1.902,2.716 1.902,4.236 0,1.52 -0.327,2.97 -0.978,4.344 -0.652,1.377 -1.54,2.591 -2.661,3.639 -1.124,1.051 -2.444,1.884 -3.965,2.498 -1.521,0.616 -3.114,0.924 -4.779,0.924 -1.159,0 -2.136,-0.126 -2.933,-0.381 -0.797,-0.252 -1.375,-0.56 -1.737,-0.923 -0.435,1.304 -0.652,2.606 -0.652,3.91 0,2.027 0.635,3.855 1.902,5.484 1.266,1.629 2.948,2.443 5.05,2.443 1.592,0 3.203,-0.434 4.832,-1.303 1.63,-0.869 2.914,-1.629 3.856,-2.281 1.087,-0.795 1.937,-1.483 2.552,-2.063 m -14.391,-12.599 c -1.015,1.449 -1.919,3.041 -2.714,4.779 0.216,0.073 0.687,0.108 1.411,0.108 1.085,0 2.134,-0.253 3.149,-0.761 1.013,-0.505 1.9,-1.122 2.661,-1.846 0.761,-0.724 1.374,-1.502 1.846,-2.336 0.471,-0.831 0.707,-1.537 0.707,-2.118 0,-0.939 -0.508,-1.41 -1.521,-1.41 -0.724,0 -1.575,0.271 -2.553,0.813 -0.976,0.544 -1.972,1.468 -2.986,2.771 z"
     id="path3477" /></g><path
   style="fill:#be3a4a"
   inkscape:connector-curvature="0"
   d="m 197.82651,81.373739 c 0,14.604698 -19.13048,26.445501 -34.1478,26.445501 -15.01733,0 -20.23379,-11.840803 -20.23379,-26.445501 0,-14.604697 5.44331,-26.445503 20.46063,-26.445503 15.01733,0 33.92096,11.839803 33.92096,26.445503 z"
   id="path3481"
   inkscape:export-filename="C:\Users\ELC201203\Documents\GitHub\gendreapp_logo_withName_v1024.png"
   inkscape:export-xdpi="368.64001"
   inkscape:export-ydpi="368.64001" /><path
   style="fill:#288dc1"
   inkscape:connector-curvature="0"
   d="m 207.549,55.123794 c 14.90596,-1.774065 29.31183,15.257561 31.13486,29.754952 1.82303,14.497392 -9.62763,20.971874 -24.53359,22.744934 -14.90596,1.77407 -27.64965,-2.04383 -29.47371,-16.541221 -1.82303,-14.498394 7.96648,-34.185603 22.87244,-35.958665 z"
   id="path3483"
   inkscape:export-filename="C:\Users\ELC201203\Documents\GitHub\gendreapp_logo_withName_v1024.png"
   inkscape:export-xdpi="368.64001"
   inkscape:export-ydpi="368.64001" /><path
   style="fill:#ffffff"
   inkscape:connector-curvature="0"
   d="m 184.67656,91.082459 c 0.40833,3.248274 1.36934,5.957007 2.77579,8.190384 6.09499,-4.709446 10.37416,-10.99439 10.37416,-17.899104 0,-5.506722 -2.68917,-10.619318 -6.84358,-14.85441 -4.8432,7.241676 -7.29934,16.66859 -6.30637,24.56313 z"
   id="path3485"
   inkscape:export-filename="C:\Users\ELC201203\Documents\GitHub\gendreapp_logo_withName_v1024.png"
   inkscape:export-xdpi="368.64001"
   inkscape:export-ydpi="368.64001" /></svg>