<?xml version="1.0" encoding="utf-8"?>
<!-- Generator: Adobe Illustrator 16.0.0, SVG Export Plug-In . SVG Version: 6.00 Build 0)  -->
<!DOCTYPE svg PUBLIC "-//W3C//DTD SVG 1.1//EN" "http://www.w3.org/Graphics/SVG/1.1/DTD/svg11.dtd">
<svg version="1.1" id="Layer_1" xmlns="http://www.w3.org/2000/svg" xmlns:xlink="http://www.w3.org/1999/xlink" x="0px" y="0px"
	 width="351px" height="249px" viewBox="0 0 351 249" enable-background="new 0 0 351 249" xml:space="preserve">
<text transform="matrix(1 0 0 1 1403.667 151.334)" fill="#C1272D" font-family="'Pacifico-Regular'" font-size="48">GendRe</text>
<text transform="matrix(1 0 0 1 1067.5596 0.3086)"><tspan x="0" y="0" fill="#BE3A4A" font-family="'WolfintheCity'" font-size="116.127">Gend</tspan><tspan x="150.962" y="0" fill="#7C98AB" font-family="'WolfintheCity'" font-size="116.127">Re</tspan></text>
<g>
	<path fill="#BE3A4A" d="M95.601,181.109c1.47,0,2.845,0.135,4.123,0.406c1.277,0.271,2.613,0.522,4.006,0.755
		c0.697-1.472,1.808-3.354,2.428-5.134c0.619-1.78,2.825-7.231,3.522-8.856c-0.464,0.542-0.949,1.064-1.452,1.567
		c-0.504,0.504-1.027,1.027-1.568,1.567c-1.161,1.161-2.613,2.303-4.354,3.426c-1.742,1.121-3.698,1.916-5.865,2.381
		c0,0-0.613,0.231-1.91,0.403s-1.806,0.062-1.806,0.062c-2.787,0-5.091-0.522-6.91-1.568c-1.82-1.045-3.251-2.38-4.296-4.006
		c-1.045-1.626-1.782-3.368-2.207-5.226c-0.426-1.858-0.639-3.601-0.639-5.227c0-4.645,0.947-9.174,2.845-13.586
		c1.896-4.413,4.122-8.361,6.677-11.846c-2.555,0-4.877,0.099-6.968,0.291c-2.09,0.193-3.91,0.484-5.458,0.87
		c-0.388,0.156-1.007,0.389-1.858,0.697c-0.853,0.311-1.762,0.658-2.729,1.045c-0.969,0.389-1.898,0.813-2.787,1.277
		c-0.891,0.465-1.568,0.891-2.032,1.277c-0.388-0.929-0.697-1.741-0.929-2.438c-0.232-0.696-0.426-1.411-0.581-2.148
		c-0.156-0.734-0.232-1.411-0.232-2.032c0-0.387,0.25-0.889,0.754-1.51c0.503-0.618,1.606-1.237,3.31-1.858
		c0-0.076,0.444-0.231,1.335-0.464c0.889-0.232,2.012-0.482,3.368-0.755c1.354-0.271,2.845-0.522,4.471-0.755
		c1.626-0.231,3.173-0.349,4.645-0.349c1.78,0,3.542,0.137,5.284,0.406c1.742,0.273,3.502,0.602,5.284,0.988
		c3.484-3.174,6.968-5.477,10.452-6.91c3.484-1.432,6.852-2.148,10.103-2.148c1.161,0,2.265,0.078,3.31,0.232
		c1.045,0.156,2.032,0.311,2.961,0.465c0.464,0.156,1.161,0.367,2.09,0.639c0.929,0.271,1.858,0.736,2.787,1.393
		c0.929,0.659,1.742,1.551,2.438,2.672c0.697,1.123,1.045,2.536,1.045,4.238c0,2.014-0.484,3.678-1.451,4.993
		c-0.969,1.317-2.148,2.362-3.542,3.136c-1.394,0.774-2.845,1.317-4.355,1.626c-1.51,0.31-2.807,0.464-3.89,0.464
		c-2.014,0-3.872-0.154-5.574-0.464c-1.704-0.309-3.33-0.697-4.877-1.161c-1.549-0.465-3.019-0.947-4.413-1.452
		c-1.394-0.503-2.711-0.909-3.948-1.219c-3.484,3.175-6.427,6.949-8.826,11.322c-2.4,4.374-3.6,8.961-3.6,13.761
		c0,3.948,0.813,6.871,2.439,8.768c1.625,1.896,3.948,2.845,6.967,2.845c2.399,0,4.664-0.542,6.793-1.625
		c2.128-1.084,4.064-2.381,5.807-3.891c1.742-1.51,3.211-3.058,4.413-4.646c1.199-1.586,2.07-2.883,2.613-3.89
		c0.773-2.245,1.568-4.471,2.381-6.678c0.813-2.206,1.548-4.16,2.206-5.864c0.657-1.702,1.258-3.077,1.8-4.122
		c0.541-1.046,0.967-1.568,1.277-1.568c1.548,0,2.863,0.543,3.948,1.626c1.083,1.085,1.626,2.168,1.626,3.252
		c0,0.464-0.078,0.853-0.232,1.161c-0.697,1.317-1.472,2.711-2.323,4.181c-0.853,1.472-1.646,3.001-2.38,4.587
		c-0.737,1.588-1.335,3.155-1.8,4.703c-0.465,1.55-0.697,3.02-0.697,4.413c0,0.853,0.116,1.529,0.348,2.032
		c0.232,0.504,0.773,0.754,1.626,0.754c1.315,0,2.961-0.792,4.935-2.38c1.975-1.586,3.734-4.161,5.284-7.723v-0.116h0.116
		l0.232-0.116c0.232,0,0.464,0.116,0.697,0.349c0.076,0.078,0.116,0.156,0.116,0.232c-0.697,2.787-1.51,4.993-2.438,6.619
		c-0.929,1.626-2.168,3.135-3.716,4.528c-1.55,1.394-3.562,2.091-6.039,2.091c-0.697,0-1.434-0.135-2.207-0.406
		c-0.775-0.271-1.51-0.793-2.207-1.568c-1.471,3.328-5.984,10.43-7.532,13.294c1.78,0.309,3.6,0.562,5.458,0.755
		c1.858,0.192,3.638,0.291,5.342,0.291c3.56,0,6.753-0.446,9.581-1.336c2.825-0.891,5.052-1.8,6.677-2.729
		c0.232-0.078,0.715-0.368,1.452-0.871c0.735-0.505,1.528-1.045,2.38-1.626c0.851-0.58,1.664-1.181,2.439-1.8
		c0.773-0.619,1.315-1.121,1.625-1.51c0.077,0,0.271,0.232,0.581,0.697c0.308,0.464,0.619,1.045,0.929,1.741
		c0.309,0.697,0.581,1.452,0.813,2.265s0.348,1.528,0.348,2.148c0,1.548-0.871,2.863-2.613,3.948
		c-1.742,1.083-3.794,1.975-6.155,2.671c-2.362,0.697-4.801,1.18-7.316,1.451c-2.517,0.271-4.549,0.407-6.097,0.407
		c-3.251-0.078-6.311-0.407-9.174-0.987c-2.865-0.581-5.652-1.22-8.361-1.916c-1.161,2.322-2.729,3.948-4.703,4.877
		c-1.974,0.93-3.736,1.394-5.284,1.394c-0.156,0-0.601-0.02-1.335-0.058c-0.737-0.04-1.51-0.232-2.323-0.581
		c-0.812-0.349-1.549-0.891-2.206-1.626c-0.659-0.736-0.987-1.8-0.987-3.193c0-1.781,0.465-3.193,1.394-4.238
		c0.929-1.045,1.898-1.716,2.903-2.032c-1.347,0.424,0.465-0.154,1.184-0.201S95.601,181.109,95.601,181.109z M90.884,187.496
		c0,1.006,0.367,1.742,1.104,2.207c0.735,0.464,1.684,0.696,2.845,0.696c1.005,0,2.07-0.349,3.194-1.045
		c1.121-0.697,2.225-2.014,3.31-3.948c-1.007-0.389-1.974-0.736-2.903-1.045c-0.929-0.311-1.898-0.465-2.903-0.465
		c-1.007,0-2.032,0.25-3.077,0.755C91.407,185.154,90.884,186.103,90.884,187.496z M120.596,131.932
		c-2.014-1.701-4.453-2.555-7.316-2.555c-1.936,0-3.949,0.369-6.039,1.104c-2.09,0.736-4.143,1.762-6.155,3.077
		c2.322,1.007,4.663,1.956,7.025,2.846c2.361,0.891,4.703,1.335,7.026,1.335c0.541-0.076,1.161-0.25,1.858-0.522
		c0.697-0.271,1.354-0.599,1.974-0.987c0.619-0.386,1.142-0.812,1.568-1.277c0.424-0.464,0.639-0.929,0.639-1.394
		C121.177,133.094,120.982,132.553,120.596,131.932z"/>
	<path fill="#BE3A4A" d="M154.969,161.312c0.154,0.156,0.232,0.31,0.232,0.464c-1.161,2.169-2.517,4.064-4.064,5.69
		c-1.317,1.394-3.001,2.671-5.051,3.832c-2.052,1.161-4.433,1.742-7.142,1.742c-2.014,0-3.716-0.427-5.109-1.277
		s-2.517-1.916-3.368-3.193c-0.853-1.277-1.452-2.651-1.8-4.123c-0.348-1.47-0.522-2.787-0.522-3.948
		c0-2.631,0.426-5.167,1.277-7.606c0.851-2.438,2.012-4.625,3.484-6.561c1.47-1.935,3.135-3.484,4.994-4.646
		c1.858-1.161,3.792-1.741,5.806-1.741c2.477,0,4.393,0.696,5.749,2.09c1.354,1.394,2.032,2.903,2.032,4.529
		c0,1.625-0.349,3.175-1.045,4.645c-0.697,1.472-1.646,2.77-2.845,3.891c-1.201,1.123-2.613,2.014-4.238,2.671
		c-1.626,0.658-3.33,0.987-5.11,0.987c-1.239,0-2.284-0.135-3.135-0.407c-0.853-0.27-1.472-0.599-1.858-0.986
		c-0.464,1.394-0.696,2.787-0.696,4.181c0,2.168,0.677,4.122,2.032,5.864c1.354,1.741,3.153,2.612,5.4,2.612
		c1.702,0,3.425-0.464,5.167-1.394c1.742-0.929,3.115-1.741,4.123-2.438c1.161-0.851,2.07-1.586,2.729-2.206
		c0.657-0.619,1.141-1.142,1.452-1.568c0.308-0.424,0.522-0.734,0.639-0.929c0.116-0.192,0.25-0.29,0.406-0.29
		C154.659,161.196,154.813,161.236,154.969,161.312z M136.622,150.513c-1.085,1.549-2.052,3.251-2.903,5.109
		c0.232,0.078,0.735,0.116,1.51,0.116c1.161,0,2.282-0.271,3.368-0.813c1.083-0.54,2.032-1.199,2.845-1.974
		c0.813-0.773,1.47-1.605,1.974-2.497c0.503-0.889,0.755-1.644,0.755-2.265c0-1.005-0.542-1.509-1.625-1.509
		c-0.775,0-1.684,0.29-2.729,0.87C138.77,148.132,137.705,149.119,136.622,150.513z"/>
	<path fill="#BE3A4A" d="M169.369,167.815c-1.085-1.548-1.626-3.6-1.626-6.155c0-2.09,0.232-3.966,0.697-5.632
		c0.464-1.664,1.083-3.542,1.858-5.632c-0.697,1.317-1.567,2.923-2.613,4.819c-1.045,1.897-2.072,3.832-3.077,5.806
		c-1.007,1.975-1.916,3.833-2.729,5.574c-0.813,1.742-1.335,3.04-1.568,3.891c-0.388,1.007-0.775,1.78-1.161,2.322
		c-0.388,0.541-0.833,1.045-1.335,1.51c-0.504,0.465-1.065,0.697-1.684,0.697c-1.858,0-3.095-0.717-3.716-2.148
		c-0.619-1.432-0.929-3.31-0.929-5.633c0-2.555,0.311-5.069,0.929-7.548c0.621-2.477,1.317-4.722,2.09-6.735
		c0.773-2.013,1.509-3.696,2.206-5.052c0.697-1.354,1.122-2.187,1.277-2.496c0.465-0.93,0.929-2.032,1.394-3.311
		c0.465-1.277,0.773-2.186,0.929-2.729c0.232,0,0.657,0.194,1.277,0.581c0.619,0.388,1.219,0.87,1.8,1.451
		c0.581,0.581,1.103,1.22,1.567,1.916c0.464,0.697,0.697,1.355,0.697,1.975c0,1.317-0.464,2.787-1.394,4.412
		c-0.929,1.626-1.956,3.388-3.077,5.284c-1.123,1.897-2.148,3.891-3.078,5.98c-0.929,2.09-1.394,4.297-1.394,6.619
		c0,0.621,0.038,1.085,0.116,1.394c2.555-4.877,4.779-8.922,6.677-12.135c1.896-3.212,3.542-5.807,4.936-7.781
		c1.394-1.974,2.555-3.521,3.484-4.645c0.929-1.122,1.684-2.051,2.265-2.787c0.581-0.735,1.025-1.394,1.335-1.975
		c0.308-0.58,0.581-1.411,0.812-2.496c0.076,0,0.407,0.174,0.987,0.522c0.581,0.348,1.179,0.812,1.8,1.394
		c0.619,0.58,1.2,1.201,1.742,1.857c0.541,0.659,0.812,1.336,0.812,2.032c0,0.232-0.058,0.659-0.174,1.277
		c-0.116,0.621-0.331,1.085-0.639,1.394c-0.621,1.317-1.375,2.691-2.265,4.123c-0.891,1.434-1.742,2.923-2.555,4.471
		c-0.813,1.55-1.51,3.117-2.09,4.703c-0.581,1.588-0.871,3.155-0.871,4.703c0,0.853,0.096,1.567,0.291,2.148
		c0.192,0.58,0.639,0.871,1.335,0.871c1.005,0,2.34-0.793,4.006-2.381c1.664-1.586,3.27-4.16,4.819-7.723l0.232-0.116
		c0.232,0,0.465,0.116,0.697,0.349l0.232,0.232c0,0.156-0.252,0.911-0.755,2.265c-0.504,1.355-1.219,2.845-2.148,4.471
		c-0.929,1.626-2.072,3.098-3.426,4.413c-1.355,1.317-2.885,1.974-4.587,1.974c-0.697,0-1.434-0.154-2.207-0.464
		C170.801,169.365,170.066,168.744,169.369,167.815z"/>
	<path fill="#BE3A4A" d="M212.799,166.538c-0.31,0.465-0.717,1.007-1.219,1.626c-0.504,0.62-1.123,1.219-1.858,1.8
		c-0.737,0.58-1.568,1.064-2.497,1.451c-0.929,0.387-1.975,0.581-3.136,0.581c-0.853,0-1.878-0.251-3.077-0.755
		c-1.201-0.503-1.994-1.49-2.381-2.961c-0.621,0.62-1.666,1.433-3.135,2.438c-1.472,1.007-3.213,1.51-5.226,1.51
		c-1.704,0-3.136-0.407-4.297-1.22s-2.09-1.8-2.787-2.961s-1.199-2.419-1.51-3.774c-0.308-1.354-0.464-2.613-0.464-3.774
		c0-1.857,0.388-3.928,1.161-6.213c0.773-2.282,1.896-4.431,3.368-6.444c1.47-2.013,3.252-3.696,5.342-5.052
		c2.09-1.354,4.413-2.032,6.968-2.032c1.161,0,2.225,0.116,3.193,0.349c0.967,0.232,1.8,0.542,2.497,0.929
		c1.161-2.941,2.187-5.477,3.077-7.606c0.889-2.128,1.568-3.733,2.032-4.819l0.813-2.438c0.232-0.696,0.444-1.394,0.639-2.091
		c0.192-0.696,0.291-1.277,0.291-1.741c0.154,0.077,0.581,0.252,1.277,0.522c0.697,0.271,1.432,0.639,2.206,1.104
		c0.773,0.465,1.47,1.027,2.09,1.684c0.619,0.658,0.929,1.414,0.929,2.264c0,0.389-0.04,0.813-0.116,1.278
		c-0.078,0.464-0.232,1.007-0.464,1.626c-0.542,1.239-1.55,3.349-3.02,6.328c-1.471,2.981-3.001,6.213-4.587,9.697
		c-1.587,3.483-2.981,6.909-4.181,10.277c-1.201,3.367-1.8,6.021-1.8,7.954c0,1.626,0.657,2.438,1.974,2.438
		c1.315,0,2.941-0.793,4.877-2.38c1.934-1.586,3.676-4.161,5.226-7.723l0.232-0.116c0.308,0,0.581,0.116,0.812,0.349l0.232,0.232
		c0,0.31-0.252,1.201-0.755,2.671C215.023,163.016,214.114,164.68,212.799,166.538z M198.167,166.189
		c-0.078-0.309-0.116-0.851-0.116-1.626c0-2.166,0.309-4.604,0.929-7.315c0.619-2.709,1.394-5.418,2.322-8.129
		c-1.239-1.006-2.671-1.51-4.296-1.51c-1.55,0-3.04,0.484-4.471,1.451c-1.433,0.969-2.691,2.207-3.774,3.717
		c-1.085,1.509-1.956,3.155-2.613,4.935c-0.659,1.782-0.987,3.524-0.987,5.227c0,2.246,0.677,3.89,2.032,4.935
		c1.354,1.046,2.883,1.568,4.587,1.568c1.238,0,2.419-0.271,3.542-0.813C196.443,168.088,197.392,167.274,198.167,166.189z"/>
	<path fill="#288DC1" d="M218.65,176.724c0-1.501,2.16-11.175,2.553-12.641c0.393-1.464,0.768-3.018,1.127-4.662
		c-1.646-0.786-2.985-1.608-4.021-2.466c-1.037-0.858-1.859-1.644-2.465-2.358c-0.608-0.714-1.162-1.5-1.661-2.358
		c-0.072,0-0.107-0.035-0.107-0.107v-0.214c0-0.356,0.214-0.536,0.643-0.536c0.143,0,0.375,0.251,0.697,0.75
		c0.321,0.501,0.786,1.091,1.394,1.769c0.606,0.681,1.394,1.341,2.358,1.983c0.964,0.644,2.197,1.108,3.698,1.394
		c0.285-1.356,0.625-2.608,1.019-3.752c0.392-1.143,0.785-2.214,1.179-3.216c0.392-0.999,0.785-2.018,1.18-3.055
		c0.391-1.035,0.766-2.197,1.125-3.484l0.75-2.251c0.215-0.644,0.411-1.286,0.59-1.93c0.178-0.643,0.269-1.179,0.269-1.607
		c-1.859,1.072-3.396,2.108-4.61,3.108c-1.215,1.002-2.18,1.876-2.894,2.627c-0.716,0.75-1.251,1.34-1.608,1.769
		c-0.359,0.428-0.573,0.643-0.643,0.643c-1.287-1-2.163-1.999-2.626-3.001c-0.465-1-0.697-1.893-0.697-2.68
		c0-0.858,0.054-1.519,0.161-1.983c0.106-0.464,0.321-0.874,0.643-1.233c0.321-0.355,0.713-0.713,1.179-1.071
		c0.463-0.356,1.088-0.857,1.875-1.501h0.107c1-0.713,2.394-1.555,4.18-2.519c1.785-0.965,3.841-1.876,6.164-2.733
		c2.32-0.858,4.805-1.571,7.45-2.144c2.643-0.571,5.359-0.858,8.146-0.858c0.928,0,2.465,0.09,4.609,0.269
		c2.144,0.179,4.305,0.643,6.485,1.393c2.179,0.751,4.09,1.841,5.735,3.27c1.643,1.431,2.465,3.432,2.465,6.003
		c0,1.002-0.145,2.021-0.429,3.055c-0.287,1.037-0.607,1.948-0.965,2.734c-1.357,3.216-3.074,6.04-5.146,8.469
		c-2.073,2.43-4.359,4.466-6.86,6.109c-2.502,1.646-5.11,2.878-7.825,3.698c-2.716,0.822-5.359,1.232-7.932,1.232
		c-0.287,0-0.573-0.017-0.858-0.053c-0.286-0.035-0.573-0.054-0.857-0.054c1.571,1.93,3.484,3.717,5.734,5.359
		c2.252,1.645,4.626,3.056,7.129,4.234c2.5,1.179,5.073,2.091,7.718,2.733c2.644,0.644,5.146,0.964,7.504,0.964
		c1.857,0,3.465-0.09,4.824-0.268c1.356-0.179,2.75-0.804,4.181-1.876c0.713,0.714,1.106,1.571,1.179,2.573
		c0.07,1-0.18,1.965-0.751,2.895c-0.572,0.928-1.537,1.731-2.894,2.411c-1.358,0.679-3.146,1.054-5.36,1.126
		c-4.145,0.143-7.878-0.358-11.201-1.501c-3.322-1.144-6.415-2.698-9.272-4.663c-2.859-1.966-5.521-4.25-7.986-6.86
		c-2.465-2.607-4.914-5.27-7.343-7.985c-0.144,0.144-0.285,0.412-0.428,0.804c-0.145,0.394-0.269,0.804-0.376,1.232
		s-0.214,0.822-0.322,1.179c-0.105,0.359-0.16,0.645-0.16,0.858c-0.286,1.216-2.482,10.408-2.66,11.193
		c-0.18,0.787-0.34,1.573-0.482,2.358c-0.144,0.787-0.214,1.394-0.214,1.822c-0.145,0-0.447-0.072-0.911-0.214
		c-0.466-0.143-0.948-0.375-1.447-0.697c-0.501-0.321-0.965-0.75-1.394-1.286C218.865,178.386,218.65,177.653,218.65,176.724z
		 M233.477,147.951c-0.5,1.001-0.948,1.912-1.339,2.732c-0.394,0.822-0.788,1.646-1.18,2.466c-0.394,0.822-0.769,1.698-1.125,2.626
		c-0.358,0.931-0.787,2.037-1.287,3.323c0.571,0.358,1.448,0.572,2.627,0.643c1.179,0.072,2.198,0.107,3.055,0.107
		c4.288,0,8.343-1.16,12.167-3.482c3.822-2.322,6.948-5.843,9.379-10.56c0.786-1.57,1.447-3.071,1.983-4.502
		c0.536-1.429,0.804-2.644,0.804-3.645c0-0.928-0.358-1.732-1.072-2.412c-0.715-0.679-1.606-1.232-2.68-1.661
		c-1.071-0.429-2.233-0.751-3.483-0.965c-1.251-0.215-2.449-0.322-3.591-0.322c-1.93,0-3.806,0.18-5.628,0.536
		c-1.821,0.358-3.537,0.822-5.146,1.394c-1.607,0.573-3.073,1.198-4.395,1.876c-1.323,0.68-2.484,1.305-3.484,1.876
		c0.214,0,0.66,0.126,1.341,0.375c0.678,0.252,1.355,0.627,2.035,1.126c0.679,0.5,1.288,1.072,1.823,1.715
		c0.536,0.644,0.804,1.358,0.804,2.144c0,0.358,0,0.644,0,0.858c0,0.214-0.054,0.465-0.16,0.75
		c-0.107,0.286-0.269,0.644-0.483,1.071C234.228,146.45,233.906,147.093,233.477,147.951z"/>
	<path fill="#288DC1" d="M286.75,167.516c0,0.781-1.397,2.858-1.397,2.858c-1.231,1.303-2.806,2.497-4.724,3.583
		c-1.92,1.087-4.146,1.63-6.681,1.63c-1.883,0-3.475-0.399-4.778-1.194c-1.303-0.796-2.354-1.792-3.149-2.987
		c-0.798-1.194-1.357-2.479-1.685-3.855c-0.324-1.375-0.487-2.607-0.487-3.693c0-2.46,0.398-4.832,1.194-7.113
		s1.882-4.326,3.258-6.136c1.375-1.81,2.934-3.259,4.67-4.345c1.738-1.086,3.548-1.629,5.431-1.629c2.316,0,4.108,0.651,5.376,1.954
		c1.267,1.304,1.902,2.716,1.902,4.236c0,1.52-0.327,2.97-0.978,4.344c-0.652,1.377-1.54,2.591-2.661,3.639
		c-1.124,1.051-2.444,1.884-3.965,2.498c-1.521,0.616-3.114,0.924-4.779,0.924c-1.159,0-2.136-0.126-2.933-0.381
		c-0.797-0.252-1.375-0.56-1.737-0.923c-0.435,1.304-0.652,2.606-0.652,3.91c0,2.027,0.635,3.855,1.902,5.484
		c1.266,1.629,2.948,2.443,5.05,2.443c1.592,0,3.203-0.434,4.832-1.303c1.63-0.869,2.914-1.629,3.856-2.281
		c1.087-0.795,1.937-1.483,2.552-2.063 M271.776,154.517c-1.015,1.449-1.919,3.041-2.714,4.779c0.216,0.073,0.687,0.108,1.411,0.108
		c1.085,0,2.134-0.253,3.149-0.761c1.013-0.505,1.9-1.122,2.661-1.846s1.374-1.502,1.846-2.336c0.471-0.831,0.707-1.537,0.707-2.118
		c0-0.939-0.508-1.41-1.521-1.41c-0.724,0-1.575,0.271-2.553,0.813C273.786,152.29,272.79,153.214,271.776,154.517z"/>
</g>
<circle fill="#BE3A4A" cx="1299.87" cy="159.63" r="26.37"/>
<path fill="#BE3A4A" d="M189.24,78.63c0,14.563-18.553,26.37-33.117,26.37S136.5,93.193,136.5,78.63s5.279-26.37,19.843-26.37
	S189.24,64.066,189.24,78.63z"/>
<path fill="#288DC1" d="M198.669,52.455c14.456-1.769,28.427,15.214,30.195,29.67s-9.337,20.912-23.793,22.68
	c-14.456,1.769-26.815-2.038-28.584-16.494C174.719,73.854,184.213,54.223,198.669,52.455z"/>
<path fill="#FFFFFF" d="M176.487,88.311c0.396,3.239,1.328,5.94,2.692,8.167c5.911-4.696,10.061-10.963,10.061-17.848
	c0-5.491-2.608-10.589-6.637-14.812C177.906,71.039,175.524,80.439,176.487,88.311z"/>
<g>
	<path fill="#B20F70" d="M1120.602,420.109c1.469,0,2.845,0.135,4.122,0.406c1.277,0.271,2.612,0.522,4.007,0.755
		c0.696-1.472,1.807-3.354,2.428-5.134c0.619-1.78,2.825-7.231,3.521-8.856c-0.464,0.542-0.949,1.064-1.451,1.567
		c-0.504,0.504-1.027,1.027-1.568,1.567c-1.16,1.161-2.612,2.303-4.354,3.426c-1.742,1.121-3.699,1.916-5.865,2.381
		c0,0-0.613,0.231-1.91,0.403s-1.806,0.062-1.806,0.062c-2.787,0-5.091-0.522-6.909-1.568c-1.82-1.045-3.252-2.38-4.297-4.006
		s-1.782-3.368-2.207-5.226c-0.426-1.858-0.639-3.601-0.639-5.227c0-4.645,0.947-9.174,2.846-13.586
		c1.896-4.413,4.122-8.361,6.678-11.846c-2.556,0-4.878,0.099-6.969,0.291c-2.09,0.193-3.91,0.484-5.457,0.87
		c-0.389,0.156-1.008,0.389-1.858,0.697c-0.853,0.311-1.762,0.658-2.729,1.045c-0.969,0.389-1.897,0.813-2.787,1.277
		c-0.891,0.465-1.567,0.891-2.031,1.277c-0.389-0.929-0.697-1.741-0.93-2.438c-0.232-0.696-0.426-1.411-0.58-2.148
		c-0.156-0.734-0.232-1.411-0.232-2.032c0-0.387,0.25-0.889,0.754-1.51c0.504-0.618,1.606-1.237,3.311-1.858
		c0-0.076,0.444-0.231,1.336-0.464c0.889-0.232,2.012-0.482,3.367-0.755c1.354-0.271,2.845-0.522,4.471-0.755
		c1.626-0.231,3.174-0.349,4.645-0.349c1.781,0,3.543,0.137,5.284,0.406c1.742,0.273,3.502,0.602,5.284,0.988
		c3.483-3.174,6.967-5.477,10.451-6.91c3.484-1.432,6.852-2.148,10.104-2.148c1.16,0,2.264,0.078,3.309,0.232
		c1.046,0.156,2.033,0.311,2.962,0.465c0.464,0.156,1.161,0.367,2.091,0.639c0.928,0.271,1.857,0.736,2.787,1.393
		c0.928,0.659,1.741,1.551,2.438,2.672c0.697,1.123,1.045,2.536,1.045,4.238c0,2.014-0.484,3.678-1.451,4.993
		c-0.969,1.317-2.148,2.362-3.541,3.136c-1.395,0.774-2.846,1.317-4.355,1.626c-1.51,0.31-2.807,0.464-3.891,0.464
		c-2.014,0-3.871-0.154-5.574-0.464c-1.703-0.309-3.329-0.697-4.877-1.161c-1.549-0.465-3.02-0.947-4.412-1.452
		c-1.395-0.503-2.711-0.909-3.949-1.219c-3.483,3.175-6.426,6.949-8.825,11.322c-2.4,4.374-3.601,8.961-3.601,13.761
		c0,3.948,0.813,6.871,2.439,8.768c1.625,1.896,3.948,2.845,6.967,2.845c2.399,0,4.664-0.542,6.794-1.625
		c2.128-1.084,4.064-2.381,5.807-3.891c1.741-1.51,3.212-3.058,4.413-4.646c1.199-1.586,2.07-2.883,2.612-3.89
		c0.772-2.245,1.567-4.471,2.381-6.678c0.813-2.206,1.548-4.16,2.206-5.864c0.657-1.702,1.258-3.077,1.801-4.122
		c0.54-1.046,0.967-1.568,1.277-1.568c1.547,0,2.863,0.543,3.947,1.626c1.084,1.085,1.627,2.168,1.627,3.252
		c0,0.464-0.078,0.853-0.232,1.161c-0.697,1.317-1.473,2.711-2.323,4.181c-0.853,1.472-1.646,3.001-2.38,4.587
		c-0.737,1.588-1.336,3.155-1.801,4.703c-0.465,1.55-0.696,3.02-0.696,4.413c0,0.853,0.116,1.529,0.349,2.032
		c0.232,0.504,0.772,0.754,1.625,0.754c1.316,0,2.961-0.792,4.936-2.38c1.975-1.586,3.734-4.161,5.284-7.723v-0.116h0.116
		l0.232-0.116c0.232,0,0.464,0.116,0.696,0.349c0.076,0.078,0.116,0.156,0.116,0.232c-0.697,2.787-1.51,4.993-2.438,6.619
		s-2.169,3.135-3.716,4.528c-1.551,1.394-3.562,2.091-6.039,2.091c-0.697,0-1.434-0.135-2.207-0.406
		c-0.774-0.271-1.51-0.793-2.206-1.568c-1.472,3.328-5.983,10.43-7.532,13.294c1.781,0.309,3.601,0.562,5.459,0.755
		c1.857,0.192,3.638,0.291,5.342,0.291c3.56,0,6.753-0.446,9.58-1.336c2.825-0.891,5.052-1.8,6.678-2.729
		c0.232-0.078,0.715-0.368,1.451-0.871c0.734-0.505,1.527-1.045,2.381-1.626c0.851-0.58,1.664-1.181,2.438-1.8
		c0.772-0.619,1.315-1.121,1.626-1.51c0.076,0,0.27,0.232,0.58,0.697c0.309,0.464,0.619,1.045,0.93,1.741
		c0.309,0.697,0.58,1.452,0.812,2.265s0.348,1.528,0.348,2.148c0,1.548-0.87,2.863-2.612,3.948
		c-1.741,1.083-3.794,1.975-6.155,2.671c-2.361,0.697-4.801,1.18-7.315,1.451c-2.517,0.271-4.549,0.407-6.097,0.407
		c-3.252-0.078-6.311-0.407-9.174-0.987c-2.865-0.581-5.652-1.22-8.361-1.916c-1.161,2.322-2.729,3.948-4.703,4.877
		c-1.975,0.93-3.736,1.394-5.283,1.394c-0.156,0-0.602-0.02-1.336-0.058c-0.736-0.04-1.51-0.232-2.322-0.581
		s-1.55-0.891-2.207-1.626c-0.658-0.736-0.986-1.8-0.986-3.193c0-1.781,0.465-3.193,1.393-4.238c0.93-1.045,1.898-1.716,2.904-2.032
		c-1.348,0.424,0.465-0.154,1.184-0.201S1120.602,420.109,1120.602,420.109z M1115.884,426.496c0,1.006,0.366,1.742,1.104,2.207
		c0.735,0.464,1.684,0.696,2.845,0.696c1.006,0,2.07-0.349,3.193-1.045c1.121-0.697,2.225-2.014,3.311-3.948
		c-1.008-0.389-1.975-0.736-2.904-1.045c-0.929-0.311-1.897-0.465-2.902-0.465c-1.008,0-2.033,0.25-3.078,0.755
		C1116.406,424.154,1115.884,425.103,1115.884,426.496z M1145.596,370.932c-2.014-1.701-4.452-2.555-7.315-2.555
		c-1.937,0-3.948,0.369-6.038,1.104c-2.091,0.736-4.143,1.762-6.155,3.077c2.322,1.007,4.663,1.956,7.025,2.846
		c2.36,0.891,4.703,1.335,7.026,1.335c0.54-0.076,1.16-0.25,1.857-0.522c0.697-0.271,1.354-0.599,1.975-0.987
		c0.618-0.386,1.141-0.812,1.567-1.277c0.425-0.464,0.639-0.929,0.639-1.394C1146.177,372.094,1145.982,371.553,1145.596,370.932z"
		/>
	<path fill="#B20F70" d="M1179.969,400.312c0.154,0.156,0.232,0.31,0.232,0.464c-1.16,2.169-2.516,4.064-4.064,5.69
		c-1.316,1.394-3,2.671-5.051,3.832c-2.053,1.161-4.434,1.742-7.143,1.742c-2.014,0-3.715-0.427-5.109-1.277
		c-1.393-0.851-2.517-1.916-3.367-3.193c-0.854-1.277-1.451-2.651-1.801-4.123c-0.348-1.47-0.521-2.787-0.521-3.948
		c0-2.631,0.426-5.167,1.277-7.606c0.851-2.438,2.012-4.625,3.483-6.561c1.47-1.935,3.136-3.484,4.993-4.646
		c1.858-1.161,3.793-1.741,5.807-1.741c2.477,0,4.393,0.696,5.748,2.09c1.354,1.394,2.033,2.903,2.033,4.529
		c0,1.625-0.35,3.175-1.046,4.645c-0.696,1.472-1.646,2.77-2.845,3.891c-1.201,1.123-2.613,2.014-4.238,2.671
		c-1.627,0.658-3.33,0.987-5.11,0.987c-1.239,0-2.284-0.135-3.136-0.407c-0.853-0.27-1.471-0.599-1.857-0.986
		c-0.465,1.394-0.697,2.787-0.697,4.181c0,2.168,0.678,4.122,2.033,5.864c1.354,1.741,3.152,2.612,5.399,2.612
		c1.702,0,3.425-0.464,5.167-1.394c1.742-0.929,3.115-1.741,4.123-2.438c1.161-0.851,2.07-1.586,2.729-2.206
		c0.657-0.619,1.142-1.142,1.452-1.568c0.308-0.424,0.522-0.734,0.639-0.929c0.116-0.192,0.25-0.29,0.406-0.29
		C1179.659,400.196,1179.813,400.236,1179.969,400.312z M1161.621,389.513c-1.085,1.549-2.052,3.251-2.902,5.109
		c0.231,0.078,0.734,0.116,1.51,0.116c1.16,0,2.281-0.271,3.367-0.813c1.083-0.54,2.032-1.199,2.845-1.974
		c0.813-0.773,1.47-1.605,1.974-2.497c0.504-0.889,0.756-1.644,0.756-2.265c0-1.005-0.543-1.509-1.626-1.509
		c-0.774,0-1.685,0.29-2.729,0.87C1163.77,387.132,1162.705,388.119,1161.621,389.513z"/>
	<path fill="#B20F70" d="M1194.369,406.815c-1.086-1.548-1.626-3.6-1.626-6.155c0-2.09,0.232-3.966,0.696-5.632
		c0.465-1.664,1.084-3.542,1.858-5.632c-0.696,1.317-1.567,2.923-2.612,4.819c-1.045,1.897-2.072,3.832-3.078,5.806
		c-1.007,1.975-1.916,3.833-2.729,5.574c-0.812,1.742-1.336,3.04-1.568,3.891c-0.388,1.007-0.774,1.78-1.16,2.322
		c-0.389,0.541-0.834,1.045-1.336,1.51c-0.504,0.465-1.065,0.697-1.684,0.697c-1.858,0-3.096-0.717-3.717-2.148
		c-0.618-1.432-0.929-3.31-0.929-5.633c0-2.555,0.311-5.069,0.929-7.548c0.621-2.477,1.318-4.722,2.091-6.735
		c0.772-2.013,1.509-3.696,2.206-5.052c0.697-1.354,1.121-2.187,1.277-2.496c0.465-0.93,0.93-2.032,1.394-3.311
		c0.465-1.277,0.772-2.186,0.929-2.729c0.232,0,0.657,0.194,1.277,0.581c0.619,0.388,1.22,0.87,1.801,1.451
		c0.58,0.581,1.104,1.22,1.567,1.916c0.464,0.697,0.696,1.355,0.696,1.975c0,1.317-0.464,2.787-1.393,4.412
		c-0.93,1.626-1.957,3.388-3.078,5.284c-1.123,1.897-2.148,3.891-3.077,5.98s-1.394,4.297-1.394,6.619
		c0,0.621,0.038,1.085,0.116,1.394c2.555-4.877,4.779-8.922,6.677-12.135c1.896-3.212,3.543-5.807,4.936-7.781
		c1.395-1.974,2.555-3.521,3.484-4.645c0.929-1.122,1.684-2.051,2.265-2.787c0.581-0.735,1.024-1.394,1.335-1.975
		c0.309-0.58,0.581-1.411,0.812-2.496c0.076,0,0.407,0.174,0.988,0.522c0.58,0.348,1.179,0.812,1.799,1.394
		c0.619,0.58,1.2,1.201,1.742,1.857c0.541,0.659,0.812,1.336,0.812,2.032c0,0.232-0.057,0.659-0.174,1.277
		c-0.115,0.621-0.33,1.085-0.639,1.394c-0.62,1.317-1.375,2.691-2.264,4.123c-0.892,1.434-1.742,2.923-2.555,4.471
		c-0.813,1.55-1.51,3.117-2.091,4.703c-0.581,1.588-0.871,3.155-0.871,4.703c0,0.853,0.097,1.567,0.29,2.148
		c0.193,0.58,0.639,0.871,1.336,0.871c1.005,0,2.34-0.793,4.006-2.381c1.664-1.586,3.27-4.16,4.82-7.723l0.231-0.116
		c0.232,0,0.465,0.116,0.696,0.349l0.232,0.232c0,0.156-0.252,0.911-0.754,2.265c-0.505,1.355-1.22,2.845-2.148,4.471
		c-0.93,1.626-2.072,3.098-3.426,4.413c-1.355,1.317-2.885,1.974-4.588,1.974c-0.696,0-1.434-0.154-2.206-0.464
		C1195.801,408.365,1195.066,407.744,1194.369,406.815z"/>
	<path fill="#B20F70" d="M1237.799,405.538c-0.311,0.465-0.717,1.007-1.219,1.626c-0.505,0.62-1.123,1.219-1.858,1.8
		c-0.737,0.58-1.567,1.064-2.497,1.451c-0.929,0.387-1.975,0.581-3.135,0.581c-0.854,0-1.879-0.251-3.078-0.755
		c-1.201-0.503-1.994-1.49-2.381-2.961c-0.62,0.62-1.665,1.433-3.135,2.438c-1.472,1.007-3.213,1.51-5.226,1.51
		c-1.704,0-3.136-0.407-4.297-1.22s-2.091-1.8-2.787-2.961s-1.199-2.419-1.51-3.774c-0.308-1.354-0.464-2.613-0.464-3.774
		c0-1.857,0.388-3.928,1.16-6.213c0.773-2.282,1.896-4.431,3.368-6.444c1.47-2.013,3.252-3.696,5.342-5.052
		c2.091-1.354,4.413-2.032,6.968-2.032c1.161,0,2.225,0.116,3.193,0.349c0.967,0.232,1.801,0.542,2.497,0.929
		c1.161-2.941,2.187-5.477,3.077-7.606c0.889-2.128,1.568-3.733,2.032-4.819l0.813-2.438c0.232-0.696,0.443-1.394,0.639-2.091
		c0.191-0.696,0.29-1.277,0.29-1.741c0.153,0.077,0.581,0.252,1.277,0.522c0.696,0.271,1.432,0.639,2.206,1.104
		c0.773,0.465,1.47,1.027,2.09,1.684c0.619,0.658,0.93,1.414,0.93,2.264c0,0.389-0.04,0.813-0.116,1.278
		c-0.078,0.464-0.232,1.007-0.464,1.626c-0.543,1.239-1.551,3.349-3.02,6.328c-1.472,2.981-3.002,6.213-4.588,9.697
		c-1.587,3.483-2.98,6.909-4.18,10.277c-1.201,3.367-1.801,6.021-1.801,7.954c0,1.626,0.657,2.438,1.975,2.438
		c1.315,0,2.941-0.793,4.877-2.38c1.935-1.586,3.677-4.161,5.227-7.723l0.232-0.116c0.308,0,0.58,0.116,0.812,0.349l0.232,0.232
		c0,0.31-0.252,1.201-0.756,2.671C1240.023,402.016,1239.114,403.68,1237.799,405.538z M1223.167,405.189
		c-0.078-0.309-0.116-0.851-0.116-1.626c0-2.166,0.309-4.604,0.93-7.315c0.618-2.709,1.393-5.418,2.322-8.129
		c-1.24-1.006-2.672-1.51-4.297-1.51c-1.55,0-3.039,0.484-4.471,1.451c-1.434,0.969-2.691,2.207-3.774,3.717
		c-1.085,1.509-1.956,3.155-2.612,4.935c-0.659,1.782-0.988,3.524-0.988,5.227c0,2.246,0.678,3.89,2.033,4.935
		c1.354,1.046,2.883,1.568,4.586,1.568c1.238,0,2.42-0.271,3.543-0.813C1221.443,407.088,1222.393,406.274,1223.167,405.189z"/>
	<path fill="#14A4DB" d="M1243.65,415.724c0-1.501,2.16-11.175,2.553-12.641c0.393-1.464,0.768-3.018,1.127-4.662
		c-1.646-0.786-2.985-1.608-4.021-2.466c-1.036-0.858-1.858-1.644-2.465-2.358c-0.607-0.714-1.162-1.5-1.661-2.358
		c-0.072,0-0.107-0.035-0.107-0.107v-0.214c0-0.356,0.214-0.536,0.644-0.536c0.143,0,0.375,0.251,0.696,0.75
		c0.321,0.501,0.786,1.091,1.394,1.769c0.606,0.681,1.394,1.341,2.358,1.983c0.964,0.644,2.197,1.108,3.698,1.394
		c0.285-1.356,0.625-2.608,1.019-3.752c0.392-1.143,0.785-2.214,1.179-3.216c0.392-0.999,0.785-2.018,1.18-3.055
		c0.391-1.035,0.766-2.197,1.125-3.484l0.75-2.251c0.215-0.644,0.411-1.286,0.59-1.93c0.178-0.643,0.269-1.179,0.269-1.607
		c-1.859,1.072-3.396,2.108-4.61,3.108c-1.215,1.002-2.18,1.876-2.894,2.627c-0.716,0.75-1.251,1.34-1.608,1.769
		c-0.358,0.428-0.572,0.643-0.643,0.643c-1.287-1-2.162-1.999-2.627-3.001c-0.465-1-0.696-1.893-0.696-2.68
		c0-0.858,0.054-1.519,0.161-1.983c0.106-0.464,0.321-0.874,0.643-1.233c0.322-0.355,0.714-0.713,1.18-1.071
		c0.463-0.356,1.088-0.857,1.875-1.501h0.107c1-0.713,2.395-1.555,4.181-2.519c1.785-0.965,3.841-1.876,6.164-2.733
		c2.32-0.858,4.805-1.571,7.45-2.144c2.643-0.571,5.359-0.858,8.146-0.858c0.928,0,2.465,0.09,4.609,0.269
		c2.144,0.179,4.305,0.643,6.485,1.393c2.179,0.751,4.09,1.841,5.735,3.27c1.643,1.431,2.465,3.432,2.465,6.003
		c0,1.002-0.145,2.021-0.429,3.055c-0.287,1.037-0.607,1.948-0.965,2.734c-1.357,3.216-3.074,6.04-5.146,8.469
		c-2.073,2.43-4.359,4.466-6.86,6.109c-2.502,1.646-5.11,2.878-7.825,3.698c-2.716,0.822-5.359,1.232-7.932,1.232
		c-0.287,0-0.573-0.017-0.858-0.053c-0.286-0.035-0.573-0.054-0.857-0.054c1.571,1.93,3.484,3.717,5.734,5.359
		c2.252,1.645,4.626,3.056,7.129,4.234c2.5,1.179,5.073,2.091,7.718,2.733c2.644,0.644,5.146,0.964,7.504,0.964
		c1.857,0,3.465-0.09,4.824-0.268c1.356-0.179,2.75-0.804,4.181-1.876c0.713,0.714,1.106,1.571,1.179,2.573
		c0.07,1-0.18,1.965-0.751,2.895c-0.572,0.928-1.537,1.731-2.894,2.411c-1.358,0.679-3.146,1.054-5.36,1.126
		c-4.145,0.143-7.878-0.358-11.201-1.501c-3.322-1.144-6.415-2.698-9.272-4.663c-2.859-1.966-5.521-4.25-7.986-6.86
		c-2.465-2.607-4.914-5.27-7.343-7.985c-0.144,0.144-0.285,0.412-0.428,0.804c-0.145,0.394-0.269,0.804-0.376,1.232
		s-0.214,0.822-0.322,1.179c-0.105,0.359-0.16,0.645-0.16,0.858c-0.286,1.216-2.482,10.408-2.66,11.193
		c-0.18,0.787-0.34,1.573-0.482,2.358c-0.144,0.787-0.214,1.394-0.214,1.822c-0.145,0-0.447-0.072-0.911-0.214
		c-0.466-0.143-0.948-0.375-1.447-0.697c-0.502-0.321-0.965-0.75-1.395-1.286C1243.865,417.386,1243.65,416.653,1243.65,415.724z
		 M1258.477,386.951c-0.5,1.001-0.948,1.912-1.339,2.732c-0.394,0.822-0.788,1.646-1.18,2.466c-0.394,0.822-0.769,1.698-1.125,2.626
		c-0.358,0.931-0.787,2.037-1.287,3.323c0.571,0.358,1.448,0.572,2.627,0.643c1.179,0.072,2.198,0.107,3.055,0.107
		c4.288,0,8.343-1.16,12.167-3.482c3.822-2.322,6.948-5.843,9.379-10.56c0.786-1.57,1.447-3.071,1.983-4.502
		c0.536-1.429,0.804-2.644,0.804-3.645c0-0.928-0.358-1.732-1.072-2.412c-0.715-0.679-1.606-1.232-2.68-1.661
		c-1.071-0.429-2.233-0.751-3.483-0.965c-1.251-0.215-2.449-0.322-3.591-0.322c-1.93,0-3.806,0.18-5.628,0.536
		c-1.821,0.358-3.537,0.822-5.146,1.394c-1.607,0.573-3.073,1.198-4.395,1.876c-1.323,0.68-2.484,1.305-3.484,1.876
		c0.214,0,0.66,0.126,1.341,0.375c0.678,0.252,1.355,0.627,2.035,1.126c0.679,0.5,1.288,1.072,1.823,1.715
		c0.536,0.644,0.804,1.358,0.804,2.144c0,0.358,0,0.644,0,0.858c0,0.214-0.054,0.465-0.16,0.75
		c-0.107,0.286-0.269,0.644-0.483,1.071C1259.228,385.45,1258.906,386.093,1258.477,386.951z"/>
	<path fill="#14A4DB" d="M1311.75,406.516c0,0.781-1.397,2.858-1.397,2.858c-1.231,1.303-2.806,2.497-4.724,3.583
		c-1.92,1.087-4.146,1.63-6.681,1.63c-1.883,0-3.475-0.399-4.778-1.194c-1.303-0.796-2.354-1.792-3.149-2.987
		c-0.798-1.194-1.357-2.479-1.685-3.855c-0.324-1.375-0.487-2.607-0.487-3.693c0-2.46,0.398-4.832,1.194-7.113
		s1.882-4.326,3.258-6.136c1.375-1.81,2.934-3.259,4.67-4.345c1.738-1.086,3.548-1.629,5.431-1.629c2.316,0,4.108,0.651,5.376,1.954
		c1.267,1.304,1.902,2.716,1.902,4.236c0,1.52-0.327,2.97-0.978,4.344c-0.652,1.377-1.54,2.591-2.661,3.639
		c-1.124,1.051-2.444,1.884-3.965,2.498c-1.521,0.616-3.114,0.924-4.779,0.924c-1.159,0-2.136-0.126-2.933-0.381
		c-0.797-0.252-1.375-0.56-1.737-0.923c-0.435,1.304-0.652,2.606-0.652,3.91c0,2.027,0.635,3.855,1.902,5.484
		c1.266,1.629,2.948,2.443,5.05,2.443c1.592,0,3.203-0.434,4.832-1.303c1.63-0.869,2.914-1.629,3.856-2.281
		c1.087-0.795,1.937-1.483,2.552-2.063 M1296.776,393.517c-1.015,1.449-1.919,3.041-2.714,4.779
		c0.216,0.073,0.687,0.108,1.411,0.108c1.085,0,2.134-0.253,3.149-0.761c1.013-0.505,1.9-1.122,2.661-1.846s1.374-1.502,1.846-2.336
		c0.471-0.831,0.707-1.537,0.707-2.118c0-0.939-0.508-1.41-1.521-1.41c-0.724,0-1.575,0.271-2.553,0.813
		C1298.786,391.29,1297.79,392.214,1296.776,393.517z"/>
</g>
<path fill="#B20F70" d="M1214.24,317.63c0,14.563-18.553,26.37-33.117,26.37c-14.563,0-19.623-11.807-19.623-26.37
	s5.279-26.37,19.843-26.37S1214.24,303.066,1214.24,317.63z"/>
<path fill="#14A4DB" d="M1223.669,291.455c14.456-1.769,28.427,15.214,30.195,29.67s-9.337,20.912-23.793,22.68
	c-14.456,1.769-26.815-2.038-28.584-16.494S1209.213,293.223,1223.669,291.455z"/>
<path fill="#FFFFFF" d="M1201.487,327.311c0.396,3.239,1.328,5.94,2.692,8.167c5.911-4.696,10.061-10.963,10.061-17.848
	c0-5.491-2.608-10.589-6.637-14.812C1202.906,310.039,1200.524,319.439,1201.487,327.311z"/>
<path fill="#C470A0" d="M1120.602,597.109c1.469,0,2.845,0.135,4.122,0.406c1.277,0.271,2.612,0.522,4.007,0.755
	c0.696-1.472,1.807-3.354,2.428-5.134c0.619-1.78,2.825-7.231,3.521-8.856c-0.464,0.542-0.949,1.064-1.451,1.567
	c-0.504,0.504-1.027,1.027-1.568,1.567c-1.16,1.161-2.612,2.303-4.354,3.426c-1.742,1.121-3.699,1.916-5.865,2.381
	c0,0-0.613,0.231-1.91,0.403s-1.806,0.062-1.806,0.062c-2.787,0-5.091-0.522-6.909-1.568c-1.82-1.045-3.252-2.38-4.297-4.006
	s-1.782-3.368-2.207-5.226c-0.426-1.858-0.639-3.601-0.639-5.227c0-4.645,0.947-9.174,2.846-13.586
	c1.896-4.413,4.122-8.361,6.678-11.846c-2.556,0-4.878,0.099-6.969,0.291c-2.09,0.193-3.91,0.484-5.457,0.87
	c-0.389,0.156-1.008,0.389-1.858,0.697c-0.853,0.311-1.762,0.658-2.729,1.045c-0.969,0.389-1.897,0.813-2.787,1.277
	c-0.891,0.465-1.567,0.891-2.031,1.277c-0.389-0.929-0.697-1.741-0.93-2.438c-0.232-0.696-0.426-1.411-0.58-2.148
	c-0.156-0.734-0.232-1.411-0.232-2.032c0-0.387,0.25-0.889,0.754-1.51c0.504-0.618,1.606-1.237,3.311-1.858
	c0-0.076,0.444-0.231,1.336-0.464c0.889-0.232,2.012-0.482,3.367-0.755c1.354-0.271,2.845-0.522,4.471-0.755
	c1.626-0.231,3.174-0.349,4.645-0.349c1.781,0,3.543,0.137,5.284,0.406c1.742,0.273,3.502,0.602,5.284,0.988
	c3.483-3.174,6.967-5.477,10.451-6.91c3.484-1.432,6.852-2.148,10.104-2.148c1.16,0,2.264,0.078,3.309,0.232
	c1.046,0.156,2.033,0.311,2.962,0.465c0.464,0.156,1.161,0.367,2.091,0.639c0.928,0.271,1.857,0.736,2.787,1.393
	c0.928,0.659,1.741,1.551,2.438,2.672c0.697,1.123,1.045,2.536,1.045,4.238c0,2.014-0.484,3.678-1.451,4.993
	c-0.969,1.317-2.148,2.362-3.541,3.136c-1.395,0.774-2.846,1.317-4.355,1.626c-1.51,0.31-2.807,0.464-3.891,0.464
	c-2.014,0-3.871-0.154-5.574-0.464c-1.703-0.309-3.329-0.697-4.877-1.161c-1.549-0.465-3.02-0.947-4.412-1.452
	c-1.395-0.503-2.711-0.909-3.949-1.219c-3.483,3.175-6.426,6.949-8.825,11.322c-2.4,4.374-3.601,8.961-3.601,13.761
	c0,3.948,0.813,6.871,2.439,8.768c1.625,1.896,3.948,2.845,6.967,2.845c2.399,0,4.664-0.542,6.794-1.625
	c2.128-1.084,4.064-2.381,5.807-3.891c1.741-1.51,3.212-3.058,4.413-4.646c1.199-1.586,2.07-2.883,2.612-3.89
	c0.772-2.245,1.567-4.471,2.381-6.678c0.813-2.206,1.548-4.16,2.206-5.864c0.657-1.702,1.258-3.077,1.801-4.122
	c0.54-1.046,0.967-1.568,1.277-1.568c1.547,0,2.863,0.543,3.947,1.626c1.084,1.085,1.627,2.168,1.627,3.252
	c0,0.464-0.078,0.853-0.232,1.161c-0.697,1.317-1.473,2.711-2.323,4.181c-0.853,1.472-1.646,3.001-2.38,4.587
	c-0.737,1.588-1.336,3.155-1.801,4.703c-0.465,1.55-0.696,3.02-0.696,4.413c0,0.853,0.116,1.529,0.349,2.032
	c0.232,0.504,0.772,0.754,1.625,0.754c1.316,0,2.961-0.792,4.936-2.38c1.975-1.586,3.734-4.161,5.284-7.723v-0.116h0.116
	l0.232-0.116c0.232,0,0.464,0.116,0.696,0.349c0.076,0.078,0.116,0.156,0.116,0.232c-0.697,2.787-1.51,4.993-2.438,6.619
	s-2.169,3.135-3.716,4.528c-1.551,1.394-3.562,2.091-6.039,2.091c-0.697,0-1.434-0.135-2.207-0.406
	c-0.774-0.271-1.51-0.793-2.206-1.568c-1.472,3.328-5.983,10.43-7.532,13.294c1.781,0.309,3.601,0.562,5.459,0.755
	c1.857,0.192,3.638,0.291,5.342,0.291c3.56,0,6.753-0.446,9.58-1.336c2.825-0.891,5.052-1.8,6.678-2.729
	c0.232-0.078,0.715-0.368,1.451-0.871c0.734-0.505,1.527-1.045,2.381-1.626c0.851-0.58,1.664-1.181,2.438-1.8
	c0.772-0.619,1.315-1.121,1.626-1.51c0.076,0,0.27,0.232,0.58,0.697c0.309,0.464,0.619,1.045,0.93,1.741
	c0.309,0.697,0.58,1.452,0.812,2.265s0.348,1.528,0.348,2.148c0,1.548-0.87,2.863-2.612,3.948c-1.741,1.083-3.794,1.975-6.155,2.671
	c-2.361,0.697-4.801,1.18-7.315,1.451c-2.517,0.271-4.549,0.407-6.097,0.407c-3.252-0.078-6.311-0.407-9.174-0.987
	c-2.865-0.581-5.652-1.22-8.361-1.916c-1.161,2.322-2.729,3.948-4.703,4.877c-1.975,0.93-3.736,1.394-5.283,1.394
	c-0.156,0-0.602-0.02-1.336-0.058c-0.736-0.04-1.51-0.232-2.322-0.581s-1.55-0.891-2.207-1.626c-0.658-0.736-0.986-1.8-0.986-3.193
	c0-1.781,0.465-3.193,1.393-4.238c0.93-1.045,1.898-1.716,2.904-2.032c-1.348,0.424,0.465-0.154,1.184-0.201
	S1120.602,597.109,1120.602,597.109z M1115.884,603.496c0,1.006,0.366,1.742,1.104,2.207c0.735,0.464,1.684,0.696,2.845,0.696
	c1.006,0,2.07-0.349,3.193-1.045c1.121-0.697,2.225-2.014,3.311-3.948c-1.008-0.389-1.975-0.736-2.904-1.045
	c-0.929-0.311-1.897-0.465-2.902-0.465c-1.008,0-2.033,0.25-3.078,0.755C1116.406,601.154,1115.884,602.103,1115.884,603.496z
	 M1145.596,547.932c-2.014-1.701-4.452-2.555-7.315-2.555c-1.937,0-3.948,0.369-6.038,1.104c-2.091,0.736-4.143,1.762-6.155,3.077
	c2.322,1.007,4.663,1.956,7.025,2.846c2.36,0.891,4.703,1.335,7.026,1.335c0.54-0.076,1.16-0.25,1.857-0.522
	c0.697-0.271,1.354-0.599,1.975-0.987c0.618-0.386,1.141-0.812,1.567-1.277c0.425-0.464,0.639-0.929,0.639-1.394
	C1146.177,549.094,1145.982,548.553,1145.596,547.932z"/>
<path fill="#C470A0" d="M1179.969,577.312c0.154,0.156,0.232,0.31,0.232,0.464c-1.16,2.169-2.516,4.064-4.064,5.69
	c-1.316,1.394-3,2.671-5.051,3.832c-2.053,1.161-4.434,1.742-7.143,1.742c-2.014,0-3.715-0.427-5.109-1.277
	c-1.393-0.851-2.517-1.916-3.367-3.193c-0.854-1.277-1.451-2.651-1.801-4.123c-0.348-1.47-0.521-2.787-0.521-3.948
	c0-2.631,0.426-5.167,1.277-7.606c0.851-2.438,2.012-4.625,3.483-6.561c1.47-1.935,3.136-3.484,4.993-4.646
	c1.858-1.161,3.793-1.741,5.807-1.741c2.477,0,4.393,0.696,5.748,2.09c1.354,1.394,2.033,2.903,2.033,4.529
	c0,1.625-0.35,3.175-1.046,4.645c-0.696,1.472-1.646,2.77-2.845,3.891c-1.201,1.123-2.613,2.014-4.238,2.671
	c-1.627,0.658-3.33,0.987-5.11,0.987c-1.239,0-2.284-0.135-3.136-0.407c-0.853-0.27-1.471-0.599-1.857-0.986
	c-0.465,1.394-0.697,2.787-0.697,4.181c0,2.168,0.678,4.122,2.033,5.864c1.354,1.741,3.152,2.612,5.399,2.612
	c1.702,0,3.425-0.464,5.167-1.394c1.742-0.929,3.115-1.741,4.123-2.438c1.161-0.851,2.07-1.586,2.729-2.206
	c0.657-0.619,1.142-1.142,1.452-1.568c0.308-0.424,0.522-0.734,0.639-0.929c0.116-0.192,0.25-0.29,0.406-0.29
	C1179.659,577.196,1179.813,577.236,1179.969,577.312z M1161.621,566.513c-1.085,1.549-2.052,3.251-2.902,5.109
	c0.231,0.078,0.734,0.116,1.51,0.116c1.16,0,2.281-0.271,3.367-0.813c1.083-0.54,2.032-1.199,2.845-1.974
	c0.813-0.773,1.47-1.605,1.974-2.497c0.504-0.889,0.756-1.644,0.756-2.265c0-1.005-0.543-1.509-1.626-1.509
	c-0.774,0-1.685,0.29-2.729,0.87C1163.77,564.132,1162.705,565.119,1161.621,566.513z"/>
<path fill="#C470A0" d="M1194.369,583.815c-1.086-1.548-1.626-3.6-1.626-6.155c0-2.09,0.232-3.966,0.696-5.632
	c0.465-1.664,1.084-3.542,1.858-5.632c-0.696,1.317-1.567,2.923-2.612,4.819c-1.045,1.897-2.072,3.832-3.078,5.806
	c-1.007,1.975-1.916,3.833-2.729,5.574c-0.812,1.742-1.336,3.04-1.568,3.891c-0.388,1.007-0.774,1.78-1.16,2.322
	c-0.389,0.541-0.834,1.045-1.336,1.51c-0.504,0.465-1.065,0.697-1.684,0.697c-1.858,0-3.096-0.717-3.717-2.148
	c-0.618-1.432-0.929-3.31-0.929-5.633c0-2.555,0.311-5.069,0.929-7.548c0.621-2.477,1.318-4.722,2.091-6.735
	c0.772-2.013,1.509-3.696,2.206-5.052c0.697-1.354,1.121-2.187,1.277-2.496c0.465-0.93,0.93-2.032,1.394-3.311
	c0.465-1.277,0.772-2.186,0.929-2.729c0.232,0,0.657,0.194,1.277,0.581c0.619,0.388,1.22,0.87,1.801,1.451
	c0.58,0.581,1.104,1.22,1.567,1.916c0.464,0.697,0.696,1.355,0.696,1.975c0,1.317-0.464,2.787-1.393,4.412
	c-0.93,1.626-1.957,3.388-3.078,5.284c-1.123,1.897-2.148,3.891-3.077,5.98s-1.394,4.297-1.394,6.619
	c0,0.621,0.038,1.085,0.116,1.394c2.555-4.877,4.779-8.922,6.677-12.135c1.896-3.212,3.543-5.807,4.936-7.781
	c1.395-1.974,2.555-3.521,3.484-4.645c0.929-1.122,1.684-2.051,2.265-2.787c0.581-0.735,1.024-1.394,1.335-1.975
	c0.309-0.58,0.581-1.411,0.812-2.496c0.076,0,0.407,0.174,0.988,0.522c0.58,0.348,1.179,0.812,1.799,1.394
	c0.619,0.58,1.2,1.201,1.742,1.857c0.541,0.659,0.812,1.336,0.812,2.032c0,0.232-0.057,0.659-0.174,1.277
	c-0.115,0.621-0.33,1.085-0.639,1.394c-0.62,1.317-1.375,2.691-2.264,4.123c-0.892,1.434-1.742,2.923-2.555,4.471
	c-0.813,1.55-1.51,3.117-2.091,4.703c-0.581,1.588-0.871,3.155-0.871,4.703c0,0.853,0.097,1.567,0.29,2.148
	c0.193,0.58,0.639,0.871,1.336,0.871c1.005,0,2.34-0.793,4.006-2.381c1.664-1.586,3.27-4.16,4.82-7.723l0.231-0.116
	c0.232,0,0.465,0.116,0.696,0.349l0.232,0.232c0,0.156-0.252,0.911-0.754,2.265c-0.505,1.355-1.22,2.845-2.148,4.471
	c-0.93,1.626-2.072,3.098-3.426,4.413c-1.355,1.317-2.885,1.974-4.588,1.974c-0.696,0-1.434-0.154-2.206-0.464
	C1195.801,585.365,1195.066,584.744,1194.369,583.815z"/>
<path fill="#C470A0" d="M1237.799,582.538c-0.311,0.465-0.717,1.007-1.219,1.626c-0.505,0.62-1.123,1.219-1.858,1.8
	c-0.737,0.58-1.567,1.064-2.497,1.451c-0.929,0.387-1.975,0.581-3.135,0.581c-0.854,0-1.879-0.251-3.078-0.755
	c-1.201-0.503-1.994-1.49-2.381-2.961c-0.62,0.62-1.665,1.433-3.135,2.438c-1.472,1.007-3.213,1.51-5.226,1.51
	c-1.704,0-3.136-0.407-4.297-1.22s-2.091-1.8-2.787-2.961s-1.199-2.419-1.51-3.774c-0.308-1.354-0.464-2.613-0.464-3.774
	c0-1.857,0.388-3.928,1.16-6.213c0.773-2.282,1.896-4.431,3.368-6.444c1.47-2.013,3.252-3.696,5.342-5.052
	c2.091-1.354,4.413-2.032,6.968-2.032c1.161,0,2.225,0.116,3.193,0.349c0.967,0.232,1.801,0.542,2.497,0.929
	c1.161-2.941,2.187-5.477,3.077-7.606c0.889-2.128,1.568-3.733,2.032-4.819l0.813-2.438c0.232-0.696,0.443-1.394,0.639-2.091
	c0.191-0.696,0.29-1.277,0.29-1.741c0.153,0.077,0.581,0.252,1.277,0.522c0.696,0.271,1.432,0.639,2.206,1.104
	c0.773,0.465,1.47,1.027,2.09,1.684c0.619,0.658,0.93,1.414,0.93,2.264c0,0.389-0.04,0.813-0.116,1.278
	c-0.078,0.464-0.232,1.007-0.464,1.626c-0.543,1.239-1.551,3.349-3.02,6.328c-1.472,2.981-3.002,6.213-4.588,9.697
	c-1.587,3.483-2.98,6.909-4.18,10.277c-1.201,3.367-1.801,6.021-1.801,7.954c0,1.626,0.657,2.438,1.975,2.438
	c1.315,0,2.941-0.793,4.877-2.38c1.935-1.586,3.677-4.161,5.227-7.723l0.232-0.116c0.308,0,0.58,0.116,0.812,0.349l0.232,0.232
	c0,0.31-0.252,1.201-0.756,2.671C1240.023,579.016,1239.114,580.68,1237.799,582.538z M1223.167,582.189
	c-0.078-0.309-0.116-0.851-0.116-1.626c0-2.166,0.309-4.604,0.93-7.315c0.618-2.709,1.393-5.418,2.322-8.129
	c-1.24-1.006-2.672-1.51-4.297-1.51c-1.55,0-3.039,0.484-4.471,1.451c-1.434,0.969-2.691,2.207-3.774,3.717
	c-1.085,1.509-1.956,3.155-2.612,4.935c-0.659,1.782-0.988,3.524-0.988,5.227c0,2.246,0.678,3.89,2.033,4.935
	c1.354,1.046,2.883,1.568,4.586,1.568c1.238,0,2.42-0.271,3.543-0.813C1221.443,584.088,1222.393,583.274,1223.167,582.189z"/>
<path fill="#73AFBF" d="M1243.65,592.724c0-1.501,2.16-11.175,2.553-12.641c0.393-1.464,0.768-3.018,1.127-4.662
	c-1.646-0.786-2.985-1.608-4.021-2.466c-1.036-0.858-1.858-1.644-2.465-2.358c-0.607-0.714-1.162-1.5-1.661-2.358
	c-0.072,0-0.107-0.035-0.107-0.107v-0.214c0-0.356,0.214-0.536,0.644-0.536c0.143,0,0.375,0.251,0.696,0.75
	c0.321,0.501,0.786,1.091,1.394,1.769c0.606,0.681,1.394,1.341,2.358,1.983c0.964,0.644,2.197,1.108,3.698,1.394
	c0.285-1.356,0.625-2.608,1.019-3.752c0.392-1.143,0.785-2.214,1.179-3.216c0.392-0.999,0.785-2.018,1.18-3.055
	c0.391-1.035,0.766-2.197,1.125-3.484l0.75-2.251c0.215-0.644,0.411-1.286,0.59-1.93c0.178-0.643,0.269-1.179,0.269-1.607
	c-1.859,1.072-3.396,2.108-4.61,3.108c-1.215,1.002-2.18,1.876-2.894,2.627c-0.716,0.75-1.251,1.34-1.608,1.769
	c-0.358,0.428-0.572,0.643-0.643,0.643c-1.287-1-2.162-1.999-2.627-3.001c-0.465-1-0.696-1.893-0.696-2.68
	c0-0.858,0.054-1.519,0.161-1.983c0.106-0.464,0.321-0.874,0.643-1.233c0.322-0.355,0.714-0.713,1.18-1.071
	c0.463-0.356,1.088-0.857,1.875-1.501h0.107c1-0.713,2.395-1.555,4.181-2.519c1.785-0.965,3.841-1.876,6.164-2.733
	c2.32-0.858,4.805-1.571,7.45-2.144c2.643-0.571,5.359-0.858,8.146-0.858c0.928,0,2.465,0.09,4.609,0.269
	c2.144,0.179,4.305,0.643,6.485,1.393c2.179,0.751,4.09,1.841,5.735,3.27c1.643,1.431,2.465,3.432,2.465,6.003
	c0,1.002-0.145,2.021-0.429,3.055c-0.287,1.037-0.607,1.948-0.965,2.734c-1.357,3.216-3.074,6.04-5.146,8.469
	c-2.073,2.43-4.359,4.466-6.86,6.109c-2.502,1.646-5.11,2.878-7.825,3.698c-2.716,0.822-5.359,1.232-7.932,1.232
	c-0.287,0-0.573-0.017-0.858-0.053c-0.286-0.035-0.573-0.054-0.857-0.054c1.571,1.93,3.484,3.717,5.734,5.359
	c2.252,1.645,4.626,3.056,7.129,4.234c2.5,1.179,5.073,2.091,7.718,2.733c2.644,0.644,5.146,0.964,7.504,0.964
	c1.857,0,3.465-0.09,4.824-0.268c1.356-0.179,2.75-0.804,4.181-1.876c0.713,0.714,1.106,1.571,1.179,2.573
	c0.07,1-0.18,1.965-0.751,2.895c-0.572,0.928-1.537,1.731-2.894,2.411c-1.358,0.679-3.146,1.054-5.36,1.126
	c-4.145,0.143-7.878-0.358-11.201-1.501c-3.322-1.144-6.415-2.698-9.272-4.663c-2.859-1.966-5.521-4.25-7.986-6.86
	c-2.465-2.607-4.914-5.27-7.343-7.985c-0.144,0.144-0.285,0.412-0.428,0.804c-0.145,0.394-0.269,0.804-0.376,1.232
	s-0.214,0.822-0.322,1.179c-0.105,0.359-0.16,0.645-0.16,0.858c-0.286,1.216-2.482,10.408-2.66,11.193
	c-0.18,0.787-0.34,1.573-0.482,2.358c-0.144,0.787-0.214,1.394-0.214,1.822c-0.145,0-0.447-0.072-0.911-0.214
	c-0.466-0.143-0.948-0.375-1.447-0.697c-0.502-0.321-0.965-0.75-1.395-1.286C1243.865,594.386,1243.65,593.653,1243.65,592.724z
	 M1258.477,563.951c-0.5,1.001-0.948,1.912-1.339,2.732c-0.394,0.822-0.788,1.646-1.18,2.466c-0.394,0.822-0.769,1.698-1.125,2.626
	c-0.358,0.931-0.787,2.037-1.287,3.323c0.571,0.358,1.448,0.572,2.627,0.643c1.179,0.072,2.198,0.107,3.055,0.107
	c4.288,0,8.343-1.16,12.167-3.482c3.822-2.322,6.948-5.843,9.379-10.56c0.786-1.57,1.447-3.071,1.983-4.502
	c0.536-1.429,0.804-2.644,0.804-3.645c0-0.928-0.358-1.732-1.072-2.412c-0.715-0.679-1.606-1.232-2.68-1.661
	c-1.071-0.429-2.233-0.751-3.483-0.965c-1.251-0.215-2.449-0.322-3.591-0.322c-1.93,0-3.806,0.18-5.628,0.536
	c-1.821,0.358-3.537,0.822-5.146,1.394c-1.607,0.573-3.073,1.198-4.395,1.876c-1.323,0.68-2.484,1.305-3.484,1.876
	c0.214,0,0.66,0.126,1.341,0.375c0.678,0.252,1.355,0.627,2.035,1.126c0.679,0.5,1.288,1.072,1.823,1.715
	c0.536,0.644,0.804,1.358,0.804,2.144c0,0.358,0,0.644,0,0.858c0,0.214-0.054,0.465-0.16,0.75c-0.107,0.286-0.269,0.644-0.483,1.071
	C1259.228,562.45,1258.906,563.093,1258.477,563.951z"/>
<path fill="#73AFBF" d="M1311.75,583.516c0,0.781-1.397,2.858-1.397,2.858c-1.231,1.303-2.806,2.497-4.724,3.583
	c-1.92,1.087-4.146,1.63-6.681,1.63c-1.883,0-3.475-0.399-4.778-1.194c-1.303-0.796-2.354-1.792-3.149-2.987
	c-0.798-1.194-1.357-2.479-1.685-3.855c-0.324-1.375-0.487-2.607-0.487-3.693c0-2.46,0.398-4.832,1.194-7.113
	s1.882-4.326,3.258-6.136c1.375-1.81,2.934-3.259,4.67-4.345c1.738-1.086,3.548-1.629,5.431-1.629c2.316,0,4.108,0.651,5.376,1.954
	c1.267,1.304,1.902,2.716,1.902,4.236c0,1.52-0.327,2.97-0.978,4.344c-0.652,1.377-1.54,2.591-2.661,3.639
	c-1.124,1.051-2.444,1.884-3.965,2.498c-1.521,0.616-3.114,0.924-4.779,0.924c-1.159,0-2.136-0.126-2.933-0.381
	c-0.797-0.252-1.375-0.56-1.737-0.923c-0.435,1.304-0.652,2.606-0.652,3.91c0,2.027,0.635,3.855,1.902,5.484
	c1.266,1.629,2.948,2.443,5.05,2.443c1.592,0,3.203-0.434,4.832-1.303c1.63-0.869,2.914-1.629,3.856-2.281
	c1.087-0.795,1.937-1.483,2.552-2.063 M1296.776,570.517c-1.015,1.449-1.919,3.041-2.714,4.779c0.216,0.073,0.687,0.108,1.411,0.108
	c1.085,0,2.134-0.253,3.149-0.761c1.013-0.505,1.9-1.122,2.661-1.846s1.374-1.502,1.846-2.336c0.471-0.831,0.707-1.537,0.707-2.118
	c0-0.939-0.508-1.41-1.521-1.41c-0.724,0-1.575,0.271-2.553,0.813C1298.786,568.29,1297.79,569.214,1296.776,570.517z"/>
<path fill="#C470A0" d="M1214.24,494.63c0,14.563-18.553,26.37-33.117,26.37c-14.563,0-19.623-11.807-19.623-26.37
	s5.279-26.37,19.843-26.37S1214.24,480.066,1214.24,494.63z"/>
<path fill="#73AFBF" d="M1223.669,468.455c14.456-1.769,28.427,15.214,30.195,29.67s-9.337,20.912-23.793,22.68
	c-14.456,1.769-26.815-2.038-28.584-16.494S1209.213,470.223,1223.669,468.455z"/>
<path fill="#FFFFFF" d="M1201.487,504.311c0.396,3.239,1.328,5.94,2.692,8.167c5.911-4.696,10.061-10.963,10.061-17.848
	c0-5.491-2.608-10.589-6.637-14.812C1202.906,487.039,1200.524,496.439,1201.487,504.311z"/>
<path fill="#BE3A4A" d="M1382.24,27.63c0,14.563-18.553,26.37-33.117,26.37c-14.563,0-19.623-11.807-19.623-26.37
	s5.279-26.37,19.843-26.37S1382.24,13.066,1382.24,27.63z"/>
<path fill="#288DC1" d="M1391.669,1.455c14.456-1.769,28.427,15.214,30.195,29.67s-9.337,20.912-23.793,22.68
	c-14.456,1.769-26.815-2.038-28.584-16.494S1377.213,3.223,1391.669,1.455z"/>
<g>
	<defs>
		<path id="SVGID_1_" d="M1369.487,37.311c0.396,3.239,1.328,5.94,2.692,8.167c5.911-4.696,10.061-10.963,10.061-17.848
			c0-5.491-2.608-10.589-6.637-14.812C1370.906,20.039,1368.524,29.439,1369.487,37.311z"/>
	</defs>
	<clipPath id="SVGID_2_">
		<use xlink:href="#SVGID_1_"  overflow="visible"/>
	</clipPath>
	<g clip-path="url(#SVGID_2_)">
		<rect x="1367" y="12" fill="#288DC1" width="19" height="2"/>
		<rect x="1367" y="14" fill="#BE3A4A" width="19" height="2"/>
		<rect x="1367" y="16" fill="#288DC1" width="19" height="2"/>
		<rect x="1367" y="18" fill="#BE3A4A" width="19" height="2"/>
		<rect x="1367" y="20" fill="#288DC1" width="19" height="2"/>
		<rect x="1367" y="22" fill="#BE3A4A" width="19" height="2"/>
		<rect x="1367" y="24" fill="#288DC1" width="19" height="2"/>
		<rect x="1367" y="26" fill="#BE3A4A" width="19" height="2"/>
		<rect x="1367" y="28" fill="#288DC1" width="19" height="2"/>
		<rect x="1367" y="30" fill="#BE3A4A" width="19" height="2"/>
		<rect x="1367" y="32" fill="#288DC1" width="19" height="2"/>
		<rect x="1367" y="34" fill="#BE3A4A" width="19" height="2"/>
		<rect x="1367" y="36" fill="#288DC1" width="19" height="2"/>
		<rect x="1367" y="38" fill="#BE3A4A" width="19" height="2"/>
		<rect x="1367" y="40" fill="#288DC1" width="19" height="2"/>
		<rect x="1367" y="44" fill="#288DC1" width="19" height="2"/>
		<rect x="1367" y="42" fill="#BE3A4A" width="19" height="2"/>
	</g>
</g>
<g>
	<circle fill="none" stroke="#FFFFFF" stroke-width="4" stroke-miterlimit="10" cx="1299.513" cy="159.57" r="10.623"/>
	<path fill="none" stroke="#FFFFFF" stroke-width="4" stroke-miterlimit="10" d="M1310.945,141.271
		c-2.426,3.624-6.555,6.009-11.242,6.009c-4.666,0-8.78-2.364-11.21-5.96"/>
	<line fill="none" stroke="#FFFFFF" stroke-width="4" stroke-miterlimit="10" x1="1300" y1="170" x2="1300" y2="182"/>
	<line fill="none" stroke="#FFFFFF" stroke-width="4" stroke-miterlimit="10" x1="1295" y1="177" x2="1305" y2="177"/>
</g>
<text transform="matrix(1 0 0 1 1278.0752 304.5703)" fill="#7C98AB" font-family="'Montserrat-Regular'" font-size="44.0219">Re</text>
<path fill="#BE3A4A" d="M1434.646,472.469c1.469,0,2.845,0.135,4.122,0.406c1.277,0.271,2.612,0.522,4.007,0.755
	c0.696-1.472,1.807-3.354,2.428-5.134c0.619-1.78,2.825-7.231,3.521-8.856c-0.464,0.542-0.949,1.064-1.451,1.567
	c-0.504,0.504-1.027,1.027-1.568,1.567c-1.16,1.161-2.612,2.303-4.354,3.426c-1.742,1.121-3.699,1.916-5.865,2.381
	c0,0-0.613,0.231-1.91,0.403s-1.806,0.062-1.806,0.062c-2.787,0-5.091-0.522-6.909-1.568c-1.82-1.045-3.252-2.38-4.297-4.006
	s-1.782-3.368-2.207-5.226c-0.426-1.858-0.639-3.601-0.639-5.227c0-4.645,0.947-9.174,2.846-13.586
	c1.896-4.413,4.122-8.361,6.678-11.846c-2.556,0-4.878,0.099-6.969,0.291c-2.09,0.193-3.91,0.484-5.457,0.87
	c-0.389,0.156-1.008,0.389-1.858,0.697c-0.853,0.311-1.762,0.658-2.729,1.045c-0.969,0.389-1.897,0.813-2.787,1.277
	c-0.891,0.465-1.567,0.891-2.031,1.277c-0.389-0.929-0.697-1.741-0.93-2.438c-0.232-0.696-0.426-1.411-0.58-2.148
	c-0.156-0.734-0.232-1.411-0.232-2.032c0-0.387,0.25-0.889,0.754-1.51c0.504-0.618,1.606-1.237,3.311-1.858
	c0-0.076,0.444-0.231,1.336-0.464c0.889-0.232,2.012-0.482,3.367-0.755c1.354-0.271,2.845-0.522,4.471-0.755
	c1.626-0.231,3.174-0.349,4.645-0.349c1.781,0,3.543,0.137,5.284,0.406c1.742,0.273,3.502,0.602,5.284,0.988
	c3.483-3.174,6.967-5.477,10.451-6.91c3.484-1.432,6.852-2.148,10.104-2.148c1.16,0,2.264,0.078,3.309,0.232
	c1.046,0.156,2.033,0.311,2.962,0.465c0.464,0.156,1.161,0.367,2.091,0.639c0.928,0.271,1.857,0.736,2.787,1.393
	c0.928,0.659,1.741,1.551,2.438,2.672c0.697,1.123,1.045,2.536,1.045,4.238c0,2.014-0.484,3.678-1.451,4.993
	c-0.969,1.317-2.148,2.362-3.541,3.136c-1.395,0.774-2.846,1.317-4.355,1.626c-1.51,0.31-2.807,0.464-3.891,0.464
	c-2.014,0-3.871-0.154-5.574-0.464c-1.703-0.309-3.329-0.697-4.877-1.161c-1.549-0.465-3.02-0.947-4.412-1.452
	c-1.395-0.503-2.711-0.909-3.949-1.219c-3.483,3.175-6.426,6.949-8.825,11.322c-2.4,4.374-3.601,8.961-3.601,13.761
	c0,3.948,0.813,6.871,2.439,8.768c1.625,1.896,3.948,2.845,6.967,2.845c2.399,0,4.664-0.542,6.794-1.625
	c2.128-1.084,4.064-2.381,5.807-3.891c1.741-1.51,3.212-3.058,4.413-4.646c1.199-1.586,2.07-2.883,2.612-3.89
	c0.772-2.245,1.567-4.471,2.381-6.678c0.813-2.206,1.548-4.16,2.206-5.864c0.657-1.702,1.258-3.077,1.801-4.122
	c0.54-1.046,0.967-1.568,1.277-1.568c1.547,0,2.863,0.543,3.947,1.626c1.084,1.085,1.627,2.168,1.627,3.252
	c0,0.464-0.078,0.853-0.232,1.161c-0.697,1.317-1.473,2.711-2.323,4.181c-0.853,1.472-1.646,3.001-2.38,4.587
	c-0.737,1.588-1.336,3.155-1.801,4.703c-0.465,1.55-0.696,3.02-0.696,4.413c0,0.853,0.116,1.529,0.349,2.032
	c0.232,0.504,0.772,0.754,1.625,0.754c1.316,0,2.961-0.792,4.936-2.38c1.975-1.586,3.734-4.161,5.284-7.723v-0.116h0.116
	l0.232-0.116c0.232,0,0.464,0.116,0.696,0.349c0.076,0.078,0.116,0.156,0.116,0.232c-0.697,2.787-1.51,4.993-2.438,6.619
	s-2.169,3.135-3.716,4.528c-1.551,1.394-3.562,2.091-6.039,2.091c-0.697,0-1.434-0.135-2.207-0.406
	c-0.774-0.271-1.51-0.793-2.206-1.568c-1.472,3.328-5.983,10.43-7.532,13.294c1.781,0.309,3.601,0.562,5.459,0.755
	c1.857,0.192,3.638,0.291,5.342,0.291c3.56,0,6.753-0.446,9.58-1.336c2.825-0.891,5.052-1.8,6.678-2.729
	c0.232-0.078,0.715-0.368,1.451-0.871c0.734-0.505,1.527-1.045,2.381-1.626c0.851-0.58,1.664-1.181,2.438-1.8
	c0.772-0.619,1.315-1.121,1.626-1.51c0.076,0,0.27,0.232,0.58,0.697c0.309,0.464,0.619,1.045,0.93,1.741
	c0.309,0.697,0.58,1.452,0.812,2.265s0.348,1.528,0.348,2.148c0,1.548-0.87,2.863-2.612,3.948c-1.741,1.083-3.794,1.975-6.155,2.671
	c-2.361,0.697-4.801,1.18-7.315,1.451c-2.517,0.271-4.549,0.407-6.097,0.407c-3.252-0.078-6.311-0.407-9.174-0.987
	c-2.865-0.581-5.652-1.22-8.361-1.916c-1.161,2.322-2.729,3.948-4.703,4.877c-1.975,0.93-3.736,1.394-5.283,1.394
	c-0.156,0-0.602-0.02-1.336-0.058c-0.736-0.04-1.51-0.232-2.322-0.581s-1.55-0.891-2.207-1.626c-0.658-0.736-0.986-1.8-0.986-3.193
	c0-1.781,0.465-3.193,1.393-4.238c0.93-1.045,1.898-1.716,2.904-2.032c-1.348,0.424,0.465-0.154,1.184-0.201
	S1434.646,472.469,1434.646,472.469z M1429.928,478.855c0,1.006,0.366,1.742,1.104,2.207c0.735,0.464,1.684,0.696,2.845,0.696
	c1.006,0,2.07-0.349,3.193-1.045c1.121-0.697,2.225-2.014,3.311-3.948c-1.008-0.389-1.975-0.736-2.904-1.045
	c-0.929-0.311-1.897-0.465-2.902-0.465c-1.008,0-2.033,0.25-3.078,0.755C1430.45,476.514,1429.928,477.462,1429.928,478.855z
	 M1459.64,423.291c-2.014-1.701-4.452-2.555-7.315-2.555c-1.937,0-3.948,0.369-6.038,1.104c-2.091,0.736-4.143,1.762-6.155,3.077
	c2.322,1.007,4.663,1.956,7.025,2.846c2.36,0.891,4.703,1.335,7.026,1.335c0.54-0.076,1.16-0.25,1.857-0.522
	c0.697-0.271,1.354-0.599,1.975-0.987c0.618-0.386,1.141-0.812,1.567-1.277c0.425-0.464,0.639-0.929,0.639-1.394
	C1460.221,424.453,1460.026,423.912,1459.64,423.291z"/>
<path fill="#BE3A4A" d="M1494.013,452.672c0.154,0.156,0.232,0.31,0.232,0.464c-1.16,2.169-2.516,4.064-4.064,5.69
	c-1.316,1.394-3,2.671-5.051,3.832c-2.053,1.161-4.434,1.742-7.143,1.742c-2.014,0-3.715-0.427-5.109-1.277
	c-1.393-0.851-2.517-1.916-3.367-3.193c-0.854-1.277-1.451-2.651-1.801-4.123c-0.348-1.47-0.521-2.787-0.521-3.948
	c0-2.631,0.426-5.167,1.277-7.606c0.851-2.438,2.012-4.625,3.483-6.561c1.47-1.935,3.136-3.484,4.993-4.646
	c1.858-1.161,3.793-1.741,5.807-1.741c2.477,0,4.393,0.696,5.748,2.09c1.354,1.394,2.033,2.903,2.033,4.529
	c0,1.625-0.35,3.175-1.046,4.645c-0.696,1.472-1.646,2.77-2.845,3.891c-1.201,1.123-2.613,2.014-4.238,2.671
	c-1.627,0.658-3.33,0.987-5.11,0.987c-1.239,0-2.284-0.135-3.136-0.407c-0.853-0.27-1.471-0.599-1.857-0.986
	c-0.465,1.394-0.697,2.787-0.697,4.181c0,2.168,0.678,4.122,2.033,5.864c1.354,1.741,3.152,2.612,5.399,2.612
	c1.702,0,3.425-0.464,5.167-1.394c1.742-0.929,3.115-1.741,4.123-2.438c1.161-0.851,2.07-1.586,2.729-2.206
	c0.657-0.619,1.142-1.142,1.452-1.568c0.308-0.424,0.522-0.734,0.639-0.929c0.116-0.192,0.25-0.29,0.406-0.29
	C1493.703,452.556,1493.857,452.596,1494.013,452.672z M1475.665,441.872c-1.085,1.549-2.052,3.251-2.902,5.109
	c0.231,0.078,0.734,0.116,1.51,0.116c1.16,0,2.281-0.271,3.367-0.813c1.083-0.54,2.032-1.199,2.845-1.974
	c0.813-0.773,1.47-1.605,1.974-2.497c0.504-0.889,0.756-1.644,0.756-2.265c0-1.005-0.543-1.509-1.626-1.509
	c-0.774,0-1.685,0.29-2.729,0.87C1477.813,439.491,1476.749,440.479,1475.665,441.872z"/>
<path fill="#BE3A4A" d="M1508.413,459.175c-1.086-1.548-1.626-3.6-1.626-6.155c0-2.09,0.232-3.966,0.696-5.632
	c0.465-1.664,1.084-3.542,1.858-5.632c-0.696,1.317-1.567,2.923-2.612,4.819c-1.045,1.897-2.072,3.832-3.078,5.806
	c-1.007,1.975-1.916,3.833-2.729,5.574c-0.812,1.742-1.336,3.04-1.568,3.891c-0.388,1.007-0.774,1.78-1.16,2.322
	c-0.389,0.541-0.834,1.045-1.336,1.51c-0.504,0.465-1.065,0.697-1.684,0.697c-1.858,0-3.096-0.717-3.717-2.148
	c-0.618-1.432-0.929-3.31-0.929-5.633c0-2.555,0.311-5.069,0.929-7.548c0.621-2.477,1.318-4.722,2.091-6.735
	c0.772-2.013,1.509-3.696,2.206-5.052c0.697-1.354,1.121-2.187,1.277-2.496c0.465-0.93,0.93-2.032,1.394-3.311
	c0.465-1.277,0.772-2.186,0.929-2.729c0.232,0,0.657,0.194,1.277,0.581c0.619,0.388,1.22,0.87,1.801,1.451
	c0.58,0.581,1.104,1.22,1.567,1.916c0.464,0.697,0.696,1.355,0.696,1.975c0,1.317-0.464,2.787-1.393,4.412
	c-0.93,1.626-1.957,3.388-3.078,5.284c-1.123,1.897-2.148,3.891-3.077,5.98s-1.394,4.297-1.394,6.619
	c0,0.621,0.038,1.085,0.116,1.394c2.555-4.877,4.779-8.922,6.677-12.135c1.896-3.212,3.543-5.807,4.936-7.781
	c1.395-1.974,2.555-3.521,3.484-4.645c0.929-1.122,1.684-2.051,2.265-2.787c0.581-0.735,1.024-1.394,1.335-1.975
	c0.309-0.58,0.581-1.411,0.812-2.496c0.076,0,0.407,0.174,0.988,0.522c0.58,0.348,1.179,0.812,1.799,1.394
	c0.619,0.58,1.2,1.201,1.742,1.857c0.541,0.659,0.812,1.336,0.812,2.032c0,0.232-0.057,0.659-0.174,1.277
	c-0.115,0.621-0.33,1.085-0.639,1.394c-0.62,1.317-1.375,2.691-2.264,4.123c-0.892,1.434-1.742,2.923-2.555,4.471
	c-0.813,1.55-1.51,3.117-2.091,4.703c-0.581,1.588-0.871,3.155-0.871,4.703c0,0.853,0.097,1.567,0.29,2.148
	c0.193,0.58,0.639,0.871,1.336,0.871c1.005,0,2.34-0.793,4.006-2.381c1.664-1.586,3.27-4.16,4.82-7.723l0.231-0.116
	c0.232,0,0.465,0.116,0.696,0.349l0.232,0.232c0,0.156-0.252,0.911-0.754,2.265c-0.505,1.355-1.22,2.845-2.148,4.471
	c-0.93,1.626-2.072,3.098-3.426,4.413c-1.355,1.317-2.885,1.974-4.588,1.974c-0.696,0-1.434-0.154-2.206-0.464
	C1509.845,460.725,1509.11,460.104,1508.413,459.175z"/>
<path fill="#BE3A4A" d="M1551.843,457.897c-0.311,0.465-0.717,1.007-1.219,1.626c-0.505,0.62-1.123,1.219-1.858,1.8
	c-0.737,0.58-1.567,1.064-2.497,1.451c-0.929,0.387-1.975,0.581-3.135,0.581c-0.854,0-1.879-0.251-3.078-0.755
	c-1.201-0.503-1.994-1.49-2.381-2.961c-0.62,0.62-1.665,1.433-3.135,2.438c-1.472,1.007-3.213,1.51-5.226,1.51
	c-1.704,0-3.136-0.407-4.297-1.22s-2.091-1.8-2.787-2.961s-1.199-2.419-1.51-3.774c-0.308-1.354-0.464-2.613-0.464-3.774
	c0-1.857,0.388-3.928,1.16-6.213c0.773-2.282,1.896-4.431,3.368-6.444c1.47-2.013,3.252-3.696,5.342-5.052
	c2.091-1.354,4.413-2.032,6.968-2.032c1.161,0,2.225,0.116,3.193,0.349c0.967,0.232,1.801,0.542,2.497,0.929
	c1.161-2.941,2.187-5.477,3.077-7.606c0.889-2.128,1.568-3.733,2.032-4.819l0.813-2.438c0.232-0.696,0.443-1.394,0.639-2.091
	c0.191-0.696,0.29-1.277,0.29-1.741c0.153,0.077,0.581,0.252,1.277,0.522c0.696,0.271,1.432,0.639,2.206,1.104
	c0.773,0.465,1.47,1.027,2.09,1.684c0.619,0.658,0.93,1.414,0.93,2.264c0,0.389-0.04,0.813-0.116,1.278
	c-0.078,0.464-0.232,1.007-0.464,1.626c-0.543,1.239-1.551,3.349-3.02,6.328c-1.472,2.981-3.002,6.213-4.588,9.697
	c-1.587,3.483-2.98,6.909-4.18,10.277c-1.201,3.367-1.801,6.021-1.801,7.954c0,1.626,0.657,2.438,1.975,2.438
	c1.315,0,2.941-0.793,4.877-2.38c1.935-1.586,3.677-4.161,5.227-7.723l0.232-0.116c0.308,0,0.58,0.116,0.812,0.349l0.232,0.232
	c0,0.31-0.252,1.201-0.756,2.671C1554.067,454.375,1553.158,456.039,1551.843,457.897z M1537.211,457.549
	c-0.078-0.309-0.116-0.851-0.116-1.626c0-2.166,0.309-4.604,0.93-7.315c0.618-2.709,1.393-5.418,2.322-8.129
	c-1.24-1.006-2.672-1.51-4.297-1.51c-1.55,0-3.039,0.484-4.471,1.451c-1.434,0.969-2.691,2.207-3.774,3.717
	c-1.085,1.509-1.956,3.155-2.612,4.935c-0.659,1.782-0.988,3.524-0.988,5.227c0,2.246,0.678,3.89,2.033,4.935
	c1.354,1.046,2.883,1.568,4.586,1.568c1.238,0,2.42-0.271,3.543-0.813C1535.487,459.447,1536.437,458.634,1537.211,457.549z"/>
<path fill="#BE3A4A" d="M1434.646,472.469c1.469,0,2.845,0.135,4.122,0.406c1.277,0.271,2.612,0.522,4.007,0.755
	c0.696-1.472,1.807-3.354,2.428-5.134c0.619-1.78,2.825-7.231,3.521-8.856c-0.464,0.542-0.949,1.064-1.451,1.567
	c-0.504,0.504-1.027,1.027-1.568,1.567c-1.16,1.161-2.612,2.303-4.354,3.426c-1.742,1.121-3.699,1.916-5.865,2.381
	c0,0-0.613,0.231-1.91,0.403s-1.806,0.062-1.806,0.062c-2.787,0-5.091-0.522-6.909-1.568c-1.82-1.045-3.252-2.38-4.297-4.006
	s-1.782-3.368-2.207-5.226c-0.426-1.858-0.639-3.601-0.639-5.227c0-4.645,0.947-9.174,2.846-13.586
	c1.896-4.413,4.122-8.361,6.678-11.846c-2.556,0-4.878,0.099-6.969,0.291c-2.09,0.193-3.91,0.484-5.457,0.87
	c-0.389,0.156-1.008,0.389-1.858,0.697c-0.853,0.311-1.762,0.658-2.729,1.045c-0.969,0.389-1.897,0.813-2.787,1.277
	c-0.891,0.465-1.567,0.891-2.031,1.277c-0.389-0.929-0.697-1.741-0.93-2.438c-0.232-0.696-0.426-1.411-0.58-2.148
	c-0.156-0.734-0.232-1.411-0.232-2.032c0-0.387,0.25-0.889,0.754-1.51c0.504-0.618,1.606-1.237,3.311-1.858
	c0-0.076,0.444-0.231,1.336-0.464c0.889-0.232,2.012-0.482,3.367-0.755c1.354-0.271,2.845-0.522,4.471-0.755
	c1.626-0.231,3.174-0.349,4.645-0.349c1.781,0,3.543,0.137,5.284,0.406c1.742,0.273,3.502,0.602,5.284,0.988
	c3.483-3.174,6.967-5.477,10.451-6.91c3.484-1.432,6.852-2.148,10.104-2.148c1.16,0,2.264,0.078,3.309,0.232
	c1.046,0.156,2.033,0.311,2.962,0.465c0.464,0.156,1.161,0.367,2.091,0.639c0.928,0.271,1.857,0.736,2.787,1.393
	c0.928,0.659,1.741,1.551,2.438,2.672c0.697,1.123,1.045,2.536,1.045,4.238c0,2.014-0.484,3.678-1.451,4.993
	c-0.969,1.317-2.148,2.362-3.541,3.136c-1.395,0.774-2.846,1.317-4.355,1.626c-1.51,0.31-2.807,0.464-3.891,0.464
	c-2.014,0-3.871-0.154-5.574-0.464c-1.703-0.309-3.329-0.697-4.877-1.161c-1.549-0.465-3.02-0.947-4.412-1.452
	c-1.395-0.503-2.711-0.909-3.949-1.219c-3.483,3.175-6.426,6.949-8.825,11.322c-2.4,4.374-3.601,8.961-3.601,13.761
	c0,3.948,0.813,6.871,2.439,8.768c1.625,1.896,3.948,2.845,6.967,2.845c2.399,0,4.664-0.542,6.794-1.625
	c2.128-1.084,4.064-2.381,5.807-3.891c1.741-1.51,3.212-3.058,4.413-4.646c1.199-1.586,2.07-2.883,2.612-3.89
	c0.772-2.245,1.567-4.471,2.381-6.678c0.813-2.206,1.548-4.16,2.206-5.864c0.657-1.702,1.258-3.077,1.801-4.122
	c0.54-1.046,0.967-1.568,1.277-1.568c1.547,0,2.863,0.543,3.947,1.626c1.084,1.085,1.627,2.168,1.627,3.252
	c0,0.464-0.078,0.853-0.232,1.161c-0.697,1.317-1.473,2.711-2.323,4.181c-0.853,1.472-1.646,3.001-2.38,4.587
	c-0.737,1.588-1.336,3.155-1.801,4.703c-0.465,1.55-0.696,3.02-0.696,4.413c0,0.853,0.116,1.529,0.349,2.032
	c0.232,0.504,0.772,0.754,1.625,0.754c1.316,0,2.961-0.792,4.936-2.38c1.975-1.586,3.734-4.161,5.284-7.723v-0.116h0.116
	l0.232-0.116c0.232,0,0.464,0.116,0.696,0.349c0.076,0.078,0.116,0.156,0.116,0.232c-0.697,2.787-1.51,4.993-2.438,6.619
	s-2.169,3.135-3.716,4.528c-1.551,1.394-3.562,2.091-6.039,2.091c-0.697,0-1.434-0.135-2.207-0.406
	c-0.774-0.271-1.51-0.793-2.206-1.568c-1.472,3.328-5.983,10.43-7.532,13.294c1.781,0.309,3.601,0.562,5.459,0.755
	c1.857,0.192,3.638,0.291,5.342,0.291c3.56,0,6.753-0.446,9.58-1.336c2.825-0.891,5.052-1.8,6.678-2.729
	c0.232-0.078,0.715-0.368,1.451-0.871c0.734-0.505,1.527-1.045,2.381-1.626c0.851-0.58,1.664-1.181,2.438-1.8
	c0.772-0.619,1.315-1.121,1.626-1.51c0.076,0,0.27,0.232,0.58,0.697c0.309,0.464,0.619,1.045,0.93,1.741
	c0.309,0.697,0.58,1.452,0.812,2.265s0.348,1.528,0.348,2.148c0,1.548-0.87,2.863-2.612,3.948c-1.741,1.083-3.794,1.975-6.155,2.671
	c-2.361,0.697-4.801,1.18-7.315,1.451c-2.517,0.271-4.549,0.407-6.097,0.407c-3.252-0.078-6.311-0.407-9.174-0.987
	c-2.865-0.581-5.652-1.22-8.361-1.916c-1.161,2.322-2.729,3.948-4.703,4.877c-1.975,0.93-3.736,1.394-5.283,1.394
	c-0.156,0-0.602-0.02-1.336-0.058c-0.736-0.04-1.51-0.232-2.322-0.581s-1.55-0.891-2.207-1.626c-0.658-0.736-0.986-1.8-0.986-3.193
	c0-1.781,0.465-3.193,1.393-4.238c0.93-1.045,1.898-1.716,2.904-2.032c-1.348,0.424,0.465-0.154,1.184-0.201
	S1434.646,472.469,1434.646,472.469z M1429.928,478.855c0,1.006,0.366,1.742,1.104,2.207c0.735,0.464,1.684,0.696,2.845,0.696
	c1.006,0,2.07-0.349,3.193-1.045c1.121-0.697,2.225-2.014,3.311-3.948c-1.008-0.389-1.975-0.736-2.904-1.045
	c-0.929-0.311-1.897-0.465-2.902-0.465c-1.008,0-2.033,0.25-3.078,0.755C1430.45,476.514,1429.928,477.462,1429.928,478.855z
	 M1459.64,423.291c-2.014-1.701-4.452-2.555-7.315-2.555c-1.937,0-3.948,0.369-6.038,1.104c-2.091,0.736-4.143,1.762-6.155,3.077
	c2.322,1.007,4.663,1.956,7.025,2.846c2.36,0.891,4.703,1.335,7.026,1.335c0.54-0.076,1.16-0.25,1.857-0.522
	c0.697-0.271,1.354-0.599,1.975-0.987c0.618-0.386,1.141-0.812,1.567-1.277c0.425-0.464,0.639-0.929,0.639-1.394
	C1460.221,424.453,1460.026,423.912,1459.64,423.291z"/>
<path fill="#BE3A4A" d="M1494.013,452.672c0.154,0.156,0.232,0.31,0.232,0.464c-1.16,2.169-2.516,4.064-4.064,5.69
	c-1.316,1.394-3,2.671-5.051,3.832c-2.053,1.161-4.434,1.742-7.143,1.742c-2.014,0-3.715-0.427-5.109-1.277
	c-1.393-0.851-2.517-1.916-3.367-3.193c-0.854-1.277-1.451-2.651-1.801-4.123c-0.348-1.47-0.521-2.787-0.521-3.948
	c0-2.631,0.426-5.167,1.277-7.606c0.851-2.438,2.012-4.625,3.483-6.561c1.47-1.935,3.136-3.484,4.993-4.646
	c1.858-1.161,3.793-1.741,5.807-1.741c2.477,0,4.393,0.696,5.748,2.09c1.354,1.394,2.033,2.903,2.033,4.529
	c0,1.625-0.35,3.175-1.046,4.645c-0.696,1.472-1.646,2.77-2.845,3.891c-1.201,1.123-2.613,2.014-4.238,2.671
	c-1.627,0.658-3.33,0.987-5.11,0.987c-1.239,0-2.284-0.135-3.136-0.407c-0.853-0.27-1.471-0.599-1.857-0.986
	c-0.465,1.394-0.697,2.787-0.697,4.181c0,2.168,0.678,4.122,2.033,5.864c1.354,1.741,3.152,2.612,5.399,2.612
	c1.702,0,3.425-0.464,5.167-1.394c1.742-0.929,3.115-1.741,4.123-2.438c1.161-0.851,2.07-1.586,2.729-2.206
	c0.657-0.619,1.142-1.142,1.452-1.568c0.308-0.424,0.522-0.734,0.639-0.929c0.116-0.192,0.25-0.29,0.406-0.29
	C1493.703,452.556,1493.857,452.596,1494.013,452.672z M1475.665,441.872c-1.085,1.549-2.052,3.251-2.902,5.109
	c0.231,0.078,0.734,0.116,1.51,0.116c1.16,0,2.281-0.271,3.367-0.813c1.083-0.54,2.032-1.199,2.845-1.974
	c0.813-0.773,1.47-1.605,1.974-2.497c0.504-0.889,0.756-1.644,0.756-2.265c0-1.005-0.543-1.509-1.626-1.509
	c-0.774,0-1.685,0.29-2.729,0.87C1477.813,439.491,1476.749,440.479,1475.665,441.872z"/>
<path fill="#BE3A4A" d="M1508.413,459.175c-1.086-1.548-1.626-3.6-1.626-6.155c0-2.09,0.232-3.966,0.696-5.632
	c0.465-1.664,1.084-3.542,1.858-5.632c-0.696,1.317-1.567,2.923-2.612,4.819c-1.045,1.897-2.072,3.832-3.078,5.806
	c-1.007,1.975-1.916,3.833-2.729,5.574c-0.812,1.742-1.336,3.04-1.568,3.891c-0.388,1.007-0.774,1.78-1.16,2.322
	c-0.389,0.541-0.834,1.045-1.336,1.51c-0.504,0.465-1.065,0.697-1.684,0.697c-1.858,0-3.096-0.717-3.717-2.148
	c-0.618-1.432-0.929-3.31-0.929-5.633c0-2.555,0.311-5.069,0.929-7.548c0.621-2.477,1.318-4.722,2.091-6.735
	c0.772-2.013,1.509-3.696,2.206-5.052c0.697-1.354,1.121-2.187,1.277-2.496c0.465-0.93,0.93-2.032,1.394-3.311
	c0.465-1.277,0.772-2.186,0.929-2.729c0.232,0,0.657,0.194,1.277,0.581c0.619,0.388,1.22,0.87,1.801,1.451
	c0.58,0.581,1.104,1.22,1.567,1.916c0.464,0.697,0.696,1.355,0.696,1.975c0,1.317-0.464,2.787-1.393,4.412
	c-0.93,1.626-1.957,3.388-3.078,5.284c-1.123,1.897-2.148,3.891-3.077,5.98s-1.394,4.297-1.394,6.619
	c0,0.621,0.038,1.085,0.116,1.394c2.555-4.877,4.779-8.922,6.677-12.135c1.896-3.212,3.543-5.807,4.936-7.781
	c1.395-1.974,2.555-3.521,3.484-4.645c0.929-1.122,1.684-2.051,2.265-2.787c0.581-0.735,1.024-1.394,1.335-1.975
	c0.309-0.58,0.581-1.411,0.812-2.496c0.076,0,0.407,0.174,0.988,0.522c0.58,0.348,1.179,0.812,1.799,1.394
	c0.619,0.58,1.2,1.201,1.742,1.857c0.541,0.659,0.812,1.336,0.812,2.032c0,0.232-0.057,0.659-0.174,1.277
	c-0.115,0.621-0.33,1.085-0.639,1.394c-0.62,1.317-1.375,2.691-2.264,4.123c-0.892,1.434-1.742,2.923-2.555,4.471
	c-0.813,1.55-1.51,3.117-2.091,4.703c-0.581,1.588-0.871,3.155-0.871,4.703c0,0.853,0.097,1.567,0.29,2.148
	c0.193,0.58,0.639,0.871,1.336,0.871c1.005,0,2.34-0.793,4.006-2.381c1.664-1.586,3.27-4.16,4.82-7.723l0.231-0.116
	c0.232,0,0.465,0.116,0.696,0.349l0.232,0.232c0,0.156-0.252,0.911-0.754,2.265c-0.505,1.355-1.22,2.845-2.148,4.471
	c-0.93,1.626-2.072,3.098-3.426,4.413c-1.355,1.317-2.885,1.974-4.588,1.974c-0.696,0-1.434-0.154-2.206-0.464
	C1509.845,460.725,1509.11,460.104,1508.413,459.175z"/>
<path fill="#BE3A4A" d="M1551.843,457.897c-0.311,0.465-0.717,1.007-1.219,1.626c-0.505,0.62-1.123,1.219-1.858,1.8
	c-0.737,0.58-1.567,1.064-2.497,1.451c-0.929,0.387-1.975,0.581-3.135,0.581c-0.854,0-1.879-0.251-3.078-0.755
	c-1.201-0.503-1.994-1.49-2.381-2.961c-0.62,0.62-1.665,1.433-3.135,2.438c-1.472,1.007-3.213,1.51-5.226,1.51
	c-1.704,0-3.136-0.407-4.297-1.22s-2.091-1.8-2.787-2.961s-1.199-2.419-1.51-3.774c-0.308-1.354-0.464-2.613-0.464-3.774
	c0-1.857,0.388-3.928,1.16-6.213c0.773-2.282,1.896-4.431,3.368-6.444c1.47-2.013,3.252-3.696,5.342-5.052
	c2.091-1.354,4.413-2.032,6.968-2.032c1.161,0,2.225,0.116,3.193,0.349c0.967,0.232,1.801,0.542,2.497,0.929
	c1.161-2.941,2.187-5.477,3.077-7.606c0.889-2.128,1.568-3.733,2.032-4.819l0.813-2.438c0.232-0.696,0.443-1.394,0.639-2.091
	c0.191-0.696,0.29-1.277,0.29-1.741c0.153,0.077,0.581,0.252,1.277,0.522c0.696,0.271,1.432,0.639,2.206,1.104
	c0.773,0.465,1.47,1.027,2.09,1.684c0.619,0.658,0.93,1.414,0.93,2.264c0,0.389-0.04,0.813-0.116,1.278
	c-0.078,0.464-0.232,1.007-0.464,1.626c-0.543,1.239-1.551,3.349-3.02,6.328c-1.472,2.981-3.002,6.213-4.588,9.697
	c-1.587,3.483-2.98,6.909-4.18,10.277c-1.201,3.367-1.801,6.021-1.801,7.954c0,1.626,0.657,2.438,1.975,2.438
	c1.315,0,2.941-0.793,4.877-2.38c1.935-1.586,3.677-4.161,5.227-7.723l0.232-0.116c0.308,0,0.58,0.116,0.812,0.349l0.232,0.232
	c0,0.31-0.252,1.201-0.756,2.671C1554.067,454.375,1553.158,456.039,1551.843,457.897z M1537.211,457.549
	c-0.078-0.309-0.116-0.851-0.116-1.626c0-2.166,0.309-4.604,0.93-7.315c0.618-2.709,1.393-5.418,2.322-8.129
	c-1.24-1.006-2.672-1.51-4.297-1.51c-1.55,0-3.039,0.484-4.471,1.451c-1.434,0.969-2.691,2.207-3.774,3.717
	c-1.085,1.509-1.956,3.155-2.612,4.935c-0.659,1.782-0.988,3.524-0.988,5.227c0,2.246,0.678,3.89,2.033,4.935
	c1.354,1.046,2.883,1.568,4.586,1.568c1.238,0,2.42-0.271,3.543-0.813C1535.487,459.447,1536.437,458.634,1537.211,457.549z"/>
<text transform="matrix(1 0 0 1 1295 115)"><tspan x="0" y="0" fill="#BE3A4A" font-family="'Pacifico-Regular'" font-size="48">Gend</tspan><tspan x="101.297" y="0" fill="#288DC1" font-family="'Pacifico-Regular'" font-size="48">Re</tspan></text>
</svg>
